<mxfile host="app.diagrams.net" agent="Mozilla/5.0 (Windows NT 10.0; Win64; x64) AppleWebKit/537.36 (KHTML, like Gecko) Chrome/137.0.0.0 Safari/537.36" version="27.1.6">
  <diagram name="Page-1" id="D4OL9BOBvSU10HSQ8e3W">
    <mxGraphModel dx="1042" dy="562" grid="1" gridSize="10" guides="1" tooltips="1" connect="1" arrows="1" fold="1" page="1" pageScale="1" pageWidth="850" pageHeight="1100" math="0" shadow="0">
      <root>
        <mxCell id="0" />
        <mxCell id="1" parent="0" />
        <mxCell id="vXx897osCVxb41_K1xxa-38" value="" style="strokeWidth=2;html=1;shape=mxgraph.flowchart.annotation_2;align=left;labelPosition=right;pointerEvents=1;direction=north;" vertex="1" parent="1">
          <mxGeometry x="299" y="430" width="240" height="130" as="geometry" />
        </mxCell>
        <mxCell id="vXx897osCVxb41_K1xxa-1" value="Preprocessed Text Chunks" style="rounded=0;whiteSpace=wrap;html=1;" vertex="1" parent="1">
          <mxGeometry x="239" y="180" width="120" height="60" as="geometry" />
        </mxCell>
        <mxCell id="vXx897osCVxb41_K1xxa-23" value="" style="edgeStyle=orthogonalEdgeStyle;rounded=0;orthogonalLoop=1;jettySize=auto;html=1;" edge="1" parent="1" source="vXx897osCVxb41_K1xxa-2">
          <mxGeometry relative="1" as="geometry">
            <mxPoint x="539" y="279" as="targetPoint" />
          </mxGeometry>
        </mxCell>
        <mxCell id="vXx897osCVxb41_K1xxa-2" value="User Question" style="rounded=0;whiteSpace=wrap;html=1;" vertex="1" parent="1">
          <mxGeometry x="479" y="180" width="120" height="60" as="geometry" />
        </mxCell>
        <mxCell id="vXx897osCVxb41_K1xxa-24" value="" style="group" vertex="1" connectable="0" parent="1">
          <mxGeometry x="239" y="281" width="120" height="150" as="geometry" />
        </mxCell>
        <mxCell id="vXx897osCVxb41_K1xxa-26" value="" style="rounded=0;whiteSpace=wrap;html=1;" vertex="1" parent="vXx897osCVxb41_K1xxa-24">
          <mxGeometry y="-1" width="120" height="150" as="geometry" />
        </mxCell>
        <mxCell id="vXx897osCVxb41_K1xxa-7" value="" style="shape=image;verticalLabelPosition=bottom;labelBackgroundColor=default;verticalAlign=top;aspect=fixed;imageAspect=0;image=data:image/jpeg,/9j/4QBMRXhpZgAASUkqAAgAAAABAGmHBAABAAAAHAAAAAAAAAAAAAEABJACABQAAAAwAAAAAAAAAAAAMjAyMC0wOC0wN1QxNTozNzowNAD/4AAQSkZJRgABAQAAAQABAAD/4gHYSUNDX1BST0ZJTEUAAQEAAAHIAAAAAAQwAABtbnRyUkdCIFhZWiAH4AABAAEAAAAAAABhY3NwAAAAAAAAAAAAAAAAAAAAAAAAAAAAAAAAAAAAAQAA9tYAAQAAAADTLQAAAAAAAAAAAAAAAAAAAAAAAAAAAAAAAAAAAAAAAAAAAAAAAAAAAAAAAAAAAAAAAAAAAAlkZXNjAAAA8AAAACRyWFlaAAABFAAAABRnWFlaAAABKAAAABRiWFlaAAABPAAAABR3dHB0AAABUAAAABRyVFJDAAABZAAAAChnVFJDAAABZAAAAChiVFJDAAABZAAAAChjcHJ0AAABjAAAADxtbHVjAAAAAAAAAAEAAAAMZW5VUwAAAAgAAAAcAHMAUgBHAEJYWVogAAAAAAAAb6IAADj1AAADkFhZWiAAAAAAAABimQAAt4UAABjaWFlaIAAAAAAAACSgAAAPhAAAts9YWVogAAAAAAAA9tYAAQAAAADTLXBhcmEAAAAAAAQAAAACZmYAAPKnAAANWQAAE9AAAApbAAAAAAAAAABtbHVjAAAAAAAAAAEAAAAMZW5VUwAAACAAAAAcAEcAbwBvAGcAbABlACAASQBuAGMALgAgADIAMAAxADb/2wBDAAMCAgICAgMCAgIDAwMDBAYEBAQEBAgGBgUGCQgKCgkICQkKDA8MCgsOCwkJDRENDg8QEBEQCgwSExIQEw8QEBD/2wBDAQMDAwQDBAgEBAgQCwkLEBAQEBAQEBAQEBAQEBAQEBAQEBAQEBAQEBAQEBAQEBAQEBAQEBAQEBAQEBAQEBAQEBD/wAARCASXBJcDASIAAhEBAxEB/8QAHQABAAICAwEBAAAAAAAAAAAAAAgJAQcDBQYEAv/EAFsQAQABAgMCBQ0LCgQGAQMBCQABAgMEBQYHEQgJITFREhk3QVZhcXR1k5Sy0RMUFhg1VFeBkbHBFSIjMjhCVWJzwhckUqEzNnKFkqI0Q0eCRiUmKERFU2Rlo//EABQBAQAAAAAAAAAAAAAAAAAAAAD/xAAUEQEAAAAAAAAAAAAAAAAAAAAA/9oADAMBAAIRAxEAPwCysAAAAAAAAAAAAAAAAAAAAAAAAAAAAAAAAAAAAAAAAAAAAAAAAAAAAAAAAAAAAAAAAAAAAAAAAAAAAAAAAAAAAAAAAAAAAAAAAAAAAAAAAAAAAAAAAAAAAAAAAAAAAAAAAAAAAAAAAAAAAAAAAAAAAAAAAAAAAAAAAAAAAAAAAAAAAAAAAAAAAAAAAAAAAAAAAAAAAAAAAAAAAAAAAAAAAAAAAAAAAAAAAAAAAAAAAAAAAAAAAAAAAAAAAAAAAAAAAAAAAAAAAAAAAAAAAAAAAAAAAAAAAAAAAAAAAAAAAAAAAAAAAAAAAAAAAAAAAAAAAAAAAAAAAAAAAAAAAAAAAAAAAAAAAAAAAAAAAAAAAAAAAAAAAAAAAAAAAAAAAAAAAAAAAAAAAAAAAAAAAAAAAAAAAAAAAAAAAAAAAAAAAAAAAAAAAAAAAAAAAAAAAAAAAAAAAAAAAAAAAAAAAAAAAAAAAAAAAAAAAAAAAAAAAAAAAAAAAAAAAAAAAAAAAAAAAAAAAAAAAAAAAAAAAAAAAAAAAAAAAAAAAAAAAAAAAAAAAAAAAAAAAAAAAAAAAAAAAAAAAAAAAAAAAAAAAAAAAAAAAAAAAAAAAAAAAAAAAAAAAAAAAAAAAAAAAAAAAAAAAAAAAAAAAAAAAAAAAAAAAAAAAAAAAAAAAAAAAAAAAAAAAAAAAAAAAAAAAAAAAAAAAAAAAAAAAAAAAAAAAAAAAAAAAAAAAAAAAAAAAAAAAAAAAAAAAAAAAAAAAAAAAAAAAAAAAAAAAAAAAAAAAAAAAAAAAAAAAAAAAAAAAAAAAAAAAAAAAAAAAAAAAAAAAAAAAAAAAAAAAAAAAAAAAAAAAAAAAAAAAAAAAAAAAAAAAAAAAAAAAAAAAAAAAAAAAAAAAAAAAAAAAAAAAAAAAAAAAAAAAAAAAAAAAAAAAAAAAAAAAAAAAAAAAAAAAAAAAAAAAAAAAAAAAAAAAAAAAAAAAAAAAAAAAAAAAAAAAAAAAAAAAAAAAAAAAAAAAAAAAAAAAAAAAAAAAAAAAAAAAAAAAAAAAAAAAAAAAAAAAAAAAAAAAAAAAAAAAAAAAAAAAAAAAAAAAAAAAAAAAAAHW6h1Dk+lcmxWf5/jbeEwGCtzdvXa53RTEA7LnNyK+ZcYRsuwmNu4fA6ezfF2bdUxTeiKaIr78RL5uuIbOe5DOP8AzoBLHcbkTuuIbOe5DOP/ADoOuIbOe5DOP/OgEsdxuRO64hs57kM4/wDOg64hs57kM4/86ASx3G5E7riGznuQzj/zoOuIbOe5DOP/ADoBLHcbkTuuIbOe5DOP/Og64hs57kM4/wDOgEsRGLTXD62U53m1jLcyyrM8rt36oojE3opqopmZ3fnbuaO+kvg8ZhcwwtrHYK/Rew9+iLlq5RO+mumY3xMSDmAAAAAAAAAAAAAAAAAAAAAAAAAAAAAAAAAAAAAAAAAAAAAAAAAAAAAAAAAAAAAAAAAAAAAAAAAAAAAAAAAAAAAAAAAAAAAAAAAAAAAAAAAAAAAAAAAAAAAAAAAAAAAAAAAAAAAARs4e+Z38DsSjC2L1dHvzMbNuuKZ5KqY5ZiUk0VeMKxE0bLsosdVERczOJ3dO6kFe3fAAAAAAAAAA5Y5Vq3BQzO/muwTSl/EXq7tyjDTamqud8/m1TEKqVoHAuxE39gORxNUT7ncvURu7X53MDeYAAAAAAAAAAAAAAAAAAAAAAAAAAAAAAAAAAAAAAAAAAAAAAAAAAAAAAAAAAAAAAAAAAAAAAAAAAAAAAAAAAAAAAAAAAAAAAAAAAAAAAAAAAAAAAAAAAAAAAAAAAAAAAAAAAAAACIvGK4j3PQ2mbHU7/dcxuTv6N1tLpDLjGsTT+SNJYTqp3ziL1e7tfq7gQZDvAAAAAAAAACy/gMX/AHfYLgo6nd7njsTR4d1UcqtBY5wBMTTd2LXbEVTM2czvb46N+6QSXAAAAAAAAAAAAAAAAAAAAAAAAAAAAAAAAAAAAAAAAAAAAAAAAAAAAAAAAAAAAAAAAAAAAAAAAAAAAAAAAAAAAAAAAAAAAAAAAAAAAAAAAAAAAAAAAAAAAAAAAAAfFnWc5Xp7KsTnWdY21hMFhLc3b165O6mmmO2zm+bZbkWW4jNs3xlrCYTC25uXb1yqKaaaYjlnerj4UfCizHaxmN3Sulr1zC6YwtyafzZ3VYyqP3qv5eiASIzDjANlGEzyctw+UZrisFRX1E42iIinwxTPLMJCaO1npzXuQ4fUelsztY3A4mnfTXRP6s9umY7Uwpo7zauwbhA6p2JagoxGCu3MXk1+uIxmAqrnqaqf9VPRUC14eX2c7R9LbUNNYfU+lcfRiMPepj3Sjf8An2a+3TVHal6gAAAAAHHfxFjC2asRir1uzaojfVXXVFNMR35kHIhFxjd+fdtIYbfG6ab9ff59zdm03hf7IdnUXcJazaM8zGjfEYbATFcRV36+aEFeEJt+zbbznuDzHG5RYy3DZZRXawtqiqaqupqnfPVT25BqeAAAAAAAAAAFhnF735ubKc1tTMbrWaTu+ulXm3twcOFDmGwixi8kvZDazPKswvxfvdTVNN2iqI3b6Z5ubtAs9GpNmnCi2RbTaLdrLdRWsBjq4jfg8dMWq9/REzyS21RVTcpiu3VFVNXLFVM74kGQAAAAAHkdpW1LR2yjIK9Q6wzKnD2Y5LVqOW5eq/0009uXWbZttOk9i+mrmd5/iaK8XcpmMHg6av0l+vtREdqO+rF2tbXtW7YdS3tQakxlfufVTGGwtNU+54ejtREfiCcmkuHnsp1HntvJsxy/McntX7kW7WKxG6be+Z5Oq3csJJ4bE4bG4e3i8Jeou2LtMV0XKKt9NVM80xKlCOTtc3fS44JfCvuaVuYXZvtCxs15Tcqi3gcdcnfOGmf3ap/0/cCfY47F+zirNGJw12m5auUxXTXTO+KontxPbcgAAAAAAAAAAAAAAAAAAAAAAAAAAAAAAAAAAAAAAAAAAAAAAAAAAAAAAAAAAAAAAAAAAAAAAAAAAAAAAAAAAAAAAAAAAAAAAAAAAAAAAAAAAD483zfLciy7EZvm2MtYXCYW3Ny7duVdTTTTEcvK/WZZlgMnwF/M8zxVrDYXDUTcvXblURTRTHPMyrm4VfCgxu1PNLuktI4u7Y0xhK5pqmmd04yuP3p/l6IBxcKPhR5ltXzK7pXSuIu4XS+FubvzZ3VYyqP3qv5eiEdAAABsTYvtt1ZsX1LbzjIsTXdwdyqIxeBqqn3O/T4O1PRKzjZNtb0ntg0zZ1DpnG0VVdTEYnCzV+ksXO3TVH4qg3tNlO1nVmyHU9nUemcZVRETEYjD1T+iv0dumqPxBb/z8w1xsW246S20aat5vk2Jos46zTEY3A11fpLFfb8Md9x7RuEVso2Y2q4z/U+Hu4uiJ3YPC1RduzPRujm+sGy3S6n1ppXRmBrzDVGfYPLbFEdVM37sUzPgjnn6kG9p3D+1fnU3sv2dZRbybDTvpjFX/wBJfmOmI5oRk1NrPVWssdXmOqM+xmZX653zVfuzVH1RzQCcW03h/aSyb3bL9nOUXM4xMb6YxWI/MsxPTEc8om7RuERtW2nXa41DqfEW8JVM7sJhqptWqY6N0c7WoDMzM8szMzPLM7+djvgAAAAAAAAAAAAD9UXLlqum5arqorpnfFVM7piW3NmnCm2u7NK7djA6grzHL6JjfhMdM3KN3emeWGoQFiezLh4bOtUzZwGtsLd09ja91M3J/Pw8z4eeEkMl1BkepMFRmGQZthcfh64iqLli7Fcbp8Clx6bRm0vXWz/G0Y7SWpcbl9dE7+ot3Z6irvTTPIC40QY2Y8YNmeF9xy7adp+nFW+Smcdgvza4780c0/UldoDbXs02l4ei7pTVWExF2qImcNXXFF6meiaZB7lqzbvt+0rsS0/Xisfet4rOMRTMYLL6avz7lXTPRS6vhDcJHTexPJasPauWsdqLE0T71wVNW/qP56+iFaOttb6k2hahxWptUZjcxeMxNUzM1T+bTHappjtRAPs2kbS9U7U9S4jU2qcwrxF67VM2re+eos0dqmmO1DyoAETMTExO7cAJc8E3hZXtMXcLs52i46q5lVyYt4HHXZ3zhpnmoqn/AE/cntYxFnFWaMTh7tN23dpiuiumd8VRPbie2pQiZid8TzJf8EbhWV6evYfZttFzGassuTFvL8bdnfNiqeaiqZ/d6OgE9B+LV23ft0X7Nym5RciKqaqZ3xVE80xPbfsAAAAAAAAAAAAAAAAAAAAAAAAAAAAAAAAAAAAAAAAAAAAAAAAAAAAAAAAAAAAAAAAAAAAAAAAAAAAAAAAAAAAAAAAAAAAAAAAAAAAAAB82ZZlgMnwF/NMzxVvDYXDUTcu3blXU00UxzzMs5hj8FleCvZjmGJt4fDYeiq5du3Kt1NNMRyzvV1cKjhT47afj72jdG4m5htNYauabldM7qsbVHbn+XogGOFRwqMftQx97R2jcVdw2mcNXNNyumd1WNqjtz/L0QjUAAAAAB9QA7LJNSZ/pu7dv5DnGLy+5ftzauVYe7NE1Uz2p3Phv4i/irtV/E3q7t2ud9VddU1VTPfmXGAAAAAAAAAAAAAAAAAAAAAAAPowOY4/K8TRjMtxl/C37c76blquaaonww+cB92cZ3m+ocdXmeeZliMdirm6Krt+5NVUxHfl8IAAAAAETMTviZiY5YkATE4JfC0ryS5hdm+0nMKq8DXMWsvzC7Vy2Znkiiuf9PRPaTstXbV+3Res1010XIiqmqmd8VRPNMKT4mYmJid0xyxPfTF4JXCyuZNdwuzXaPjqrmCrmLWXZhcq5bMzyRbrmf3eie0Cdw/Nuui7RTdt1xXRXHVU1UzviYnmmH6AAAAAAAAAAAAAAAAAAAAAAAAAAAAAAAAAAAAAAAAAAAAAAAAAAAAAAAAAAAAAAAAAAAAAAAAAAAAAAAAAAAAAAAAAAAAAAAAAAAfPj8fg8swd7MMwxNvD4bD0TcuXblW6mimOeZlnG43CZdhL2Px1+ixh8PRNy7crndTRTEcszPQrx4VfCrxm0fGX9D6IxdyxpzD1zRfvUzuqxlUf2dAHCr4VeM2jYy/ofRGLuWNO4euab16irdVjKo/s7yMIAAAAAAAAAAAAAAAAAAAAAAAAAAAAAAAAAAAAAAAAAAAM0zNNUVUzMTHLExzxLACZ3BL4WtWBqwmzXaVmEzh53WsuzC7Vy0dqLdyejolOO3cou0U3LddNVFcdVTVE74mJ7ak+KppmKqZmJjljcmdwSuFpVgasJs02lZhNViqYs5dmF2r9Se1brno6JBOQYpqprpiuiYmmqN8TE88SyAAAAAAAAAAAAAAAAAAAAAAAAAAAAAAAAAAAAAAAAAAAAAAAAAAAAAAAAAAAAAAAAAAAAAAAAAAAAAAAAAAAAAAAAAAAAAAAADUvCqsZ7iNhOp7en4uTifcImuLe/qptRP5+7d3lU3MuvxFizirFzDYm1TctXaZoroqjfFVM88Sr24XHBcv6Bx1/aDojB116fxVya8VYt075wdc9uP5J/2BFkJ5OeNwAAAAAAAAAAAAAAAAAAAAAAAAAAAAAAAAAAAAAAAAAAAAA5MNRfrxFqjCxVN6qumLcUxyzVv5N31uOImqd1O+Znm3QmxwPeCvM+9dqe0PL+Tku5XgbtPP0Xa4n/AGgEs9l9vNrOzrTlrPOq9/05bZi/1XP1XUxz996hiIiIiIjdERuZAAAAAAAAAAAAAAAAAAAAAAAAAAAAAAAAAAAAAAAAAAAAAAAAAAAAAAAAAAAAAAAAAAAAAAAAAAAAAAAAAAAAAAAAAAAAAAAAAfNmWXYHN8BfyzMsLbxGFxNE27tq5TvpqpmOWJh9ICtLhU8GfH7JM5uam01h7l/S+OuTVRNMb5wtU/uVd7olHmF0OotO5RqvJcXp/PcDbxeBxtqbd21cjfEx7VY/CT4O+cbFNSV4jCW7mJ05jq5qweK6n/h7/wD6dXfgGlgAAAAAAAAAAAAAAAAAAAAAAAAAAAAAAAAAAAAAAAAADdvncJJ8E/gx4rafmtrWWrsJXa0zgrkVUUV07pxlcT+rH8vTIPR8EHgtXdWYrD7SdfYGacow9cXMBhLtO6cTXHNVMf6Y/wB0+rVu3Zt0WbVFNFFERTTTTG6IiO048FgsLluEtYDBYeixh8PRFu3bojdTTTHNEQ5wAAAAAAAAAAAAAAAAAAAAAAAAAAAAAAAAAAAAAAAAAAAAAAAAAAAAAAAAAAAAAAAAAAAAAAAAAAAAAAAAAAAAAAAAAAAAAAAAAAAAPrdDrjRWn9oWm8ZpfUuBoxODxluaZiY3zRPaqpntTHS755jaZrLB7P8AQuc6tx1ymmjL8LXXRvndvr3bqY+3cCqTa9obDbN9omc6NweZUY6zl1+aKL1PRzxTPfjtvHPvz7OcZqLOsdnuPuVV4jH3679yqqd8zNU73wAAAAAAAAAAAAAHMPqy3KsyznGW8BlOAv4zE3J6mi1ZtzXVM+CAfL29xydKSWzTgMbUNY0Wsfqe5Z05gq4irdf/ADr8x/0RzfWkzoXgPbGtK0272c4PEZ/iqYiZqxde6jf/ANEcgK3cHluYZjci1l+BxGJrnmi1aqr3/ZD1+T7ENrefRE5Xs/zm7FXNM4aaYn7dy13I9B6L01aps5DpfLMFTRG6PcsNTEx9e7e72mIpjqYpiIjtRAKrsNwSNv2Jp6qNBYm3yb91y5TE/e5auCBt+piZ+BFzkjfyXqVps+A73OCpnM+DVtyyima8Zs5zXqaf3rdEVxP2S8XmmjNW5JVVTm+mczwc08/u2Frpj7lzL5sbleW5jbm1j8vw2JoqjdNN21TXE/bAKVpjdMxMbpjnie0LYdZcGbYtra3X+VNFYOxer/8Ar4SPca4nw0o8bQ+LzpiLuM2b6qnfHLThMfH+0VwCEo9rtA2NbR9mOJqw+r9MYrC24q3U4imnq7VXfiqOR4oAAAAAAAAAAAAAAG1+DRspyra9tOwmm86zGnDYOzROKu2/379NPLNFK07JcmyzT2V4bJsmwdvC4PCW4tWrVundFNMQqF2Wa2xezzX+S6twlyafeOKoqubp3b7czuqie9uW95Lm2Dz7KMHnWAuRXh8bYov26onfExVG8H2gAAAAAAAAAAAAAAAAAAAAAAAAAAAAAAAAAAAAAAAAAAAAAAAAAAAAAAAAAAAAAAAAAAAAAAAAAAAAAAAAAAAAAAAAAAAAAAAAAAAAAIa8YPtM96ZVlWzLL8TuuYyr37jYpn9yP1KZ+vlTDxuMw+X4O/j8Vciizh7dV25VPNFNMb5VIbc9oF/aZtQzvVNy5NVm7iKrWGjfvimzTO6mI+8HggAAAAAAAAAAACmJqmKaYmZnmiO2+zKMnzPP8ysZRk+Bu4vGYquKLVm1TM1VTM9rcnxwb+BllOj7WF1htNw1rH51O65ZwVURVaw09qao/eqBoPYbwN9cbT/cM81LFzIchr3VRXdp3Xr1P8lM80T0ynZsz2G7OdlGX0YTS2QWacRER1eMvUxXernpmqfwe9t27dqim1aopooojdTTEboiO9D9ATy9vkPCAAAAAAABygD480yjK87wdeX5vl+HxmGuRNNVq/biumY8EosbaOAlpjUdF/O9mF+nJ8xmZuTgq534e5PRH+lLNiQU3a20BqzZ3nN3IdXZPfwGJtVTEdXTPU1x001c0w88uD2lbK9GbVcjuZJq7KbWIpqpmLV6KYi7ZndyTTVzwrk2/wDBm1bsUzGvG0UV5jp69XPvfHUU/qR2qbnRPfBpcPxAAAAAAAAAAAFj3AX2m/DDZhOlMdiOrx+nK/cYiqeWbFX6s/VzK4W7eCJtLnZ1tgy+MTe6jL86n3hiYmd0fnT+ZP1SC0YYiYmN8Tvieae8yAAAAAAAAAAAAAAAAAAAAAAAAAAAAAAAAAAAAAAAAAAAAAAAAAAAAAAAAAAAAAAAAAAAAAAAAAAAAAAAAAAAAAAAAAAAAAAAAAAADHfBoPhn7TI0DsjxWW4O/wBRmOoJ95WYid1UW5/Xqj6lZKQnDY2mfDrazeyTBYjq8u07T70t9TP5tVz9+ft5EewAAAAAAAAAAH25Nk2ZagzTDZNlGEuYnGYu5Fqzatxvqqql8dFNddUUUUzVVVyREdtYTwN+DbZ0Tk9raPrDBRVnmYW4qwdm5Tv96Wp5p3f6pgHqODFwYsn2Q5PZ1DqDDWsXqnFURVcuVRvpwsTH6lHRPTKQJy9sAAAAAAAAAAAAAAA7e/e+DPMiyjUmV4jJc8wFnGYLFUTRds3ad9NUS+8BWnwo+C/mOyLMrmp9NWbmK0tirm+JiN9WEqmf1Ku90Sjxv3ro8+yHKtTZRisizvB28VgsZbm1dtXKd8TEx96sDhLbA8x2Kavrpwtu5e0/mNU3MBiJjfFMdu3VPTANNgAAAAAAAAAOTD372Fv28TYrmi5ariuiqOeKonfEuMBbTwd9otrabsoyXUPusV4q3ZjDYyN/LF2iN07/AA7mykBuL92mfknVOY7N8wxG7D5tT75wkVTzXqeeI8MJ8gAAAAAAAAAAAAAAAAAAAAAAAAAAAAAAAAAAAAAAAAAAAAAAAAAAAAAAAAAAAAAAAAAAAAAAAAAAAAAAAAAAAAAAAAAAAAA/N25RZt1XbtcUUURNVVVU7oiI55B+uTpGiNV8NLYbpTNb2UXc4xePu4eubddWCsTcoiqOeN+/leZxHGA7HLfV+98tzu7u/V32Ip3/AO4JOnMijf4w3ZpRP6HSuc3OTppp5eh1uI4xjSER/ltn+Z1Tv/fxFG7d9gJgPEbaNe4bZrs1zzVmIuRTXhsNVRYiZ/WvVRupiPrRkxHGN4OJq967Orkx+71eKj/fc05wheFfm+3LIsHpu3kNOUYHD3vd7tNN6apvVbuSJ8ANE5jj8TmmPxOZYy5Nd/FXar1yqeeaqp3z975wAAAAAAAAAB92RZNjtRZzgsiyyzN3FY69RYtUxG/fVVO4Eg+BjsK/xJ1j8L8/wnVZDkVdNe6uPzb9/wDdp78Rzysgpopt0xbopimmmIppiOaIjmeL2ObOcu2WbPsq0lgLVNNdizTXiq4jluXpjfVVP1vbAAAAAAAAAAAAAAAAAAAPFbXtmGSbWtD4/SWc2qeqvUTVhr27861ej9WqPre1IBTRrbSGb6D1RmGlM8w9VrF5feqtVRMbuqjtVR3pjldGnnw9NjVGbZHY2q5Jhf8AOZdus5jFFPLcsz+rXPglAzvxzAAAAAAAAAAA73Quq8bojV+U6ry+5NF7LcVRe5J56Yn86Ps3rgNKaiwWrdN5bqTLrkV4fMcNRfomJ5OWOWPqlTEkzsS4aeb7J9EYfRWO0xTm9rB11Th71V+aaqaJ/c+oFjQhfh+Mby6ao99bO70U7uXqMTG/f9bssPxi+jKopjE6BzWif3poxFEx9wJfCKdnjDNmVW/3XS+c2+j9Wd7ssPw/9jFyqIv4HO7UTHLMYeKuX7QSa+saY0Bwt9jG0TN7ORZVnd7CY3ET1Nm3jbXuXV1dETv3b25gZAAAAAAAAAAAAAAAAAAAAAAAAAAAAAAAAAAAAAAAAAAAAAAAAAAAAAAAAAAAAAAAAAAAAAAAAAAAAAAAAAAAAAAay4SeZ47KNiOq8bl2Iqs3owVVEV0zumImd07vqbNao4UvYH1Z4p+MAqj6qqqeqqmZmeWZmeeQjmAAAAAAAAAAAAAAAEoeAZs0o1RtExOtcww/V4TT1vfZmY5JxFXN9kcqL08yz7gaaFp0bsUy3E3bMU4vO6qsdemY3Tunkpj7Ab174AAAAAAAAAAAAAAAAAAAAAOu1DkmB1JkeOyDMrNN3C4+xXYuU1RvjdVG5UPtS0PjdnWvc50hjaJpqwGJrptzMfrW5nfRP2LiO2gpxhWz2nB51k20XB2Opox1E4LF1RHPXTy0zP1AhwAAAAAAAAAAAAAAAD6MBib+Dx2HxWFu1W7tq7RXRXTO6aZiY5Vxug8ZiMw0VkeOxdfV3r+X2K66p7dU0RvlTbZ/41v/AK6fvXGbN/8AkDTvk2x6kA9IAAAAAAAAAAAAAAAAAAAAAAAAAAAAAAAAAAAAAAAAAAAAAAAAAAAAAAAADEzujfIMjRe2ThdbN9k2Ku5LRXXnWc2+SrC4WqOptz/PVzR4Gg8Vxi+qKr9VWC0HgLdmZ/NprvVTVu78gnhuNyBPXFtZ9w+WecqOuLaz7h8s85UCe243IE9cW1n3D5Z5yo64trPuHyzzlQJ7bjcgT1xbWfcPlnnKjri2s+4fLPOVAntuNyBPXFtZ9w+WecqOuLaz7h8s85UCe243IE9cW1n3D5Z5yo64trPuHyzzlQJ7bjcgT1xbWfcPlnnKjri2s+4fLPOVAntuNyBPXFtZ9w+WecqOuLaz7h8s85UCe243IE9cW1n3D5Z5yo64trPuHyzzlQJ7bjcgT1xbWfcPlnnKjri2s+4fLPOVAntuNyBPXFtZ9w+WecqOuLaz7h8s85UCe243IE9cW1n3D5Z5yo64trPuHyzzlQJ7bjcgT1xbWfcPlnnKjri2s+4fLPOVAnsINad4wPV+dZ/luT3dF5dRRjcVbw9VUXKt9MVVRG+PtTitV+6WqLm7d1VMT/sD9tUcKXsD6s8U/GG12qOFL2B9WeKfjAKo45gjmAAAAAAAAAAAAAAAdjpzK6871BluUWqd9WNxVqxEdPVVRC5DTeVWsj09luTWKYpowWFtWIiI3fq0xCqvg05LGfbcNJ4GujqqIx1N2rvRTG/etmAAAAAAAAAAAAAAAAAAAAAAAaX4XmjqdYbDs8t02urv5bTTjrPJvmJonl/2bodVqvK7edaZzXKbtPVUYvB3rUx076JBTDHMPtzrBVZbnGOy6v8AWw2JuWp//GqYfEAAAAAAAAAAAAAAD92f+Nb/AOun71xmzf8A5A075NsepCnOz/xrf/XT964zZv8A8gad8m2PUgHpAdZqbNK8j09mWc2rcXK8Fhbl+mmeaZppmd3+wOzNyBdfGKayouV0fAfLPzapj/i1dL89cW1n3D5Z5yoE9txuQJ64trPuHyzzlR1xbWfcPlnnKgT23G5Anri2s+4fLPOVHXFtZ9w+WecqBPbcbkCeuLaz7h8s85UdcW1n3D5Z5yoE9txuQJ64trPuHyzzlR1xbWfcPlnnKgT23G5Anri2s+4fLPOVHXFtZ9w+WecqBPbcbkCeuLaz7h8s85UdcW1n3D5Z5yoE9txuQJ64trPuHyzzlR1xbWfcPlnnKgT23G5Anri2s+4fLPOVHXFtZ9w+WecqBPbcbkCeuLaz7h8s85UdcW1n3D5Z5yoE9txuQJ64trPuHyzzlR1xbWfcPlnnKgT23G5Anri2s+4fLPOVHXFtZ9w+WecqBPbccyBPXFtZ9w+WecqfXlvGMZ/RiaZzfQODuYffuqizfmmqPBvBOsal2N8JfZztmp96ZPjKsDm1NPVV5fipiLnf6mf3vqbaAAAAAAAAAAAAAAAAAAAAAAAAAAAaP4W+2LE7Jtmlycmve55vnVc4TC1xz243fnV/ZzN3ygzxjV+7Ob6Sw3uk+5U2L1UU9rfv5wQ4xeKxOPxFzGYy9XevXqprrrrqmaqqp55mXEAAAAAAAAAAAAAAAAAAAAAAAAAO90F/zvkHlLD+vC5HC/8AxrP9On7lN2gv+d8g8pYf14XI4X/41n+nT9wOVqjhS9gfVnin4w2u1RwpewPqzxT8YBVHHMEcwAAAAAAAAAAAAAADfPAlwdOM2/5P1UR+hw+Iuxv6YpWcq0uArdijb5gaJppma8DiYiZ543Uwsu+oAAAAAAAAAAAAAAAAAAAAAABiqImJieaWTtgqA2z5dGVbVtVYCmjqYtZne5OjfVv/ABeLbO4TNqLW3bWURVFXVZjXVydrfEcjWIAAAAAAAAAAAAAAP3Z/41v/AK6fvXGbN/8AkDTvk2x6kKc7P/Gt/wDXT964zZv/AMgad8m2PUgHpHntof8AyJqDybiPUl6F57aH/wAiag8m4j1JBThf/wCPd/66vvfh+7//AB7v/XV978AAAAAAAAAAAAAAAAAAAAAAAAA7DIM9zbTOb4XPMkxtzC43CXKbtq7bqmJiqJ+5a9sC2n29rezLKtV17oxdVHvfGUx2r1HJVP186pFYFxeGIu17N8+w9ddU27eZ76aZ7W+kEsQAAAAAAAAAAAAAAAAAAAAAAAAAYlBXjGfl7Sfi171k6pQV4xn5e0n4te9YENwAAbK2F7EM326ahxunsnzbDYC7gsN75qrv0zMVRv3buQGtTclz1urXMcnw2yrzdR1uvXPdtlXm6gRG3G5Lnrdeue7bKvN1HW69c922VebqBEbcbkuet1657tsq83Udbr1z3bZV5uoERtxuS563Xrnu2yrzdR1uvXPdtlXm6gRG3G5Lnrdeue7bKvN1HW69c922VebqBEbcbkuet1657tsq83Udbr1z3bZV5uoERtxuS563Xrnu2yrzdR1uvXPdtlXm6gRG3G5Lnrdeue7bKvN1HW69c922VebqBEbcbkuet1657tsq83Udbr1z3bZV5uoERtxuS563Xrnu2yrzdR1uvXPdtlXm6gRG3G5Lnrdeue7bKvN1HW69c922VebqBGTQUf8A775By/8A9Rw/rwuQw3/xrP8ATp+5BvTnF/a2yXUGXZxd1nlddGCxVq/VTFurfVFNUTMR9ic1qnqLVFuf3aYp+yAftqjhS9gfVnin4w2u1RwpewPqzxT8YBVHHMEcwAAAAAAAAAAAAAADdXA7zKnLtv8Apyaqop981XMPHf6qnm/2Wk+BT7sdz34NbUdM5z1XUxh8xszVO/duiat0/euAt3Kbtui7RO+mumKqfBMb4B+gAAAAAAAAAAAAAAAAAAAAADfuHDjMRThcJfxVc7qbNqq5VPRERMgqV4QuMox22vWGKo3bq8zu83e3R+DXjvte5nOc62z3NJr6qMTmF+5E96a53OhAAAAAAAAAAAAAAB+7P/Gt/wDXT964zZv/AMgad8m2PUhTnZ/41v8A66fvXGbN/wDkDTvk2x6kA9I89tC/5E1B5OxHqS9C63UuV3M709mWTWa6aK8dhbtimqrmpmqmYiZ+0FMN+P093/rq+9+NyXdzi7dc13Kq41tlX50zP/Dqfnrdeue7bKvN1AiNuNyXPW69c922VebqOt1657tsq83UCI243Jc9br1z3bZV5uo63Xrnu2yrzdQIjbjclz1uvXPdtlXm6jrdeue7bKvN1AiNuNyXPW69c922VebqOt1657tsq83UCI243Jc9br1z3bZV5uo63Xrnu2yrzdQIjbjclz1uvXPdtlXm6jrdeue7bKvN1AiNuNyXPW69c922VebqOt1657tsq83UCI243Jc9br1z3bZV5uo63Xrnu2yrzdQIjbjclz1uvXPdtlXm6jrdeue7bKvN1AiNuNyXPW69c922VebqOt1657tsq83UCIwlz1urXM//AK2yrzdSPO13ZnmGyLXGL0PmmYWcbiMJRbuVXrUTFM9VG/mkHjAAE/uLu7HuoPKUeogCn9xd3Y91B5Sj1AS0hliGQAAAAAAAAAAAAAAAAAAAAAAAAYlBXjGfl7Sfi171k6pQV4xn5e0n4te9YENwAEruLu7J2f8AkmPXRRSu4u7sn5/5Jj1wWC7/AAm/w/aAG/w/ab/D9oAb/D9pv8P2gBv8P2m/w/aAG/w/ab/D9oAb/D9pv8P2gBv8P2m/w/aAG/w/ab/D9oAb/D9pv8P2gBv8P2m/w/aAG/w/ab/D9oAMMgDVHCl7A+rPFPxhtdqjhS9gfVnin4wCqOOYI5gAAAAAAAAAAAAAAHJYvV4e/bxFud1dqum5TPRMTv8AwW+bG9VWdabMNOajtXIr984C17pO/furpjdVE/Yp/T+4vvaFGbaKzPQOLv77+UX/AHfD0zPL7lXz/VvBLUAAAAAAAAAAAAAAAAAAAAAB4fbbqa3pHZTqbPa7kUTZy+7TRMz+9VHUx9726K3GAa6oyXZzgNG2LvU4jO8TFy5TE8vuVHLy+GQV8XLlV65Vdr/Wrmap8MvyAAAAAAAAAAAAAAAP3Z/41v8A66fvXGbN/wDkDTvk2x6kKc7P/Gt/9dP3rjNm/wDyBp3ybY9SAekYZADf4ftADf4ftN/h+0AN/h+03+H7QA3+H7Tf4ftADf4ftN/h+0AN/h+03+H7QA3+H7Tf4ftADf4ftN/h+0AN/h+03+H7QA3+H7Tf4ftADf4ftN/h+0AN6sThtftCZ34vhvUWdqw+G1+0Jnfi+G9QGiAAE/uLu7HuoPKUeogCn9xd3Y91B5Sj1AS0hliGQAAAAAAAAAAAAAAAAAAAAAAAAYlBXjGfl7Sfi171k6pQV4xn5e0n4te9YENwAEruLu7J+f8AkmPXRRSu4u7sn5/5Jj1wWCgAAAAAAAAAAAAAAAAAAAAAAANZcJXLcbmuxDVeEwFiq9enBVVRRTG+ZiOWWzX4u2rd+1XZvUU10V0zTVTVG+JieeAUn7pjkmN0xycos21XwJtiGqM0vZtGWYzLr2IrmuujCX5ot75591PNDzWI4vrZHcmqbGc51a380e6RO77QV3CwDEcXbs5uTE2NY51a3fyUS6zEcXNpuaZjCa/x9M7+SblimeT6gQSO/wBpN2/xclmeq97bRqqeTk6vC7/uad4QPBPznYZkOC1H8IaM4weJv+4XaqLE0e4zu5N/hBoQAAAAAAAAABtXgz7Ta9lu1jKs5vXZoy/F1xg8bG/km3XO7fPgnlaqImaZiqmd0xzT0Auws37WJs0YixXTXbuUxXRVTzTExviX7R34GO2W3tG2d29NZnioqzrT1FNi5FVX51yz+5X+EpEAAAAAAAAAAAAAAAAAAAAAxVMUxNUzuiI3zM9Crvhe7S6dou1/MPeWI90y7Jv8hht0/m/mz+fVHhlOfhQbWsPsn2YY/G2b8RmuZUVYTA0b/wA7qqo3TV9UKrb967ib1eIvVzXcuVTXXVPPMzO+ZB+AAAAAAAAAAASW2K8CzO9rWiMNrXFaqt5PaxddUWLNeHmuquiJ3dXv74I0ib9ni5MLv/zG0a5PJ+5he39bsMPxc+lo6j33r7MpmP1vc7FEb/BvBBAWBYfi7tm9uJi/q/Ors9PU0R9zscPxfmyC3Vvv5tnV2N27d7rFP3ArzwOHvYrG4fDYe3Vcu3btFFFNMb5qqmY3RC47QeExGA0VkWDxVuaL1nL7FFdM88TFEb4ax2f8EHYzs9zizn+X5RiMbjsNPVWbmMu+6Rbq/wBUU829uvm5AZAAAAAAAAAAAAAAAAAAAAAAAAVh8Nr9oTO/F8N6izxWHw2v2hM78Xw3qA0QAAn9xd3Y91B5Sj1EAU/uLu7HuoPKUeoCWkMsQyAAAAAAAAAAAAAAAAAAAAAAAADEoK8Yz8vaT8WvesnVKCvGM/L2k/Fr3rAhuAAldxd3ZPz/AMkx66KKV3F3dk/P/JMeuCwUAAAAAAAAAAAAAAAAAAAAAAAAAAAAAB4jbToHDbStmmeaUv0RVcxGGqrw87v1b1Mb6Zj63tyOjdv384KVMxwGJyvH4nLcZbm3fwt2qzcpmN0xVTO6XzpB8NXZlOhdrN/OcHY6jLtQ0++7cxG6mLnNXT9vKj4AAAAAAAAAAD3Wxjalm2yLXmA1bl1dc2bdcW8XZieS9Zn9aJ/BbBo/VmT6403gdUZDiqcRgsfapu0VUzv6nfz0z345lMv1JJcEThIXNl2eU6N1TiaqtOZnciKa6quTCXZ/ej+XpBZCOLDYnD43D28VhL1F2zdpiui5RMTFUTzTEw5QAAAAAAAAAAAAAAAY5gZcGOxuEy3B38fjr9FnD4e3Vcu11zupppiN8zMuaeaejtoS8NbhJUXKb2yTRWPiqN/U5tirVXJ/SiY/3BorhQ7ab+2PaFiMRhL0/kTK5qw2X0RPJVETy1+GZackAAAAAAAAAAAd7oXSuN1tq/KdK5fbqrvZliaLP5sb5imZ/On7N64DSencFpLTWW6ay63FGHy7DUYeiIjdH5scs/XO9Bvi/tmX5X1XmO0fMLG/D5TR73wk1U8k3queY8EJ9b94AAAAAAAAAAAAAAAAAAAAAAAAAAAAAACsPhtftCZ34vhvUWeKw+G1+0Jnfi+G9QGiAAE/uLu7HuoPKUeogCn9xd3Y91B5Sj1AS0hliGQAAAAAAAAAAAAAAAAAAAAAAAAYlBXjGfl7Sfi171k6pQV4xn5e0n4te9YENwAEruLu7J+f+SY9dFFK7i7uyfn/AJJj1wWCgAAAAAAAAAAAAAAAAAAAAAAAAAAAAAAA0Dw0Nmfw92R4nNMFh+rzHT9Xv2z1Mcs0fv0/Zyqyvq3LrMdgsPmOCv4DF24rsYm3VauUz26ao3TH+6o/bhs/xOzPadnmlrtqabNnEVXMNMxu6qzVO+nd9wPBgAAAAAAAAAETu5pAEuOCbwsp0jOH2dbRcbVVlFcxRgcdcmZnDTPNRVP+nv8AaT2wuKw2Nw9vF4S/bvWb1MV0XKKommqJ5piY51KPNO+Ej+Dfwuc+2V3bOmNX13sz01NUU0756q7hI6ad/PHeBZIOj0frTTOvclsah0rm1jH4PEU9VFduqJmmeiqO1LvNwAAAAAAAAAAAABMd5xYrF4XA4e5i8biLdmxapmq5cuVRTTTEduZlC/hKcNS3bt4rRGyXF9XcnqrOKzanmjtTTa9oPVcLDhXYPRGCxOgdA4+i9n1+mbeKxNud9OEpnkmIn/V9yvvEYi/i8RcxOKvV3b12qa666p3zVVPLMzJicTiMZiLmLxV6u7eu1TVXcrnqqqpnnmZlxgAAAAAAAAAAOSxYu4q/bw1iia7t2uKKKY55qmd0Q427OCNsznaNtfy731h5uZdk/wDn8Vyck9TP5tM+GQT84O2zq1sy2UZLkE2opxdyzGKxczHLN2uN87/A2WxERTEREbojkhkAAAAAAAAAAAAAAAAAAAAAAAAAAAAAABWHw2v2hM78Xw3qLPFYfDa/aEzvxfDeoDRAACf3F3dj3UHlKPUQBT+4u7se6g8pR6gJaQyxDIAAAAAAAAAAAAAAAAAAAAAAAAMSgrxjPy9pPxa96ydUoK8Yz8vaT8WvesCG4ACV3F3dk/P/ACTHroopXcXd2T8/8kx64LBQAAAAAAAAAAAAAAAAAAAAAAAAAAAAAAAEM+MG2Ze+ssyradl2G33MLPvLG1RH7k/qVT9fImY8vtO0Xg9oOg850jjbcVUY/C10Ub+1c3b6Z+0FOg+/Psmxmns6x2R4+3NvEYG/XYuUzHLvpnc+AAAAAAAAAAAA+oAe12ZbYNdbJs3ozXSOcXbNO+PdcNXM1Wb0dFVPMnbsa4a+gNf27GU6vqo09nFURTPutX+Xu1fy1dr61bpHJPPu6AXXYbE4bGWKMThMRbv2a430XKKoqpqjvTDl7e5Uvs24RO1bZbcop07qW/cwlMx1WDxM+6WZjo3TzfUlNs/4wvTmNi1hNoWmb+AuzuirE4OfdKN/T1M8oJhDXuk9vuyHWlFFWR65y2u5cjfFq9d9yrjvbqnvcPi8Ji6PdMJirN6meXqrdcVR9sA5RjeyAHNzsVVU0xNVdUUxHbmd0AyRy8zzeodo2g9K2ar+oNXZXgqaI3zFzE09V9kTvaQ11w7dkemqbljTkYrUGKpiYp9wo6i1v/6pBJLfHPvav2r8I3Znskwlyc6zq3iswiJ9zwGFriu7NXf3c0eFB7abw09rWvYu4HKsXRp7Lrm+n3LB/wDEmnomvn+xoPFYzFY7EVYvG4m7iL1yd9Vy5XNVUz4ZBufbfwq9f7YL1zL7d+rKMi6qYowWHqmJrj+ernnwczSf3nL2wAAAAAAAAAAAADvQsd4C+zP4IbMatWY7DdRj9R3PdYmY3TFinkp+qedA3ZZonF7Q9fZLpHCW6q5x+KopuTH7tuJ31T9i3rI8owmQZPgskwFuKMPgbFFi3ERuiKaY3A+4AAAAAAAAAAAAAAAAAAAAAAAAAAAAAAABWHw2v2hM78Xw3qLPFYfDa/aEzvxfDeoDRAACf3F3dj3UHlKPUQBT+4u7se6g8pR6gJaQyxDIAAAAAAAAAAAAAAAAAAAAAAAAMSgrxjPy9pPxa96ydUoK8YzyZ9pTxa96wIbgAJXcXd2T8/8AJMeuiildxd3ZOz/yTHrgsFAAAAA74AAAAAAAAAAAAAAAAAAAAAAAAAADota600/oDTuM1RqbHW8NgsHRNVU1Ty1T2qaY7cy+zUGoMo0tk+Kz7PcbbwmCwVubt67cndEUxH3yrJ4S3CJzfbVqOvCYG7cw2m8BcmnB4bf+vu/+pV0zPaB4XbBrnCbSNouc6ywOWUYCxmF+a6LVPRHJ1U9+eeXjQAAAAAAAAAAAAAAAABmiuu3V1dFdVNUfvUzul6HKNouu8g3fkfV2a4XqeaLeKriPs3vOgNrZfwpNvGXURbtbQ8xuUxG6IuzFe77YdvTwyeEBRTFPwxid3bnD0tJANxYzhb7fcZFUTrvEWuq//tUU07vByPJZztq2r6giqM219nN+K/1onE1Rv+x4oBz4rH47HV+6Y3GX79czvmbtyap/3cAAAAAAAAAAAAAAAAAA2zwZdqmTbI9p2E1Hn2XU4jB3qJwty5+9h6aueulabk2c5bqHLMNnOT4y3isHjLcXbN23O+mqmY5FLKS/BM4T2J2ZZpa0Tq/F13dNY25FNuuqd/vOuZ54/l6YBY4OHCYvC4/C2sbgsRRfsXqIuW7lE76aqZ5YmJcwAAAAAAAAAAAAAAAAAAAAAAAAAAAAAACsPhtftCZ34vhvUWeKxOG1H/8AEJnfi+G9QGhwAE/uLu7HuoPKUeogDzJ/cXd2PdQ+UY9QEtIZYZAAAAAAAAAAAAAAAAABrPhDbV7ex/ZpmGprXUzj7n+WwNE9u9VzT9XODG1nhEbNNj1v3LU2be65hVG+jA4bdXenwx2o8KP2P4xvKqMRVTlmzzE3LMc1V3FREz9UcyFWf6gzfVGb4nPc9x93F43F3JuXbtyrfM1S68E3OuO2/o4r9LOuO2/o4r9LQjATc647b+jiv0s647b+jiv0tCMBNzrjlqefZxX6W0RwjuEFTt7zDKcdTp6cr/Jlqu3um71fV9VLTQAAA2xwdduVOwjU+YaiqyOc09/YSML7nFzqOp/O3797U4Cbk8Y7a7Wziv0s647b+jiv0tCMBNzrjtv6OK/Szrjtv6OK/S0IwE3OuO2/o4r9Lc+C4xvLar9MZhs6xFNqZ3TVbxUTMfag4Atd2TcJXZhtfmnB5Bmk4XM+p31YHFfmXf8A8f8AV9TayljKs2zHI8xw+bZTjLuFxeGri5au26ppqpqjmWl8GTbBO2LZphc4x1dP5VwM+9cfEduuI5KvrjlBtwAAAAAAAAAAAAAAAAAAAAAB8+YZjgspwN7MsxxNGHw2Gom7du11dTTTTHPMy5L961hrNeIv3abdu3TNVddU7qaYjlmZlX1wuuFFe1zjb+zvQ2Nrt5Dha5oxeIt1bvfdcdqJ/wBMf7g89wrOEzjtrOdXNLaaxFyxpjL7s0xFM7pxdcfv1d7ohHYAAAAAAAAAAAAAAAAAAAAAAAAAAAAAAAAAAAAAAAAAAADm5QBLngf8KS5pfFYbZnr3HVV5Vfq6jL8Xdq3zh655qKpn937k+KLtu9bpu2q4roriKqaonfFUT24lSdEzExMTMTE74lN3ge8Kf3WMNst2h5h+fG63leOvVc/Raqn7pBNYYiYmN8TyMgAAAAAAAAAAAAAAAAAAAAMTyRvnmhlHXhm7bsZsu0Ra0/p7E+451n/VWqblP61mzzVVR3+1AO+2r8LfZVssxN3Kb+NrzfNbU7q8LgpirqJ6KquaGmL/ABjmE91q97bOL029/JNeLjf/ALIR3sRexN25iMRdqu3btU1V11zMzVM88zLjBNzrjtv6OK/Szrjtv6OK/S0IwE3OuO2/o4r9LOuO2/o4r9LQjATdjjHbXb2cV+lwi/tv2nRtf2hY3XMZXOX+/Lduj3Ca+q6nqY3b97wQAAAkBwdeFNRsI09mGR1aVqzT39iYxHVxe6jqeTduR/ATc645aiOTZxX6Wdcdt/RxX6WhGAm51x239HFfpZ1x239HFfpaEYCbnXHbf0cV+lvvyfjGMgvYqm3nmgcZh7EzG+5ZxEVzTHg7aCh9e4FvWzDbPs/2uZdOO0dnVu9cojfewtz829a8NL3Km/Z/r3UWzfU+D1TprH3MNicLciqYpndTcp38tNUduJhbRsy1zgdpGhso1ll+6KMww9NddEfuV/vU/aD1AAAAAAAAAACG/GM4zEU5BpPBU3JizXir1yqmJ55ink3pkIYcY38l6R/r3/VBBsIAAAAN4AbzeAG83gBvN4AbzeAAAAB4E0+Ljx+InG6wyua59wpt2L8U/wA2/dv+xCxMri4vl7WXitj1wTpAAAAAAAAAAAAAAAAAAAAABqXhU4rPcHsK1Pe09NyMT73imuq3M9VFqZ/P3bu8qm3zPLM7+3yrrMdgcJmeDvZfj8PRfw2Iom3dt1xvprpnkmJV2cKngrY3Zpjr+tNF4W5idNYiua7tqiN9WCqntf8AT3wRmDw/XIAAAAAAAAAAAAAAAAAAAAAAAAAAAAAAAAAAAAAAAAAAAAA5MNcxFrE2ruEqqpvUV01W5ondPVb+Td9bjiJmYppiZmebd20yeCVwS680uYTaVtJwE0YSiYu5dl9yndN2eeLlcdHRAJhbL7+a4nZ1pzEZ5FXv+5ltib/Vc81dTHLPfeofmiim3TFFFMU00xEUxEboiI7T9AAAAAAAAAAAAAAAAAAAAAK6eMBx+Iv7Y8Jl9yuZtYXK7U246OqmZlYsrg4ffZxo8k4f8QRr8IAAAAdrebwA3m8AN5vADebwA3m8AAAABZDwCcZiMRsSmxeuTVRh8yvU24mf1YndO5W90LG+AF2F7/lO7+AJMAAAAAAAAAAIYcY38l6R/r3/AFUz0MOMb+S9I/17/qgg3AQAPZ7J9lOo9sWqfglpe7hbeM9wrxG/E19TR1NPPy9LxiSPAH7Of/a8T90A+nrf22r5/kXpM+xjrf22r5/kXpM+xY0Arl639tq+f5F6TPsOt/bavn+Rekz7FjQCuXrf22r5/kXpM+w639tq+f5F6TPsWNAK5et/bavn+Rekz7Drf22r5/kXpM+xY0Arl639tq+f5F6TPsOt/bavn+Rekz7FjQCubrf22r5/kPpM+xqLa/sZ1VsVzzDZBqy9hLmIxdj3xROGudXT1O/dyrdVfPGG9k7JPJn94IpgAJlcXF8vay8VseuhqmVxcXy9rLxWx64J0gAAAAAAAAAAAAAAAAAAAAAPmzHLsDm2Bv5bmWFt4nC4mibd21cp3010zzxMPpAVzcKngrY3Zpj7+tNF4W5iNN4iuartumN9WDqmeaf5UZeXm3Lqsxy7BZtgr+W5lhbeJwuIom3dtXKeqprpmN0xMK5+FVwXcfsvzO/rDSOErxGmMXcmqqmiJmcFVP7s/wAvRII2hy7+nwAAAAAAAAAAAAAAAAAAAAAAAAAAAAAAAAAAAAAAAAADNMVVTFNMTv37o8LERMzujnnk3JhcEfgo3c8v4baVtFy7qMutzF3L8Bdp3Tfq7VyqP9PR0g5+CXwS6s1rwu0naTl804OmYu5fl92ndN3txXXHR0QnRbt27NumzaopoooiKaaaY3RERzREMWrduzbptWqKaKKIimmmmN0RHREP2AAAAAAAAAAAAAAAAAAAAAAArg4ffZxo8k4f8Vj6uDh99nGjyTh/xBGsABtDY3wetb7b7OYXtI4jAWqctqppve+rvUctUb43NXpxcXJ8nau/rWPukGt+t/bavn+Q/ViZ9jHW/ttXz/IvSZ9ixmGQVy9b+21fP8i9Jn2HW/ttXz/IvSZ9ixoBXL1v7bV8/wAi9Jn2HW/ttXz/ACL0mfYsaAVy9b+21fP8i9Jn2HW/ttXz/IvSZ9ixoBXL1v7bV8/yL0mfYdb+21fP8i9Jn2LGgFc3W/ttXz/IfSZ9jQuvtE5ts61bmOjM8rsVY7LLnuV6bNXVUb92/klcmqn4V/7QOsPHI9WAakAA6FjfAC7C9/ynd/BXJ0LG+AF2F7/lO7+AJMAAAAAAAAAAIYcY38l6R/r3/VTPQw4xv5L0j/Xv+qCDcBAAkjwBuzn/ANqxP3QjckjwBuzn/wBqxP3QCyIAAAAAAAAAGJV88YZ2Tsk8mf3rBpV88YZ2Tsk8mf3gimAAmVxcXy9rLxWx66GqZXFxfL2svFbHrgnSAAAAAAAAAAAAAAAAAAAAAAAA+TNcqy7O8vv5TmuEtYrCYqibd61cpiqmume1ufWArb4U3BazHZXmN3VuksPdxWmMVXNVUUx1VWDqn92f5eiUcPvXUZrlWXZ3l2IynNsJaxWExVE27tq5T1VNdM88blc3Cm4LeYbKsxvau0nh7mJ0xirk1TERvqwdUz+rP8vRII4BvjpAAAAey2WbKtWbWtT2NN6XwVdyaqom/iJpn3OxR26qpB53J9P55qC5ds5HlOKx9dmiblynD2prmmmOeZ3cz4r1m9h7lVnEWa7Vyid1VFdMxMT4JWy7E9hWkti2m6MqyjC28RmF+iPfuOrp3136ujvU95w7SODdsm2nWrlWeaasYfGVb+pxmEj3K7TP1c4KnRLDadwBNaZD7rmOz7NLeeYWnfMYa7ut34jvdqUZtR6S1NpDHV5dqbJMZl2It1dTNN+1NO/wTzT9QOoDk6QAAAAAAAAAAAAAAADeAHJ0vR6P2d6117jaMBpLTmNzG5XO7qrVqeojw1c0A8458HgcbmOIowmAwl7E3rk7qbdqiaqpnwQl/sx4vvOcd7jmO0zPacDaq3VVYLB/nXPBVXzR9SV+z3YZsx2ZYei1pbS2EtXaI5cTdoi5eqnpmqQVLZtk+a5FjK8uznL8RgsVRETVZv25orjf3pfGtI4RHBr05tqyevG4a3awGpMNR/lsbTTu903c1FfTH3K09Z6L1HoHP8TprVGXXcHjcLXNM0107oqj/VTPbiQdGAAAAbpnkjnnk5DnmIjl38iX3BL4Jt3Ud3C7SNo2BmjLKJi7gMDcjd74ntV1x/p6OkDgl8Ey7qK7hto+0fAVW8st1RdwGAuU7pxE9quuP9PRHbTys2bOGs0Yexbpt27dMU0UUxuimmOaIgs2bOHs0YfD26bdu3TFNFFMbopiOaIh+wAAAAAAAAAAAAAAAAAAAAAAAAFcHD77ONHknD/isfVwcPvs40eScP8AiCNYACcXFyfJ2rv61j1ZQdTi4uT5O1d/WserIJoR+DLEfgyAAAAAAAAAqn4V/wC0DrDxyPVhawqn4V/7QOsPHI9WAakAA6FjfAC7C9/ynd/BXJ0LG+AF2F7/AJTu/gCTAAAAAAAAAACGHGN/Jekf69/1Uz0MOMb+S9I/17/qgg3AQAJI8Abs5/8AasT90I3JI8Abs5/9qxP3QCyIAAAAAAAAAGJV88YZ2Tsk8mf3rBpV88YZ2Tsk8mf3gimAAmVxcXy9rLxWx66GqZXFxfL2svFbHrgnSAAAAAAAAAAAAAAAAAAAAAAAAAA+LOcmyzUGWYnJs4wdrFYLF25tXrVynfTVTPefaArS4UPBezPZHmdzU2mbF3FaXxVyaoqiOqnCVT+5V3uiUeY6JXTZzk2WagyzEZNnODt4rB4u3Nu7auU76aqZVwcKDgvZnsjzO5qbTNi7itLYu5vpmImqrCVT+7V3uiQR4Df0tp7CNgWqttuoKMLgLNeFyexXE43H1U/mUU9umnpqB1uxrYrqzbRqW1kuQYaqjC0VROLxtVP6OxR25me3PRCzrZJsh0nse0zZ09prCU+6bonE4qqn9JiK+3NU/g+7Zxs10tst01Y0zpXL6MPYtUx7pc3fn3q+3VVPbl6rk7QAAMd50Wq9C6R1vga8u1Vp7BZjZrjduvWoqmPBPPDvgEQtp3F/aZzX3bH7Ns6uZViJ31U4PEz1dmZ6InnhE7aJwf8AapsxvVxqTS+JnDUTMRi8PTNyzMdO+OZbc4sThcNjbNWGxeHt37VcbqqLlMVUzHgkFKMxMTumOWBZ7tN4HOyLaF7rjMJlk5FmVzfMYjAx1NM1d+jmlBfb/sBznYPnmDy7Mc2sZhh8yoru4W9biYmaaZ3TFUTzSDVXOAAAAAAAAABzA3nwdOC/mm3azis5nPrOW5VgL8WL9XU9VdrqmN+6mObm7YNHUUV3KooopmqqZ3REcsy2vs24MG13aZXau5Zp27gcDc58XjYm1Ru6YieWU+tmnBW2Q7NKbeIwWn6MyzCiI34zHRFyrf0xE8kNvW7du1RTbtW6aKKY3RTTEREQCLezLgFbP9Ne5Y/XWOu6gxtG6qbMfmYeJ8HPP1pJ5FprT+mMFRl2nsnwmX4aiN1NvD2ooj/Z2YDDIANU7euD/pbbdp+rDY21RhM5w9Mzg8fTT+dRV/pq6aW1jkBTptF2cap2X6kxGmdVZfcw+Is1T1Fcx+Zeo7VVM9uJeXW4bZ9imk9s+mrmT59haLeMt0zODxtNMe6WK+1y9HeVi7WNkmrdkGpb2ntT4Kumnqp97YqKZ9zxFHaqpn8AeJ5zn5iOfd0pacE7gnX9X3sNtE2iYGu1k1uqLmCwVyndViao5qqon937wOCdwTb+r7+G2h7RMFXaye1VFzBYK5TunFTHNVVH+n70+8Ph7GEsW8NhrVFqzapii3RRG6KaY5oiDD4exhLFvDYWzRas2qYoooojdTTTHNEQ5AAAAAAAAAAAAAAAAAAAAAAAAAAAFcHD77ONHknD/isfVwcPvs40eScP+II1gAJxcXJ8nau/rWPVlB1OLi5Pk7V39ax6sgmhH4MsR+DIAAAAAAAACqfhX/tA6w8cj1YWsKp+Ff8AtA6w8cj1YBqQADoWN8ALsL3/ACnd/BXJ0LG+AF2F7/lO7+AJMAAAAAAAAAAIYcY38l6R/r3/AFUz0MOMb+S9I/17/qgg3AQAJI8Abs5/9qxP3QjckjwBuzn/ANqxP3QCyIAAAAAAAAAGJV88YZ2Tsk8mf3rBpV88YZ2Tsk8mf3gimAAmVxcXy9rLxWx66GqZXFxfL2svFbHrgnSAAAAAAAAAAAAAAAAAAAAAAAAAAAA+LOcmyzUGWYjJ84wdrFYPFW5t3bVynfTVTL7QEW8w4vzZZi89qzLD55m2FwVVc1zgqJpmmOXmiqeXckPozRWm9AZBh9N6Vyy1gsFhqd0U0Ry1T/qme3Mu9ANwAAAAAAAMcvaQj4xuxvv6RxG6N0UX6Znt88Sm6hjxjWGj8kaSxU0zv98Xre/tfq7wQaAAAAAAAAAAWGcXvYm3sqza9uj9Jmk7t3b3Uq81jnAEw9NrYtdvxTMTezO9Mz2p3boBJbwsgAAAAAADE9PbeQ2m7KtHbWdP16f1dl1N+3PLavU8l2zV/qpq7UvYAIy6P4Bey3TWoLWdZhmmY5xasXIuWsLiOpi3Exyx1W79bwJK4fD2MJYow2Gs0WrNqmKKKKI3U0xHNEQ5QAAAAAAAAAAAAAAAAAAAAAAAAAAAABXBw++zjR5Jw/4rH1cHD77ONHknD/iCNYACcXFyfJ2rv61j1ZQdTi4uT5O1d/WserIJoR+DLEfgyAAAAAAAAAqn4V/7QOsPHI9WFrCqfhX/ALQOsPHI9WAakAA6FjfAC7C9/wAp3fwVydCxvgBdhe/5Tu/gCTAAAAAAAAAACGHGN/Jekf69/wBVM9DDjG/kvSP9e/6oINwEACSPAG7Of/asT90I3JI8Abs5/wDasT90AsiAAAAAAAAABiVfPGGdk7JPJn96waVfPGGdk7JPJn94IpgAJlcXF8vay8VseuhqmVxcXy9rLxWx64J0gAAAAAAAAAAAAAAAAAAAAAAAAAAAAAAAAAAAAAAAIicYtYmvQ+mL8T/wsxucnTvoS7RV4wvD1XNl+T4iKN8WsziJq6N9IK9vCHfAAAAAAAAAOXtLL+AvYmxsEwMzO/3THYmvwb6oVoSs/wCBbh6rGwHJJqo6n3S5erjv76gb0AAAAAAAAAAAAAAAAAAAAAAAAAAAAAAAAAAAAAAAAVwcPvs40eScP+Kx9XBw++zjR5Jw/wCII1gAJxcXJ8nau/rWPVlB1OLi5Pk7V39ax6sgmhH4MsR+DIAAAAAAAACqfhX/ALQOsPHI9WFrCqfhX/tA6w8cj1YBqQADoWN8ALsL3/Kd38FcnQsb4AXYXv8AlO7+AJMAAAAAAAAAAIYcY38l6R/r3/VTPQw4xv5L0j/Xv+qCDcBAAkjwBuzn/wBqxP3QjckjwBuzn/2rE/dALIgAAAAAAAAAYlXzxhnZOyTyZ/esGlXzxhnZOyTyZ/eCKYACZXFxfL2svFbHroaplcXF8vay8VseuCdIAAAAAAAAAAAAAAAAAAAAAAAAAAAAAAAAAAAAAAACNfD4y29jNidOKs2q6/emY2a65jmppnfEzKSjrNR6cyfVuS4vT2f4K3i8Djbc271quN8TE/iCl/m5zfHSsFzPi8tmuLx13EYHVedYOxXVM0WIporiiOiJnlfL1unQPd1nfmrYICcnSd9PueLp0BP/AOus781bRd4Sex3KdiWu7OlMmzXE4+xdwlOIm7iKaYq3zPNyA1MAADfHBb4PWQ7ecTndjPM8xuXRldFuqicNRTV1XVdPVA0PvjpN8dKffW6dA93Wd+atnW6dA93Wd+atggJ4Fq3BPy29lmwTStnEWq7dy5hpuzTVz/nVTMS1zpni/wDZfkmb2MyzPPs1za1Yqiv3teiiiiqYn97qeWYScwOCwmW4SzgMDYos4fD0RbtW6I3U00xHJEQDnAAAAAAAAAAAAAAAAAAAAAAAAAAAAAAAAAAAAAAAAVwcPvs40eScP+Kx9XBw++zjR5Jw/wCII1gAJxcXJ8nau/rWPVlB1OLi5Pk7V39ax6sgmhH4MsR+DIAAAAAAAACqfhX/ALQOsPHI9WFrCqfhX/tA6w8cj1YBqQADoWN8ALsL3/Kd38FcnQsb4AXYXv8AlO7+AJMAAAAAAAAAAIYcY38l6R/r3/VTPQw4xv5L0j/Xv+qCDcBAAkjwBuzn/wBqxP3QjckjwBuzn/2rE/dALIgAAAAAAAAAYlXzxhnZOyTyZ/esGlXzxhnZOyTyZ/eCKYACZXFxfL2svFbHroaplcXF8vay8VseuCdIAAAAAAAAAAAAAAAAAAAAAAAAAAAAAAAAAAAAAAAAAAACubh/dmXC+TLf3rGVc3D+7MuF8mW/vBGUABNDi5PlDV39Ox96F6aHFyfKGrv6dj7wTjAAAAAAAAAAAAAAAAAAAAAAAAAAAAAAAAAAAAAAAAAAAAVwcPvs40eScP8AisfVwcPvs40eScP+II1gAJxcXJ8nau/rWPVlB1OLi5Pk7V39ax6sgmhH4MsR+DIAAAAAAAACqfhX/tA6w8cj1YWsKp+Ff+0DrDxyPVgGpAAOhY3wAuwvf8p3fwVydCxvgBdhe/5Tu/gCTAAAAAAAAAACGHGN/Jekf69/1Uz0MOMb+S9I/wBe/wCqCDcBAAkjwBuzn/2rE/dCNySPAG7Of/asT90AsiAAAAAAAAABiVfPGGdk7JPJn96waVfPGGdk7JPJn94IpgAJlcXF8vay8VseuhqmVxcXy9rLxWx64J0gAAAAAAAAAAAAAAAAAAAAAAAAAAAAAAAAAAAAAAAAAAAK5uH92ZcL5Mt/esZVzcP7sy4XyZb+8EZQAE0OLk+UNXf07H3oXpocXJ8oau/p2PvBOMAAAAAAAAAAAAAAAAAAAAAAAAAAAAAAAAAAAAAAAAAAABXBw++zjR5Jw/4rH1cHD77ONHknD/iCNYACcXFyfJ2rv61j1ZQdTi4uT5O1d/WserIJoR+DLEfgyAAAAAAAAAqn4V/7QOsPHI9WFrCqfhX/ALQOsPHI9WAakAA6FjfAC7C9/wAp3fwVydCxvgBdhe/5Tu/gCTAAAAAAAAAACGHGN/Jekf69/wBVM9DDjG/kvSP9e/6oINwEACSPAG7Of/asT90I3JI8Abs5/wDasT90AsiAAAAAAAAABiVfPGGdk7JPJn96waVfPGGdk7JPJn94IpgAJlcXF8vay8VseuhqmVxcXy9rLxWx64J0gAAAAAAAAAAAAAAAAAAAAAAAAAAAAAAAAAAAAAAAAAAAK5uH92ZcL5Mt/esZVzcP7sy4XyZb+8EZQAE0OLk+UNXf07H3oXpocXJ8oau/p2PvBOMAAAAAAAAAAAAAAAAAAAAAAAAAAAAAAAAAAAAAAAAAAABXBw++zjR5Jw/4rH1cHD77ONHknD/iCNYACcXFyfJ2rv61j1ZQdTi4uT5O1d/WserIJoR+DLEfgyAAAAAAAAAqn4V/7QOsPHI9WFrCqfhX/tA6w8cj1YBqQADoWN8ALsL3/Kd38FcnQsb4AXYXv+U7v4AkwAAAAAAAAAAhhxjfyXpH+vf9VM9DDjG/kvSP9e/6oINwEACSPAG7Of8A2rE/dCNzf/Am1LkGlNsn5U1Jm+Gy7Cfk2/R7tiK+pp6qd26N4LNB4f8Axw2Qz/8AcTJPSYP8cNkX0iZJ6TAPcDw/+OGyL6RMk9Jg/wAcNkX0iZJ6TAPcDw/+OGyL6RMk9Jg/xw2RfSJknpMA9wPD/wCOGyL6RMk9Jg/xw2RfSJknpMA9wPD/AOOGyL6RMk9Jg/xw2RfSJknpMA9vKvnjDOydknkz+9M6duGyL6Q8k9JhBrh06t01q7aJlGN0xneEzOxay7qK7mHudVTTV1XNMgjUAAmVxcXy9rLxWx66GqZXFxfL2svFbHrgnSAAAAAAAAAAAAAAAAAAAAAAAAAAAAAAAAAAAAAAAAAAAArm4f3Zlwvky396xlXNw/uzLhfJlv7wRlAATQ4uT5Q1d/Tsfehemhxcnyhq7+nY+8E4wAAAAAAAAAAAAAAAAAAAAAAAAAAAAAAAAAAAAAAAAAAAFcHD77ONHknD/isfVwcPvs40eScP+II1gAJxcXJ8nau/rWPVlB1MTgE670do7A6oo1TqPA5XViLtmbUYm7FHVxEcu4E7o/Bl4aNuGyL6Q8k5vnMM/wCOGyL6RMk9JgHuB4f/ABw2RfSJknpMH+OGyL6RMk9JgHuB4f8Axw2RfSJknpMH+OGyL6RMk9JgHuB4f/HDZF9ImSekwf44bIvpEyT0mAe4Hh/8cNkX0iZJ6TB/jhsi+kTJPSYB7hVPwr/2gdYeOR6sLIJ24bIY/wDuJknpMK1OEzm+WZ9tw1Vm2TY6zjMHiMVFVq/Zq6qiuOpjmkGrwAOhY3wAuwvf8p3fwVydCxvgBdhe/wCU7v4AkwAAAAAAAAAAhhxjfyXpH+vf9VM9DDjG/kvSP9e96oINwAAcvTuADfPTJvnpADfPSb56QA3z0m+ekAN89JvnpADfPSb56QA3z0kzvAAABMri4vl7WXitj10NUyuLi+XtY+K2PXBOkAAAAAAAAAAAAAAAAAAAAAAAAAAAAAAAAAAAAAAAAAAHyZpmuWZJgruY5vj7GDwtmmaq7t6uKKYjwyD6+3uVzcP7sy4WP/8AWW/vbX23cO/Ksn98af2T2Kcfi4326syux+ionpop/e8KE2q9X6j1vnN7P9UZrex+Ovz+ddu1b90dEdEd4HTgAJocXJ8o6vjt+52fvQveo2fbS9ZbMM6pz3R2cXcFfiY90pid9F2I7VVPbgFxccvJAi7sR4b+kdbe98i2gUW8izerdRTfmr/LXqvD+6k7hsThsZYoxOEv271m5HVUXLdUVU1R2t0wDlAAAAAAAAAAAAAAAAAAAAAAAAAAAAAAAAAAAAAAAAAAVwcPvs40eScP+Kx9XBw++zjR5Kw/4gjWAAbwA3z0m+ekAN89JvnpADfPSb56QA3z0m+ekAN89JvnpADfPTJygAAB0LG+AF2F7/lO7+CuTcsa4AXLsXv+U734AkyAAAAAAAAAAi3w/dEY3UGzTL9TYGxVcnIsXNd6KY3zTbrjdM+CJSkfDneTZbqHKcVkmcYWjE4PG2qrV61XG+KqZjcCloSV278DPW+hs0xOc6Ey+7neQXKproosx1V+xH+mae3EdMI9YjTuoMJdmxi8kx9q5TO6aa8NXEx9sA68fZ+R83/hWM8xV7D8j5v/AArGeYq9gPjH2fkfN/4VjPMVew/I+b/wrGeYq9gPjH2fkfN/4VjPMVew/I+b/wAKxnmKvYD4x9n5Hzf+FYzzFXsPyPm/8KxnmKvYD4x9n5Hzf+FYzzFXsPyPm/8ACsZ5ir2A+MfZ+R83/hWM8xV7D8j5v/CsZ5ir2A+MfZ+R83/hWM8xV7D8j5v/AArGeYq9gPjH2fkfN/4VjPMVex+7Gn8+xV2LOGyXH3blU7opow9czP8AsD4E++L20TjMq0fnes8ZYqt05vfps4bqqd3VW6OeY729ovYhwOtf7Q8yw+Y6sy69kWQUVRVdrxFPU3btP+mmnn5emVjGmdN5RpHIsHpzIsJRh8DgbUWbVuntRAO0AAAAAAAAAAAAAAAAAAAAAAAAAAAAAAAAAAAAAAAAYmYiN8zuiI3zLxe0rbBoLZRldeZavzyzh6t0zbw1MxVeuz0RTHKgntt4aeudoc38l0fNzT+SVb6P0dX+Yu0/zVdrwQCV22nha7O9lFu7luDxVGd55ETTThMNXE026v56o5IQK2tcILaNtgx1dzUObV2cBv32cBh6pos0R34j9afC1tdu3b9yq9fu1V3K531VVTMzMvz4AAAAAAAI3xO+J3Ny7GuFJtH2RX7eEs4+rNMl3xFeAxVc1REfyVTy0tNHJ2wWt7H+Eps42w4W3byrMqMDm279Jl+Jqim5E9vqd/60eBthSngsfjctxVvHZfi7uGxFqqKqLtquaaqZjtxMJV7EeHRqPTHuGQ7TrVzOMup3UU42j/5FqOmr/VALAR5zRG0PR+0XKbedaQzzD5hh64iZiiqOqo71VPPEvR97t9AAAAAAAAAAAAAAAAAAAAAAAAAAAAAAAAAAAAAAACCHGHaJxljUeR68s2aqsLicP7yvVxTyUXKZ30758Cd7y20nZ5p/ahpLGaR1Jh4uYbFUT1FcfrWq+1XHfgFOo3Ttc4KW0/ZjmN6rD5NfznKOqmbGMwlE176O11VMcsS1HXkmdW65ouZRjaao54qw9cTH+wPiH2fkfN/4VjPMVew/I+b/AMKxnmKvYD4x9n5Hzf8AhWM8xV7D8j5v/CsZ5ir2A+MfZ+R83/hWM8xV7D8j5v8AwrGeYq9gPjH2fkfN/wCFYzzFXsPyPm/8KxnmKvYD4x9n5Hzf+FYzzFXsPyPm/wDCsZ5ir2A+MfZ+R83/AIVjPMVew/I+b/wrGeYq9gPjH2fkfN/4VjPMVew/I+b/AMKxnmKvYD4x9n5Hzf8AhWM8xV7H04DSmp80v04TLtPZjibtc7oot4auZmfsB1W6ZndEcs8y0XgeaJxmitiOU2cws1WsTmVdeOroqjdMRXP5v+yOvBy4FmoczzbCau2qYH3hluHqpvWsur/4t+qOWOrj92E9LFizhbFvDYe1TbtWqYooopjdFNMc0QDkAAAAAAAAAAAA7z4r+SZNiq/dcTlODu1zz1V2KZn7n2gOt+Denv4HgPRqPYfBvT38DwHo1HsdkA634N6e/geA9Go9h8G9PfwPAejUex2QDrfg3p7+B4D0aj2Hwb09/A8B6NR7HZAOt+Denv4HgPRqPYfBvT38DwHo1HsdkA634N6e/geA9Go9h8G9PfwPAejUex2QDrfg3p7+B4D0aj2Hwb09/A8B6NR7HZAOt+Denv4HgPRqPYfBvT38DwHo1HsdkA634N6e/geA9Go9jks5FkmHuRdsZPgrdUc00WKYn7dz7gGOaN0bt3gZAAAAAAAAAAAAAAAAAAAAAAAAAAAAAAAAAAAAAAfmuui3TNddUU0xG+Zmd0RDQG2vhibP9mFN/KMiu0Z9ntMTTFmxXvtWqv56o+6AbyzrPsn05l93Nc9zLD4HCWaZquXb9yKaYj60Pdt3Dzw+GjEae2R4aL12JmirNL8fmx0zbp7fhlF3antz2hbXsxqxmqM5uThYq32cFaqmmxbj/pjn+tr8Ha6l1TqHWGaXc51Nm+JzDGXqpqqu3q5qn6uh1QAAAA3Fsa4L20fa9ft4rDYCvK8mmYm5j8VRNNM0/wAkTy1SDUeDwOMzHE28FgMLdxF+7MU0W7VE1VVTPaiIbWzTgrbasp0db1nitJ3Zw1cdXXh6PzsRao/1VUc+5P3Y7wZ9nGx7C27uXZbRmGb9TEXcwxNMVVzP8sc1MNszEVRNNURNM9qYBSfdtXbNyq1et1UV0TuqpqjdMT34flZ7tq4I2zzatbvZnl+GoyPPaomYxWGoiKLk/wA9PNPhQL2s7ANoux/H12tR5Rcu4Hqt1rH2KZqs1x2uXtT4Qa2AAAB6PRG0PWOzrNrec6QzzEYC/RVvmKK56iuOiqnmmE4NiPDn03qj3tp/aZaoyjMqt1FONp/+Pdq7/wDpV+ALrMFjsHmWGt43L8VaxNi7HVW7tquKqao7W6Yc6qTY9wldo+x7E0WsrzKrHZTvj3TL8VVNVuY38vU7+WmfAnvsa4Umzja9Yt4SzjqMqzqaf0mAxVcUzNXb6iZ5KoBuQY3xu37+RkAAAAAAAAAAAAAAAAAAAAAAAAAAAAAAAAAAAAGKoiqJprpiaZ54mOd8Fen8hu1zXcyXA1VTO+ZnD0TP3OwAdb8G9PfwPAejUew+Denv4HgPRqPY7IB1vwb09/A8B6NR7D4N6e/geA9Go9jsgHW/BvT38DwHo1HsPg3p7+B4D0aj2OyAdb8G9PfwPAejUew+Denv4HgPRqPY7IB1vwb09/A8B6NR7D4N6e/geA9Go9jsgHW/BvT38DwHo1HsPg3p7+B4D0aj2OyAdb8G9PfwPAejUew+Denv4HgPRqPY7IB1vwb09/A8B6NR7HPhsoynBVdXhMswlmrpt2aaZ/2h9YAAAAAAAAAAAAAAAAAAAAA6HUeu9HaQuWbWp9R4HLK78TVbjE3YomqI6N7vZQV4xrlz/Sc//wCNe+8EtP8AG3ZJ9IWSelUn+NuyT6Qck9KpVBm8Fvn+NuyT6Qck9Kpdtp3aDonV2KuYLTOp8vzK/ao6uu3h70VzTT0zu7Sm3eldxd/LtOz/AMkx2v5wWCgAAAAAAAAAAAAAAAAAAAAAAAAAAAAAAAAAAAAAAAA6zUWpsg0lll3ONR5rh8vwlmmaqrl+5FMbu90g7N4Daltu2fbIsuqxmq86tU4jd+iwdqqKr9yeiKY5vDKL22/h5Xr3vjT2yLDzbo5aKs1v08s9M26e14ZQ7zzP861NmN3Ns/zPEY/F3pmqu7ermqqZ+sG9dtnDH1/tNqv5Rp67XkGRVTNMWrFf6W9T/PX+EI+V11XKqq7lU11VTvmap3zM99gAAADlfVl2WZjnGMt5dlWCvYvFXaopt2rNE11TPeiAfK9ToHZlrXaZm1GUaPyLEY67VMRXcpp3W7cdNVXNCSmxHgI5znnvfP8Aarfqy3BVbrlOXWp/TXI6K5/dTY0fobSmgspt5LpPJMNl+Ft0xHU2qIiau/VPPII8bEuA7pPRvvfPtolyjPM2piK4w27/AC9mrwfvTHfSgw2Fw2Cw9GFweHt2LNuOpot26YpppjvRDlAAAHx5tlGV57gbuWZxgLGMwt6maa7V6iKqZie9L7AEOdt3APyzM/fOoNk1+nBYmd9yrLLtX6KvvUVfu+BCvVejdTaIzW7kmqcmxOXYu1O6aL1ExE+CeaYXNPI7Q9lWhtqGV15XrDIrGLpmndRe6nddtz001c8Ap674k7tu4EestC++M90JVXn2T0TNc2qY/wAzZp78fvfUjNfw+Iwt6vDYqzXZu256mu3XTNNVM9uJieYHGABybuZy4bE4nBX6MVhL9yzetzFVFy3VNNVM9MTDiASj2I8ODVui5sZFtDprzzKad1FOI3/5izT4f3ohOXZ/tP0TtNyijONHZ5YxtuqN9duKoi7bnoqp54U7u80jrbVOhM2t51pPOsTl2KtzExVarmIq71Uc0wC5ftbxEDYhw7sozr3vp/atYpy/GTuopzG1H6G5Vzfnx+74UtctzTLs5wVvMsqxtnF4a9TFVF2zXFdNUeGAfUAAAAAAAAAAAAAAAAAAAAAAAAAAAAAAAAAAAAAAAA8vne0/Z9pvMK8pz/V+WYDGW4ia7F+/FNdMTzcj1HgVicNr9oTO/F8N6gLBP8bdkn0g5J6VSf427JPpByT0qlUHvN4LfP8AG3ZJ9IWSelUvQad1bprV2HuYvTOd4TMrNqrqK68PciuKauidymNP7i7uTZ7qHylHqglqMQyAAAAAAAAAAAAAAAAAAAAAAAADEoK8Yz8vaT8WvesnVKCvGM/L2k/Fr3rAhuAAldxd3ZPz/wAkx66KKV3F3dk/P/JMeuCwUAAAAAAAAAAAAAAAAAAAAAAAAAAAAAAAAAAAAAB+Ll23Zt1XrtymiimOqqqqndER0zLXO1nb/s62P4Gq7qPN6LuOmP0WAw9UVXq57W+O1HflAvbVwuNom1a7fy3AYmvI8jqmYjCYauYruU/z188+AErttvDR0Ls6pv5LpGu3qDO6d9G61V+gs1fzVdvwQgltM2ya+2sZnXmOrs7u3qN8+54aiqabNuOimmOR4mqqapmqqqZmeee3LAAAAADMRMzuiOWeTc9js42R672qZpTlekMjvYmJmIuYiaZps246aquZOrYlwJ9FaAjD53rb3PP85o3VxRXT/l7NXep/e3dMgilsX4J+0XazdtZhfwdeTZHMxNeMxNE01V0/yUzyynrsj4PGzrY9gqKchyqjE5jNO67mGJpiu9VPen92PA2Zas2cPaps2LVFu3RG6miiN0RHREP2DHhZAAAAAAAAAGJjfG6d27t99pfbPwVtnO12zdx1WDoyjOpieox2Foinqp/np5qobpAVQbX+DjtH2P4u5VnOV14zK9/6LMMNTNVuqntdV/pnwtV7l1ePy/AZphLmAzLB2cThr1M03LV2iKqaontTEoobbuAnkGooxGfbLr1GVY+d9yrAXP8AgXJ6KZ/dkEA9+8eh1poHV2z7NrmS6uyTE5fibczH6SiYpr79NXNMPPAAANm7JOENtH2P42irT+a138vmqPdcBiKpqtVR3on9We/DWQC0LYvws9nW1mzZy/E4ujJc8qiKasHia4imur+SrmlvCJiY6qJ3x0qULN67h7lN6xdrt3KJ3010zuqpnvTCSWxHhq632f1WMk1nNzP8lp3URVXV/mLNPeq/e3dEgseHjNm+17QW1XKqMz0fnlnETNMTcw9VUU3rU9FVPO9mAAAAAAAAAAAAAAAHfAAAAAAAAAAAAAAAAAAAAAFYfDa/aEzvxfDeos8Vh8Nr9oTO/F8N6gNEAAJ/cXd2PdQeUo9RAFP7i7ux7qDylHqAlpDLEMgAAAAAAAAAAAAAAAAAAAAAAAAxKCvGM/L2k/Fr3rJ1SgrxjPy9pPxa96wIbgAJXcXd2T8/8kx66KKV3F3dk/P/ACTHrgsFAAAAAAAAAAAAAAAAAAB4bbXtBtbMNmmdavqmJvYWxNOHpnt3auSn/flB5DblwpNCbF9+WXqpzXPKqd9GBsVR+Z0TXP7sItZpxg+1TFYqu5leRZPhLEz+ZbqtzcmI78yjRn2e5nqbOMXnuc4u5icZjbtV27duVb5mZnf9j4PqBJqeH9tmn/8Aksl9HY+P7tl+ZZL6OjMAkz8f3bL8yyX0c+P7tl+ZZL6OjMAkz8f3bL8yyX0c+P7tl+ZZL6OjMAkz8f3bL8yyX0c+P7tl+ZZL6OjMAkz8f3bL8yyX0c+P7tl+ZZL6OjMAkz8f3bL8yyX0c+P7tl+ZZL6OjMAkz8f3bL8yyX0c+P7tl+ZZL6OjMAkz8f3bL8yyX0d8Ge8OrbZnOWX8tsXstwE36Zom/h8PuuUxPRM8yOoD682zfNM9x13M84x9/GYq/PVXLt6uaqqp8MvkAAAAZppqrmKaKZqqqndERHLMt+bFOB/tC2pXLOa5xYryHIqt1U4jEUbrlyn+SmfvkGkMmyXN9Q4+1lWSZdiMbi79UU0WrNE1VTM96EvtiHAOxmN976g2t4icNZndXTldmfz6uiLlXa8EJR7KNg+zzY/l1OF0xk9ucXMbruOv0xVfuT4e1HehsMHU6X0lpzRmVWsl0xlGGy/CWaYppt2aIp3+Ge27ZkAAAAAAAAAAAAAAAYZAeZ13s40ZtIymvJ9YZHh8fZqiYpqrp/Ponppq54lB3bdwGtT6T98Z9s2u15zllMzXODmP8xap73+pYQxuBSnjMHi8vxNzB4/C3cPftVTTct3KZpqpnvxLhWrbY+DLs42w4au/mGXU5dm+6fc8wwtMU17/AOeP3oQJ2x8F/aRsgxF3E4vL6szyaKp9zx+Fomqnqf5456QafCeTngAOQAdtpnVeo9HZpaznTWb4nL8ZamJpuWa5p37u1PTDfuC4e22rC4W1h71GUYmu3TFM3bmG/Oq787u2jYAkz8f3bL8yyX0c+P7tl+ZZL6OjMAkz8f3bL8yyX0c+P7tl+ZZL6OjMAkz8f3bL8yyX0c+P7tl+ZZL6OjMAkz8f3bL8yyX0c+P7tl+ZZL6OjMAkz8f3bL8yyX0c+P7tl+ZZL6OjMAkz8f3bL8yyX0c+P7tl+ZZL6OjMAkz8f3bL8yyX0c+P7tl+ZZL6OjMAk1HD+2y/Msl9Hd5pfjDNd4TGUzqvTGXY3CTMRX733266Y6Y7U/WiSd8FuuyTbXofbLkv5U0pj/01qI98YO7yXrM9+O3Hfe+VDbF9pucbKdf5bqbLMTXTapvU28XairdTdszO6qJj/dbdlWY4fN8swma4WuKrOMs0X7cx/pqjfAPrAAAAAAAAAAAAAAAAAAVh8Nr9oTO/F8N6izxWHw2v2hM78Xw3qA0QAAn9xd3Y91B5Sj1EAU/uLu7HuoPKUeoCWkMsQyAAAAAAAAAAAAAAAAAAAAAAAADEoK8Yz8vaT8WvesnVKCvGM/L2k/Fr3rAhuAAldxd3ZPz/AMkx66KKV3F3dk/P/JMeuCwUAAAAAAAAAAAAAAAAABGzh8XrlvYjFuiuYpuZnYiqI7e7ekmjTw++wpb8p2fxBXEAAAABvjpADfHSb46QA3x0m+OkAN8dJvjpADfHSb46QA3x0m+OkAN8dJvjpAAAABvfgta12JaR1HF3ajp2q/i6rke9cfd/PsWOjfR+KyzIc5yPPsssZjp7MMNi8FcpibVzD1RVREdqOTmUuNg7K9ue0LZDmNGK0tnNyMLNX6XBXp6uxcjommebwwC3Lp5OXtiP+xThh7P9qFuzlOeXqMhz2qIibF+vdau1fyV9/olv+mqiummuiuKqao3xMTvgGQAAAAAAAAAAAAAAAAAAceIxGHwtivE4q/btWrcdVVXXVFNNMdMzPMDk5d/JzvP621Ro7SuRYjH62zHBYbLuomLlOKmmYuRu5opn9ZoDbdw3dH6Hi/kWgIt57m9O+ib0T/l7M9Mz+9PehBfaFtT1xtQzavNtYZ5fxldVUzRa6rdatR0U0xyRAPS8IDU2yfVGsbuN2Vabu5XhJmr3auqd1u/V/qpo/dauAAAADfHSAG+Ok3x0gBvjpN8dIAb46TfHSAG+Ok3x0gBvjpN8dIAb46TfHSAAAAAt32EYi9itj+k71+vqq6sssxM+CNyoieZbnsB7DWkvJlr7gbAAAAAAAAAAAAAAAAAAAVh8Nr9oTO/F8N6izxWHw2v2hM78Xw3qA0QAAn9xd3Y91B5Sj1EAU/uLu7HuoPKUeoCWkMsQyAAAAAAAAAAAAAAAAAAAAAAAADEoK8Yz8vaT8WvesnVKCvGM/L2k/Fr3rAhuAAldxd3ZPz/yTHroopXcXd2T8/8AJMeuCwUAAAAAAAAAAAAAAAAABGnh99hS35Ts/iksjTw++wpb8p2fxBXEAA9Zsp0LG0raBk2iJx04P8q3/cfd+p6rqOSZ37vqeTbY4KnZ/wBH+O/2yCQccXLa+kWr0Vnrclv6RavRU1oZBCjrclv6RavRTrclv6RavRU1wEKOtyW/pFq9FOtyW/pFq9FTXAQo63Jb+kWr0U63Jb+kWr0VNcBCjrclv6RavRTrclv6RavRU1wEKOtyW/pFq9FOtyW/pFq9FTXAQo63Jb+kWr0V8GdcXTmdjLb17IteWsRjKKZm3avWOpprno3xzJzAKdNe7M9a7NM2ryfWGRYjA3aKpimuqnfbud+mrml5f8VyusdC6T19lNzJdW5JhswwtyN3U3aImae/TPPEoTbbuAlneRRiNQbK79WZYKN9dWXXP+Nbj+Sf3gRDH05jluYZRjbmXZpgr2ExVmeors3aJpqpmOmJfMAADNFdduuLluqaaqZ30zE7piUhNifDI1/syrs5RqG7cz/I6d1E2r1f6a1T00VfhKPR2gW67Ltt+z3a5ltON0pnVqvEbt93B3Zim/bnt76e34Ye+UuZFqDO9M5jazbIMzxGBxdmqKqLtmuaaon6kxNiPDyu2ow2ntrmG90p3xRTmtinljv3KfxgE3x1endTZBqzLLWcabzbDZhg71MVUXbFcVR9fQ7QAAAAAAAAAAAABj8Hn9a6/wBI7PcpuZzq7O8Nl+HoiZj3Sv8AOrnopp55lCHbdw6tQali/kGy+xXlGXzM0VY6v/j3I/l/0glTtf4SOzfY9ha6M4zOjGZrun3LL8NVFV2Z/m/0x4UCds/Co2j7Xb97B146rKclqn8zAYWuYiaf56uepp/H5hjs0xVzHZji72JxF2qaq7t2uaqqpnpmXABO+Z3z94AAAB2t7stPabz7VeZWsm07lWJzDGX6opptWbc1T9fR9aZWxHgGU0e99Q7XcR1U8ldOVWJ5I71yr8IBF7ZhsU2g7W8yowOk8ku3LHVfpcZcpmmxajtzNU8/ghJvB8XNfqwturHbQ6ab80xNyLeG30xPeTLyDTuR6Wy21k+nsrw+AwdmmKaLViiKaYiPvl2QIUdbkt/SLV6Kdbkt/SLV6KmuAhR1uS39ItXop1uS39ItXoqa4CFHW5Lf0i1einW5Lf0i1eiprgIUdbkt/SLV6Kdbkt/SLV6KmuAhR1uS39ItXop1uS39ItXoqa4CFHW5Lf0i1einW5Lf0i1eiprgIQ43i7LWDwWIxf8AiFVV7harubve3P1MTO7/AGQyzDC+8sficF1fV+4Xa7XVbufqZmN657O/kbH+K3fUlTRn/wAvZl43d9eQfAABPMtz2A9hrSXky19yoyeZbnsB7DWkvJlr7gbAAAAAAAAAAAAAAAAAAAVh8Nr9oTO/F8N6izxWHw2v2hM78Xw3qA0QAAn9xd3Y91B5Sj1EAU/uLu7HuoPKUeoCWkMsQyAAAAAAAAAAAAAAAAAAAAAAAADEoK8Yz8vaT8WvesnVKCvGM/L2k/Fr3rAhuAAldxd3ZPz/AMkx66KKV3F3dk/P/JMeuCwUAAAAAAAAAAAAAAAAABGnh99hS35Ts/iksjTw++wpb8p2fxBXEAA2xwVOz/o/x3+2Wp22OCp2f9H+O/2yC1qGWIZAAAAAAAAAAAAAABq/a7wdtnO2HB3Py7ldGFzLdPueYYemKLtM9rfMfrR3pQK20cE/aLslvXsfZwdec5JTMzTjcNRMzRT/AD0xzLRX4vWbOItVWMRaou264mKqK6d8VR0TEgpPmJiZiYmJjniRY3tt4E+idfRiM70TNGQZ1Vvrmiin/L3qu/T+7v6YQV2j7JddbK81ryvWGR3sJuq3W78UzNm5HTTVHIDxwcvNuAD65gAe32Z7ZNfbJszozHSOd3bNvfE3cLXM1WLsdFVKd2xPho6G2ixYybVlVvT+d1RFO65V+gvVfy1drf0SraZpqmmYqpqmJjliYBdfauW71um7arprorjfTVTO+JjvT237VibFeF1tE2VXLOWZhia88yOmYpqwuJrma7dP8lXPHgTy2TbftnW2DAU3tN5vRbxu79LgL9UU3qJ7fJ2478A2SAAAAAAHa3tO7ZOFDs42QWLmFxWPozPON0+54DC1xVVFX88x+rANt4zG4TLsNcxuOxNrD2LNM1V3LtcU00xHbmZRY23cOjTWlffGQ7NLdvOsyp30Tja//j2p73+pFXbFwmNpG1/E3LOY5lXl+UzP6PL8NVNNER2uqn9762pPrB6XXO0bWO0fN7mdavzzEY6/XVvpprq/Mtx0U080Q81/uAAAAd5sbZPsE2ibYMfRY01k9dOC3/pcdfpmmzRHbnfPP9QNd27dy7cptWrdVddU7qaaY3zM+BIrYlwMNd7SKrOc6qouafySrdV1V2j9Pdp/lpnm8MpXbFeCHs82VUWczzKxTnue0xFU4rE0RNFur+SnteFviIpppimimKYjmiI5IB4fZjsY0BslyyjAaSySzau9Tuu4u5TFV67PTNU8v1PcgAAAAAAAAAAAAAAD4s7+Rsf4rd9SVNGf/L2ZeN3fXlcvnfyNj/FbvqSpoz/5ezLxu768g+AACeZbnsB7DWkvJlr7lRk8y3PYD2GtJeTLX3A2AAAAAAAAAAAAAAAAAAArD4bX7Qmd+L4b1FnisPhtftCZ34vhvUBogABP7i7ux7qDylHqIAp/cXd2PdQeUo9QEtIZYhkAAAAAAAAAAAAAAAAAAAAAAAAGJQV4xn5e0n4te9ZOqUFeMZ+XtJ+LXvWBDcABK7i7uyfn/kmPXRRSu4u7sn5/5Jj1wWCgAAAAAAAAAAAAAAAAAI08PvsKW/Kdn8UlkaeH32FLflOz+IK4gAG2OCp2f9H+O/2y1O2xwVOz/o/x3+2QWtQyxDIAAAAAAAAAAAAAAAADp9UaR03rTK7uTaoyfDZjhL1M0zbvURO7vxPadwAgttv4BuNwHvjUOyXETisPG+urK71X6SmOiirt+BELOMlzbT+Pu5VnWXYjBYuzPU3LN+iaaqZ+tdK13tW2D7PNr+X14fU2T26cZ1M+5Y6xTFF+3V0745/BIKkTnb721cEHaFstuXszymxXnuR0zNVOIw9Ezct0/wA9EffDQtVM0TNNdM0zE7piY7YMAAPsynOM1yLHWszyfML+DxVmqKqL1muaaomO/D4wExtiPDwzLK4w+ntrNirG4eN1unM7Mfpae/XT2/CmppXWOmdbZVazrS2cYbMMJdpiYrs1xO7vTHPE+FTK9ds72q652XZrRmuj88vYSqJ312eqmbVyOiqnmkFwpuRi2I8NzRuuqbGR69i3kOcVbqIu1T/lr1Xen92ZSQxed5RgcsqznGZnhrOApo6ucRXdiLfU7t+/quYH2+B5bX20zRWzTKbmcavzzD4K3TTM0UTVE3Lk9FNPPKNe2/h3ZLkfu+QbKbNGZY2N9FWY3Y/Q25/kj95CbWGuNVa9za5nerM6xGYYq7VM77tczFPepjmiASJ23cOLVes4xGQ7OqLmR5VVM0Tid/8AmbtPh/dhF7FYrFY6/XisZiLl+9dnqq7lyqaqqp78y4gAAA5h+7Fi9ir1GHw1mu7duT1NFFFMzNU9ER2wfh3GltIak1rmtrJdMZNicxxd2YiLdmiZ3d+Z7UJA7EuBLrPXk4fO9czcyHJ6t1cW6o/zF6O9T+7HflOrZ3sn0LstyqjKtH5HYwkRTEV3+p33rk9uaq55QRm2I8A7L8u9w1Btav04u/G65Tldmf0dM8+6urt+BLzKMmynIMBayzJcvsYLCWaepos2aIppiPqfYyAAAAAAAAAAAAAAAAAAD4s7+Rsf4rd9SVNGf/L2ZeN3fXlcvnfyNj/FbvqSpoz/AOXsy8bu+vIPgAAnmW57Aew1pLyZa+5UZPMtz2A9hrSXky19wNgAAAAAAAAAAAAAAAAAAKw+G1+0Jnfi+G9RZ4rD4bX7Qmd+L4b1AaIAAT+4u7se6g8pR6iAKf3F3dj3UHlKPUBLSGWIZAAAAAAAAAAAAAAAAAAAAAAAABiUFeMZ+XtJ+LXvWTqlBXjGfl7Sfi171gQ3AASu4u7sn5/5Jj10UUruLu7J+f8AkmPXBYKAAAAAAAAAAAAAAAAAAjTw++wpb8p2fxSWRp4fXYUt+U7P4griA3gNscFTs/6P8d/tlqfe2xwVOz/o7x7+2QWtQyxETDIAAAAAAAAAAAAAAAAAAAAPzct0XaKrd6iK6ao3TFUb4mEd9tnAz0FtIi/nOmKKMgzyvfV1dmn9Bdq/mo7XhhIpgFQ+0/YrtB2SZlVgdW5JdtWeqmLWLt0zVYux0xU8L310Of6cyLVOW3co1FlWGx+EvUzTXav0RVH+/Mhxtv4Bm/3zqDZFiOTluVZTfq/2t1fhIISjsc/07nmlsyu5PqHK8RgMZZq6mu1ftzTMe11wAAHLHLE7pjmegxe0DWuOyC1pfF6nzG7lVmd9GFrv1TRH1PPgAAAAA77RuhdV7QM2tZLpPJcTmGJuTEbrVG+mmOmqeaITc2IcBPI9PTh8/wBql6jNMdTEV05fb/4Fueiqf3vuBFfZDwc9pG2HGW5yTKq8LlfVR7pmOJpmm1THb6n/AFSnrsX4KWznZJatY+rCU5xncRvqx2Kpiepn+Snmpbjy/LcvynCW8vyvBWMLhrNMU0WrVEU00x3oh9AERu5KY3R3mQAAAAAAAAAAAAAAAAAAAAB8Wd/I2P8AFbvqSpoz/wCXsy8bu+vK5fO/kbH+K3fUlTRn/wAvZl43d9eQfAABPMtz2A9hrSXky19yoyeZbnsB7DWkvJlr7gbAAAAAAAAAAAAAAAAAAAVh8Nr9oTO/F8N6izxWHw2v2hM78Xw3qA0QAAn9xd3Y91B5Sj1EAU/uLu7HuoPKUeoCWkMsQyAAAAAAAAAAAAAAAAAAAAAAAADEoK8Yz8vaT8WvesnVKCvGM/L2k/Fr3rAhuAAldxd3ZPz/AMkx66KKV3F3dk/P/JMeuCwUAAAAAAAAAAAAAADdvACOXml0Gq9eaP0Pg6sdqvUWCy21TG/9NdiKp8FPPIO/52peEtsiznbRs+p0lkWPw2ExFOLt4j3S/EzTup7XI1hrzh/7Osjqu4bRuT4zPb1PJF2v9FZ39PLyzDRupuHxthzeuunJMPluUWp3xT7na6uqPrkHbxxeG0vuryb/AMazreW0nutyX/xqahzXhO7dc3qqqxO0TMrfVTvmLNUUR/s6G7tm2q365uXdfZ1VVPPPvqoG/I4vHaVPNqzJZ8FNb2uxngT672cbTMi1rmmo8rv4XK8R7rct2aaurqjdMcm/wotYHb7tly6aZwm0bOqOp5onETMf7vZ5DwztvWSVR7pqejH0RO/qMVZirf8AXzgtB5N/IIOaO4xTMLc0WNc6LtXqd/51/A3Opn/xnkSJ2e8KLY5tG9zsZZqezgsZciP8rjZ9yr39ETPJINtD80V0XKKbluumumqN8VUzviY8L9AAAAAAAAAAAAAAAAAAAAAAA8LtP2LbP9rWWV4HVmS2rl7qf0eMt0xTetz0xUghtt4GWvNm1V/ONMUV6gyOmZq6u1TvvWqf5qY593TCyliqmmumaa6YmJjdMTHJIKT67ddquq1doqorpndVTMbpie+/KzfbVwQNnu1Om/muU2KMizyuJqjEYeiIt3Kv56I5PrhA3atsG2h7IMfXY1Pk9dWD37rWOsUzVZuR2uXtfWDXQdvccoAc7buxzgybR9r+It4jAZfVl2UTMe6ZhiqZpo6nt9RHPVINT4TB4rH4m3g8Fh7l+/dq6mi3bpmqqqeiIjnSk2I8BvVOr/e+fbSLlzJMrq3V04WP/kXY6Jj91KvY5wYtnGx+xbxGCy+nMs4imIuY/FURVVv/AJY5qW3+TtA8xoPZrovZrlNvJ9IZHh8DaopiKrlNMe6XJ7c1Vc8y9OAAAAAAAAAAAAAAAAAA11tr215DsRyHCZ/n2X4rF2cXf9wppsbt8Tu37+Vpbrh2zXuWzj/1BK7cbkUeuHbNu5XOP/U64ds27lc4/wDUErtxuRR64ds27lc4/wDU64ds27lc4/8AUErtxuRR64ds27lc4/8AU64ds27lc4/9QShzqP8A9jY/xW76kqaNQcmfZjv+d3fXlPK9xhGzLEWbli7pPOKqLtM0Vxvp5YmN0w1Df2r8DvE37mJvbH80quXaprrn3bnmZ3yCLm+Ok3x0pP8A+KHA2+h3NPPH+KHA2+h3NPPAi+t02AcuxrSW7+G2vuQr/wAUOBt9DuaeebXyHh5bI9NZPhMiyfRub2MFgrcWbFuJpnqaY5oBL3cbkUeuHbNu5XOP/U64ds27lc4/9QSu3G5FHrh2zbuVzj/1OuHbNu5XOP8A1BK7cbkUeuHbNu5XOP8A1OuHbNu5XOP/AFBK6eTnEUJ4w7Ztz/BXOPtpSU0XqnCa20rluq8BZuWsPmdim/boufrUxPSDuwAAAAAAAAAFYfDa/aEzvxfDeos8Vh8Nr9oTO/F8N6gNEAAJ/cXd2PdQeUo9RAFP7i7ux7qDylHqAlpDLEMgAAAAAAAAAAAAAAAAAAAAAAAAxKCvGM/L2k/Fr3rJ1SgrxjPy9pPxa96wIbgAJXcXd2T8/wDJMeuiildxd3ZPz/yTHrgsFAAAAAAAAAAAAAAdTqbVWntHZTezzUubYfL8FYp6qq7eriPs6Z7zxm2rbro/YpkE5lnmIpv5hepn3ngLdUe6Xqu/Hap6ZVsbXtuWudsedV5hqPMa6MHTVM4fAW6pizap7XJ2574JF7Z+HvjsTcv5HskwkWLMTNE5niKd9dUdNFPa8Mokak1bqXV+YV5pqbOsXmOJuTNU137k1fZE8zqACAAAAAAGaK6qKoroqmmqmd8TE7pj62AG5tk3Ct2p7K7trDW80rzfKaZiKsFja5riKeimrniU7di/Cd2e7Y7FGFwmMpy3Ot36TL8TXEVTPb6if3oVWOfA4/G5XjLWPy7FXMNiLNUVW7tqqaaqZjtxMAusELeDTw0pxlzC6H2sYumm7PU2sLm1XJFU80U3O/30z7V+zibVF+xdpuW7lMVUVUzviqJ5piQfsAAAAAAAAAAAAAAAAAAAAAB8WcZLlOoMBdyrO8usY3CXqZprtXqIqpmPrfaAiFtZ4AmRZ5i72b7Ms3pyi5cmapwOIiarO/8AlmOWlp2zwBttVzGe9rtzKLdmJ/404jfTu6d27esf8MMfUCLux7gL6M0ZiLWc69xdOocfbmKqLHU9Th6Kund+99aTuEweEy/DW8HgcNasWLURTRbt0xTTTEdEQ5gAAAAAAAAAAAAAAAAAAAAEUuMM7GmS+Uv7VfMLBuMM7GmS+Uv7VfMAAAAAAAAAAAAAAAAAAATzLcOD52F9I+Tbao+eZbhwfOwvpHybbBsMAAAAAAAAABWHw2v2hM78Xw3qLPFYfDa/aEzvxfDeoDRAACf3F3dj3UHlKPUQBT+4u7se6g8pR6gJaQyxDIAAAAAAAAAAAAAAAAAAAAAAAAMSgrxjPy9pPxa96ydUoK8Yz8vaT8WvesCG4ACV3F3dk/P/ACTHroopXcXd2T8/8kx64LBQAAAAAAAAAAAGstvO3DT+xLSdzNsfXRfzPEU1UYDBxV+ddubueY/0x25ew1vrLJtA6WzDVmfYim1g8BaquVTM7pqmI5KY78zyKo9su1jPtsOtcXqjOb1UWaqpoweH3/m2LMTyUxH3g6jX2vtS7SdSYrU+qcwuYnF4muaoiqfzbdPappjtRDzgAAAAAAAAAAAAARMxO+J3T0pg8EPhVYjJMVhdmW0LMJry69MW8vxt2rlsVdq3VM/u9HQh8zTVVRVFdFU01UzviY7UguxprpuU010VRVTVETExPJMSyipwLOEPVrfJ6dm2rMZ1ec5Za34O9cq5cTZjtd+qlKvfv7YAAAAAAAAAAAAAAAAAAAAAAAAAAAAAAAAAAAAAAAAAAAAAAIpcYZ2NMl8pf2q+YWDcYZ2NMl8pf2q+YAAAAAAAAAAAAAAAAAAAnmW4cHzsL6R8m21R88y3Dg+dhfSPk22DYYAAAAAAAAACsPhtftCZ34vhvUWeKw+G1+0Jnfi+G9QGiAAE/uLu7HuoPKUeogCn9xd3Y91B5Sj1AS0hliGQAAAAAAAAAAAAAAAAAAAAAAAAYlBXjGfl7Sfi171k6pQV4xn5e0n4te9YENwAEruLu7J+f+SY9dFFK7i7uyfn/kmPXBYKAAAAAAAAAAxzsvFbZNf4bZns3zvV1+uIrwuHqpsUzP612qN1MfaCGvDs213NRalo2YZFjN+X5TVFeOmirku3+1TPep+9Et9ebZnjM6zPFZvj7tVzEYy9Xeu11Tvmaqp3y+QAAAAAAAAAAAAAAAAHc6O1Xm2iNTZfqnJMRVZxeX3qb1FVM7t+6eWme9Mci23ZZtAyzadoXK9Y5ZXTNONs0zdoieW3diPzqZ+tTzyb0wuL/wBqdeX5/mGy/McTPvfMKZxWBiqeSm7H61MeGATxAAAAAAAAAAAAAAAAAAAAAAAAAAAAAAAAAAAAAAAAAAAAABFLjDOxpkvlL+1XzCwbjDOxpkvlL+1XzAAAAAAAAAAAAAAAAAAAE8y3Dg+dhfSPk22qPnmW4cHzsL6R8m2wbDAAAAAAAAAAVh8Nr9oTO/F8N6izxWHw2v2hM78Xw3qA0QAAn9xd3Y91B5Sj1EAU/uLu7HuoPKUeoCWkMsQyAAAAAAAAAAAAAAAAAAAAAAAADEoK8Yz8vaT8WvesnVKCvGM/L2k/Fr3rAhuAAldxd3ZOz/yTHroopG8CLaDo/Z3r7Os01lnljLMLfy2LVu5d37qq+r37gWTDVk8KDYRP/wBxMu+2fYx8aDYT9ImXfbPsBtQar+NBsJ+kTLvtn2HxoNhP0iZd9s+wG1Bqv40Gwn6RMu+2fYfGg2E/SJl32z7AbUGrKeE/sImqKY2iZfNU8kRvn2Nm4PF4fMMJZx2EuxcsYi3Tct1xzVUzG+JBzAAIX8Ydr2qzgsh2eYS9MTfqqx2Kpie1HJRE/emhEqteGBqqvVO3bPZi5M2ctmnA243790URy/7g0tz8vSAAAAAAAAAAAAAAAAAA9Ls21ZitD66yTVGEuVUV4DGW7lUxO7fRv3VR9cb3miZ3dvdvBdRlOZWM4yrB5rhaoqtYyxReomObdVETH3vrai4KWqatWbDNOYy7XNV3C2ZwdyZnl30Tu+5t0AAAeM1nth2b7PcfayzWOqcLlmJvW/daLd7fvqp6Xno4UGwif/uLl32z7AbUGq/jQbCfpEy77Z9h8aDYT9ImXfbPsBtQar+NBsJ+kTLvtn2HxoNhP0iZd9s+wG1Bqv40Gwn6RMu+2fYfGg2E/SJl32z7AbUGq/jQbCfpEy77Z9h8aDYT9ImXfbPsBtQar+NBsJ+kTLvtn2HxoNhP0iZd9s+wG1Bqv40Gwn6RMu+2fYfGg2E/SJl32z7AbUGq/jQbCfpEy77Z9h8aDYT9ImXfbPsBtQar+NBsJ+kTLvtn2HxoNhP0iZd9s+wG1Bqv40Gwn6RMu+2fYfGg2E/SJl32z7AbUGq/jQbCfpEy77Z9h8aDYT9ImXfbPsBtQar+NBsJ+kTLvtn2HxoNhP0iZd9s+wG1Bqv40Gwn6RMu+2fYfGg2E/SJl32z7AbUGq/jQbCfpEy77Z9h8aDYT9ImXfbPsBtQar+NBsJ+kTLvtn2HxoNhP0iZd9s+wG1Bqv40Gwn6RMu+2fYfGg2E/SJl32z7AbUGq/jQbCfpEy77Z9h8aDYT9ImXfbPsBtQar+NBsJ+kTLvtn2HxoNhP0iZd9s+wG1Bqv40Gwn6RMu+2fYfGg2E/SJl32z7AbUHi9F7Ytm20LMLmVaO1VhczxVm37rXbtTO+Kel7QAAEUuMM7GmS+Uv7VfMLBuMM7GmS+Uv7VfMAAAAAAAAAAAAAAAAAAATzLcOD52F9I+Tbao+eZbhwfOwvpHybbBsMAAI59zXWecIXY7pzNsTkeda5wOFx2Drm3fs1zO+ironkBsUar+NBsJ+kTLvtn2HxoNhP0iZd9s+wG1Bqv40Gwn6RMu+2fYfGg2E/SJl32z7AbUGq/jQbCfpEy77Z9h8aDYT9ImXfbPsBtRWJw2v2hM78Xw3qJ0fGh2ERyztEy77Z9iAHCx1Zp7W22rNdQ6XzO1j8vv2LFNu/b/VqmKd0g08AAn9xd3Y91B5Sj1EAU/uLu7HuoPKUeoCWkMsQyAAAAAAAAAAAAAAAAAAAAAAAADEoK8Yz8vaT8WvesnVKCvGM8mf6T8WvesCG4AB2wAAAAAAB92R4b35neX4Tdv8AdsVat7unfXELlsgw0YPI8uwkREe44Szb+yiIU97PrEYnXWn7HVburzLDx/8A9IXIWY3WbcdFMR/sD9gA4sTdpsYe7erndTboqqnwRG9TntFzK5nGvNQZncq6qrEZjfr3/wD5zC4HUNU0ZBmdVM7pjB3pif8A8JU0Z1VNecY6uqd81Ym7M/8AlIPjAAAAAAAAAAAAAAAAAAABYTxeucTi9l2b5VVXM+8czmaYme1XTvmftSqQx4uXEb8q1dhd9X5t6zXu7XNuTOAYnmZAQT4xjLaaNRaVzaKeWvC3bEz07qt6HH1JxcY5Yo/J2jsR+9N+/R9XU70HQAAAAAAAAAAAAAAAAAAAAAAAAAAAAAAAAAAAASo4vTsqZt5Mq9ZYWr14vTsqZv5Lq9ZYT258IMgAilxhnY0yXyl/ar5hYNxhnY0yXyl/ar5gAAAAAAAAAAAAAAAAAACeZbhwfOwvpHybbVHzzLcOD52F9I+TbYNhgARu38qpbhIdm/V/lGtbTHOqW4SHZw1f5QrBrUAAAAAAAAABP7i7ux7qDylHqIAp/cXdy7PdQ7v4lHqAlpDLEMgAAAAAAAAAAAAAAAAAAAAAAAAIk8YNoHG51o/Jtb4CxVcjJb1VnE9TG/qbVfNVP1pbPgz3I8r1JlGLyLOcJbxOCxtqq1etVxviqmYBS3yR3hKLbbwItbaUzLEZvs6w1ed5NXVNdOHon/MWI590x+9EI/YrZ1rzA3qsPi9HZxauUzummrCV8k/YDzw7z4Daz7lM29Er9h8BtZ9ymbeiV+wHRjvPgNrPuUzb0Sv2HwG1n3KZt6JX7AdGO8+A2s+5TNvRK/YfAbWfcpm3olfsB0Y7z4Daz7lM29Er9h8BtZ9ymbeiV+wGND35wus8ixFNXU9RmOHnf0fpKVyeFri7hrVymd8VUUzE/Up1y3R2tMJmWFxUaVzXfZvUVx/lK+1VE9C3zTF6vEabyq/cpqprrwdmqqKo3TE9RG/fAOzAB8Oe26r2SZhap568Jdpj66JU059aqsZ7mNmrnt4q7TP1VyuiuURXRVRO6eqiad3hU/bYMlr09tQ1PlFyiaJsZlf3RPRNUzH3g8eAAAAAAAAAAAAAAAAAABPf5gTs4ubCVU6e1Xjd26mrFWre/vxTvTGRm4AeR15bscxGaXLfUzmeY3LkcnPFEboSaAA+oEKuMcxU+9dH4PfHJcv3N3b5tyEKZnGB4DP891fpvA5Pk2NxdrC4GuuuqzYqriKqquSN8R0In/AbWncpmvolfsB0Y7z4Daz7lM29Er9h8BtZ9ymbeiV+wHRjvPgNrPuUzb0Sv2HwG1n3KZt6JX7AdGO8+A2s+5TNvRK/YfAbWfcpm3olfsB0Y7z4Daz7lM29Er9h8BtZ9ymbeiV+wHRjvPgNrPuUzb0Sv2HwG1n3KZt6JX7AdGO8+A2s+5TNvRK/YfAbWfcpm3olfsB0Y7z4Daz7lM29Er9h8BtZ9ymbeiV+wHRjvPgNrPuUzb0Sv2HwG1n3KZt6JX7AdGO8+A2s+5TNvRK/YfAbWfcpm3olfsB0Y7z4Daz7lM29Er9h8BtZ9ymbeiV+wHRjvPgNrPuUzb0Sv2HwG1n3KZt6JX7AdGO8+A2s+5TNvRK/YfAbWfcpm3olfsB0Y7z4Daz7lM29Er9h8BtZ9ymbeiV+wHRjvPgNrPuUzb0Sv2HwG1n3KZt6JX7AdGO8+A2s+5TNvRK/YfAbWfcpm3olfsB0Y7z4Daz7lM29Er9h8BtZ9ymbeiV+wHRjvPgNrPuUzb0Sv2HwG1n3KZt6JX7AdGO8+A2s+5TNvRK/YfAbWfcpm3olfsBI3i9Oypm/kur1lhPbnwoD8AXTmoMo2nZriM1yXG4O1VltVMV37FVETPVc2+YT56QAARS4wzsaZL5S/tV8wsG4wzsaZL5S/tV8wAAAAAAAAAAAAAAAAAABPMtw4PnYX0j5Ntqj55luHB87C+kfJtsGwwAI51S3CQ7OGr/KFa2mOeFVvCH0fqvGbadWYrCaczK9ZuY+uaLlvDV1U1R0xMQDTw7z4Daz7lM29Er9h8BtZ9ymbeiV+wHRjvPgNrPuUzb0Sv2HwG1n3KZt6JX7AdGO8+A2s+5TNvRK/YfAbWfcpm3olfsB0Y7z4Daz7lM29Er9h8BtZ9ymbeiV+wHRjvPgNrPuUzb0Sv2Pqy7ZltDzbEU4TLdF5xevVzEREYSv8Y5AeZ7fJyrMuBNoHGaL2NYfF5lZqs4rPL9WOmmqOWLcxuo+2GkeD9wIM9xWaYXVO1mxGDwWHqi7ayzfvuXZjliK+iO8nXh8PYweHt4TC2abVmzTFFuimN0U0xG6IiO0DkAAAAAAAAAAAAAAAAAAAAAAAAAAAAcdeHw9yequYe1VPTVREy5AHD7zwfzSz5uD3ng/mlnzcOYBw+88H80s+bg954P5pZ83DmAcPvPB/NLPm4PeeD+aWfNw5gHD7zwfzSz5uD3ng/mlnzcOYBw+88Hze9LPm49jliIjkpjdHajoZAAAFaPDi0hXpzbbiszotdTh87w9GKomI5Jq5qv91l31orcPzZ5Of7PsDrfB4fq8TkV7qb0xHL7jXz/ZIK9fAH17wAAAAAAAAAAAAAAAAB+qKKrtcW6I31VzFMR0zL8ti8H3QV7aNtZyHT1Fma7EYmnEYme1Fqid87/sBZVwfdJfAnY9pjIq7fUXaMFReuxu5err/Onf9rYj8WbVuxZosWqYpt26YooiO1ERuiH7AABx3LFi7PVXbFuuY5uqpid32vz7zwfzSx5uPY5gHD7zwfzSz5uD3ng/mlnzcOYBw+88H80s+bg954P5pZ83DmAcPvPB/NLPm4PeeD+aWfNw5gHD7zwfzSz5uD3ng/mlnzcOYBw+88H80s+bg954P5pZ83DmAcPvPB/NLPm4PeeD+aWfNw5gHD7zwfzSz5uD3ng/mlnzcOYBw+88H80s+bg954P5pZ83DmAcPvPB/NLPm4PeeD+aWfNw5gHD7zwfzSz5uD3ng/mlnzcOYBw+88H80s+bg954P5pZ83DmAcPvPB/NLPm4PeeD+aWfNw5gHD7zwfzSz5uD3ng/mlnzcOYBw+88H80s+bg954P5pZ83DmAcPvPB/NLPm4PeeD+aWfNw5gHD7zwfzSz5uD3ng/mlnzcOYBw+88H80s+bg954P5pZ83DmAcPvPB/NLPm4PeeD+aWfNw5gHHbsWLVXVW7Nuif5aYhyAAACKXGGdjTJfKX9qvmFg3GGdjTJfKX9qvmAAAAAAAAAAAAAAAAAAAJ5luHB87C+kfJttUfPMtw4PnYX0j5Ntg2GAA4qsLha6pqrw1qZnnmaI3y5QHD7zwfzSz5uD3ng/mlnzcOYBw+88H80s+bg954P5pZ83DmAcPvPB/NLPm4PeeD+aWfNw5gHD7zwfzSz5uD3ng/mlnzcOYBw+88H80s+bh+rdixanfbs26J6aaYhyAHhAAAAAAAAAAAAAAAAAAAAAAAAAAAAAAAAAAAAAAAAAAAAdRq7TWA1hpnMtM5nbprw2Y4euxXExv3b45J+qXbsApw2h6MzLZ9rPNdI5paqovZfiKrcTVG7qqN/5tUd6Yec5k+eHTsNuaiye3tT07g+rx2W0RbzGi3Ty3LPar780/cgNPPzbgAAAAAAAAAAAAAAAAO+nvwBNk1WS6dxu07NcN1OIzb9Bgerp5abMT+dV9cok7DdlGabX9oGA0xg7VUYWK4vY69u5LViJ/O39+eZbFkGR5dprJsFkGU4emzg8DZps2qKY3RFMRuB2AAAAAAAAAAAAAAAAAAAAAAAAAAAAAAAAAAAAAAAAAAAAAAIpcYZ2NMl8pf2q+YWDcYZ2NMl8pf2q+YAAAAAAAAAAAAAAAAAAAnmW4cHzsL6R8m21R88y3Dg+dhfSPk22DYYAAAAAAAAAAAAAAAAAAAAAAAAAAAAAAAAAAAAAAAAAAAAAAAAAAAAAAAAAAAOHGYTC4/C3sFjbFN6xfom3coqjfFVMxumJVm8Kvg8Y/ZDqm5neS4W5c0zmdya8PciN8WK55Zt1dHeWcOj1no3INe6dxmmNS4G3isDjKJpqoqjmntVRPamAU0DcPCD4OupNimfXKqbN3GaexNczg8dTTMxEdqivomGngAAAAAAAAAAAAH3ZFkmaakzbC5JkuDuYrG4y5Fqzat075mqZYyfJc01BmWHyfJsDdxeLxNcW7Vm1T1VVdU95Y1wWuC9l+yfLrWrNU2beJ1RiqN/LG+nB0z+7T/N0yD1nBq2FYDYrou3h8RRRcz3MaabuYX93LFW79SO9DcAAAAAAAAAAAAAAAAAAAAAAAAAAAAAAAAAAAAAAAAAAAAAAAAilxhnY0yXyl/ar5hYNxhnY0yXyl/ar5gAAAAAAAAAAAAAAAAAACeZbhwfOwvpHybbVHzzLcOD52F9I+TbYNhgAAAAAAAAAAAAAAAAAAAAAAAAAAAAAAAAAAAAAAAAAAAAAAAAAAAAAAAAAAAAA6vUumMi1fk2IyDUeW2cdgcVTNFy1dp3xMT0dE99ALhBcC7UWhr2I1Ls7s3s2yPfNdeGpjqr+GjwfvUwsRYmIqpmmqImJ54kFJ9y1cs3KrV2iqiuiZpqoqjdMTHPG5+Vn22TgibNtqnuuZ4PDRkWc1b599YSiIprn+ejmlC3abwRtruziu7iYyec5y2iZ6nFYCJr/N6Zp54BpMcmIw+Iwl2bOKsXLNynnouUzTVH1S4wAAA7e4AB6jRuzLXmvsXRg9J6Xx2Pqrnd1dFqYoiOmap5AeXez2ZbItcbWc5oyjSOT3b8dVHuuIqiYs2qe3NVXMlJsj4AFfVWM32sZrEUxur/ACbg6ufvV1+xMPSujtM6Jyq1kulsnw2XYSzERTbs0RTv8M88yDVuwDgw6R2LYGjMLtFGZ6juURF7HV08lH8tuJ5o7/O3WAAAAAAAAAAAAAAAAAAAAAAAAAAAAAAAAAAAAAAAAAAAAAAAAAIpcYZ2NMl8pf2q+YWDcYbO7Znksz/Et3/qr46qnpgGRjqqek6qnpBkY6qnpOqp6QZGOqp6TqqekGRjqqek6qnpBkY6qnpOqp6QZGOqp6TqqekGRjqqek6qnpBkY6qnpOqp6QZGOqp6TqqekGZ5luHB87C+kfJttUdvjdzwtx4PnLsW0jPTltsGwwAAAAAAAAAAAAAAAAAAAAAAAAAAAAAAAAAAAAAAAAAAAAAAAAAAAAAAAAAAAAAAAGJiKommqImJ54mGQHhdabENlmvqK/hLo3L8Rdqj/jUWot3PD1VLSOp+L62Y5nNV3Tue5plNc8tNE1Rdoj7eVKgBBDNeLo1Lbrn8j6+wV6nte7WKqZdHVxee1WKpinU2QzTv5JmqrlWFgK/8Fxd20S5u9/6vye1G/l9ziqrc9lkPFz5VRVTXqTX9+9EbpmnC4eKf95TOAaO0dwN9hukard+dOV5riKOX3THXZucvT1PM3JleS5RkmGpweT5bhsHYojdTbsWooiPsfaAd+QAAAAAAAAAAAAAAAAAAAAAAAAAAAAAAAAAAAAAAAAAAAAAAAAAAAdLqjRml9a4O3gNVZJhczw9qv3Si3iKOqimrpeY+L/sZ+jrJvMQ2CA198X/Yz9HWTeYg+L/sZ+jrJvMQ2CA198X/AGM/R1k3mIPi/wCxn6Osm8xDYIDX3xf9jP0dZN5iD4v+xn6Osm8xDYIDX3xf9jP0dZN5iD4v+xn6Osm8xDYIDX3xf9jP0dZN5iD4v+xn6Osm8xDYIDX3xf8AYz9HWTeYg+L/ALGfo6ybzENggNffF/2M/R1k3mIPi/7Gfo6ybzENggNffF/2M/R1k3mIPi/7Gfo6ybzENggNffF/2M/R1k3mIPi/7Gfo6ybzENggNffF/wBjH0dZN5iHt8syzL8mwFjK8rwtGGwmGoi3ZtURupopjmiH1AAAAAAAAAAAAAAAAAAAAAAAAAAAAAAAAAAAAAAAAAAAAAAAAAAAAAAAAAAAAAAAAAAAAAAAAAAAAAAAAAAAAAAAAAAAAAAAAAAAAAAAAAAAAAAAAAAAAAAAAAAAAAAAAAAAAAAAAAAAAAAAAAAAAAAAAAAAAAAAAAAAAAAAAAAAAAAAAAAAAAAAAAAAAAAAAAAAAAAAAAAAAAAAAAAAAAAAAAAAAAAAAAAAAAAAAAAAAAAAAAAAAAAAAAAAAAAAAAAAAAAAAAAAAAAAAAAAAAAAAAAAAAAAAAAAAAAAAAAAAAAAAAAAAAAAAAAAAAAAAAAAAAAAAAAAAAAAAAAAAAAAAAAAAAAAAAAAAAAAAAAAAAAAAAAAAAAAAAAAAAAAAAAAAAAAAAAAAAAAAAAAAAAAAAAAAAAAAAAAAAAAAAAAAAAAAAAAAAAAAAAAAAAAAAAAAAAAAAAAAAAAAAAAAAAAAAAAAAAAAAAAAAAAAAAAAAAAAAAAAAAAAAAAAAAAAAAAAAAAAAAAAAAAAAAAAAAAAAAAAAAAAAAAAAAAAAAAAAAAAAAAAAAAAAAAAAAAAAAAAAAAAAAAAAAAAAAAAAAAAAAAAAAAAAAAAAAAAAAAAAAAAAAAAAAAAAAAAAAAAAAAAAAAAAAAAAAAAAAAAAAAAAAAAAAAAAAAAAAAAAAAAAAAAAAAAAAAAAAAAAAAAAAAAAAAAAAAAAAAAAAAAAAAAAAAAAAAAAAAAAAAAAAAAAAAAAAAAAAAAAAAAAAAAAAAAAAAAAAAAAAAAAAAAAAAAAAAAAAAAAAAAAAAAAAAAAAAAAAAAAAAAAAAAAAAAAAAAAAAAAAAAAAAAAAAAAAAAAAAAAAAAAAAAAAAAAAAAAAAAAAAAAAAAAAAAAAAAAAAAAAAAAAAAAAAAAAAAAAAAAAAAAAAAAAAAAAAAAAAAAAAAAAAAAAAAAAAAAAAAAAAAAAAAAAAAAAAAAAAAAAAAAAAAAAAAAAAAAAAAAAAAAAAAAAAAAAAAAAAAAAAAAAAAAAAAAAAAAAAAAAAAAAAAAAAAAAAAAAAAAAAAAAAAAAAAAAAAAAAAAAAAAAAAAAAAAAAAAAAAAAAAAAAAAAAAAAAAAAAAAAAAAAAAAAAAAAAAAAAAAAAAAAAAAAAAAAAAAAAAAAAAAAAAAAAAAAAAAAAAAAAAAAAAAAAAAAAAAAAAAAAAAAAAAAAAAAAAAAAAAAAAAAAAAAAAAAAAAAAAAAAAAAAAAAAAAAAAAAAAAAAAAAAAAAAAAAAAAAAAAAAAAAAAAAAAAAAAAAAAAAAAAAAAAAAAAAAAAAAAAAAAAAAAAAAAAAAAAAAAAAAAAAAAAAAAAAAAAAAAAAAP//Z;" vertex="1" parent="vXx897osCVxb41_K1xxa-24">
          <mxGeometry x="15" y="11" width="90" height="90" as="geometry" />
        </mxCell>
        <mxCell id="vXx897osCVxb41_K1xxa-9" value="all-MiniLM-L6-v2&lt;div&gt;Embedding Model&lt;/div&gt;" style="text;html=1;align=center;verticalAlign=middle;resizable=0;points=[];autosize=1;strokeColor=none;fillColor=none;" vertex="1" parent="vXx897osCVxb41_K1xxa-24">
          <mxGeometry y="110" width="120" height="40" as="geometry" />
        </mxCell>
        <mxCell id="vXx897osCVxb41_K1xxa-32" value="" style="edgeStyle=orthogonalEdgeStyle;rounded=0;orthogonalLoop=1;jettySize=auto;html=1;" edge="1" parent="1">
          <mxGeometry relative="1" as="geometry">
            <mxPoint x="299" y="240" as="sourcePoint" />
            <mxPoint x="299" y="279" as="targetPoint" />
          </mxGeometry>
        </mxCell>
        <mxCell id="vXx897osCVxb41_K1xxa-34" value="" style="group" vertex="1" connectable="0" parent="1">
          <mxGeometry x="479" y="280" width="120" height="150" as="geometry" />
        </mxCell>
        <mxCell id="vXx897osCVxb41_K1xxa-35" value="" style="rounded=0;whiteSpace=wrap;html=1;" vertex="1" parent="vXx897osCVxb41_K1xxa-34">
          <mxGeometry y="-1" width="120" height="150" as="geometry" />
        </mxCell>
        <mxCell id="vXx897osCVxb41_K1xxa-36" value="" style="shape=image;verticalLabelPosition=bottom;labelBackgroundColor=default;verticalAlign=top;aspect=fixed;imageAspect=0;image=data:image/jpeg,/9j/4QBMRXhpZgAASUkqAAgAAAABAGmHBAABAAAAHAAAAAAAAAAAAAEABJACABQAAAAwAAAAAAAAAAAAMjAyMC0wOC0wN1QxNTozNzowNAD/4AAQSkZJRgABAQAAAQABAAD/4gHYSUNDX1BST0ZJTEUAAQEAAAHIAAAAAAQwAABtbnRyUkdCIFhZWiAH4AABAAEAAAAAAABhY3NwAAAAAAAAAAAAAAAAAAAAAAAAAAAAAAAAAAAAAQAA9tYAAQAAAADTLQAAAAAAAAAAAAAAAAAAAAAAAAAAAAAAAAAAAAAAAAAAAAAAAAAAAAAAAAAAAAAAAAAAAAlkZXNjAAAA8AAAACRyWFlaAAABFAAAABRnWFlaAAABKAAAABRiWFlaAAABPAAAABR3dHB0AAABUAAAABRyVFJDAAABZAAAAChnVFJDAAABZAAAAChiVFJDAAABZAAAAChjcHJ0AAABjAAAADxtbHVjAAAAAAAAAAEAAAAMZW5VUwAAAAgAAAAcAHMAUgBHAEJYWVogAAAAAAAAb6IAADj1AAADkFhZWiAAAAAAAABimQAAt4UAABjaWFlaIAAAAAAAACSgAAAPhAAAts9YWVogAAAAAAAA9tYAAQAAAADTLXBhcmEAAAAAAAQAAAACZmYAAPKnAAANWQAAE9AAAApbAAAAAAAAAABtbHVjAAAAAAAAAAEAAAAMZW5VUwAAACAAAAAcAEcAbwBvAGcAbABlACAASQBuAGMALgAgADIAMAAxADb/2wBDAAMCAgICAgMCAgIDAwMDBAYEBAQEBAgGBgUGCQgKCgkICQkKDA8MCgsOCwkJDRENDg8QEBEQCgwSExIQEw8QEBD/2wBDAQMDAwQDBAgEBAgQCwkLEBAQEBAQEBAQEBAQEBAQEBAQEBAQEBAQEBAQEBAQEBAQEBAQEBAQEBAQEBAQEBAQEBD/wAARCASXBJcDASIAAhEBAxEB/8QAHQABAAICAwEBAAAAAAAAAAAAAAgJAQcDBQYEAv/EAFsQAQABAgMCBQ0LCgQGAQMBCQABAgMEBQYHEQgJITFREhk3QVZhcXR1k5Sy0RMUFhg1VFeBkbHBFSIjMjhCVWJzwhckUqEzNnKFkqI0Q0eCRiUmKERFU2Rlo//EABQBAQAAAAAAAAAAAAAAAAAAAAD/xAAUEQEAAAAAAAAAAAAAAAAAAAAA/9oADAMBAAIRAxEAPwCysAAAAAAAAAAAAAAAAAAAAAAAAAAAAAAAAAAAAAAAAAAAAAAAAAAAAAAAAAAAAAAAAAAAAAAAAAAAAAAAAAAAAAAAAAAAAAAAAAAAAAAAAAAAAAAAAAAAAAAAAAAAAAAAAAAAAAAAAAAAAAAAAAAAAAAAAAAAAAAAAAAAAAAAAAAAAAAAAAAAAAAAAAAAAAAAAAAAAAAAAAAAAAAAAAAAAAAAAAAAAAAAAAAAAAAAAAAAAAAAAAAAAAAAAAAAAAAAAAAAAAAAAAAAAAAAAAAAAAAAAAAAAAAAAAAAAAAAAAAAAAAAAAAAAAAAAAAAAAAAAAAAAAAAAAAAAAAAAAAAAAAAAAAAAAAAAAAAAAAAAAAAAAAAAAAAAAAAAAAAAAAAAAAAAAAAAAAAAAAAAAAAAAAAAAAAAAAAAAAAAAAAAAAAAAAAAAAAAAAAAAAAAAAAAAAAAAAAAAAAAAAAAAAAAAAAAAAAAAAAAAAAAAAAAAAAAAAAAAAAAAAAAAAAAAAAAAAAAAAAAAAAAAAAAAAAAAAAAAAAAAAAAAAAAAAAAAAAAAAAAAAAAAAAAAAAAAAAAAAAAAAAAAAAAAAAAAAAAAAAAAAAAAAAAAAAAAAAAAAAAAAAAAAAAAAAAAAAAAAAAAAAAAAAAAAAAAAAAAAAAAAAAAAAAAAAAAAAAAAAAAAAAAAAAAAAAAAAAAAAAAAAAAAAAAAAAAAAAAAAAAAAAAAAAAAAAAAAAAAAAAAAAAAAAAAAAAAAAAAAAAAAAAAAAAAAAAAAAAAAAAAAAAAAAAAAAAAAAAAAAAAAAAAAAAAAAAAAAAAAAAAAAAAAAAAAAAAAAAAAAAAAAAAAAAAAAAAAAAAAAAAAAAAAAAAAAAAAAAAAAAAAAAAAAAAAAAAAAAAAAAAAAAAAAAAAAAAAAAAAAAAAAAAAAAAAAAAAAAAAAAAAAAAAAAAAAAAAAAAAAAAAAAAAAAAAAAAAAAAAAAAAAAAAAAAAAAAAAAAAAAAAAAAAAAAAAAAAAAAAAAAAAAAAAAAAAAAAAAAAAAAAAAAAAAAAAAAAAAAAAAAAAAAAAAAAAAAAAAAAAAAAAAAAAAAAAAAAAAAAAAAHW6h1Dk+lcmxWf5/jbeEwGCtzdvXa53RTEA7LnNyK+ZcYRsuwmNu4fA6ezfF2bdUxTeiKaIr78RL5uuIbOe5DOP8AzoBLHcbkTuuIbOe5DOP/ADoOuIbOe5DOP/OgEsdxuRO64hs57kM4/wDOg64hs57kM4/86ASx3G5E7riGznuQzj/zoOuIbOe5DOP/ADoBLHcbkTuuIbOe5DOP/Og64hs57kM4/wDOgEsRGLTXD62U53m1jLcyyrM8rt36oojE3opqopmZ3fnbuaO+kvg8ZhcwwtrHYK/Rew9+iLlq5RO+mumY3xMSDmAAAAAAAAAAAAAAAAAAAAAAAAAAAAAAAAAAAAAAAAAAAAAAAAAAAAAAAAAAAAAAAAAAAAAAAAAAAAAAAAAAAAAAAAAAAAAAAAAAAAAAAAAAAAAAAAAAAAAAAAAAAAAAAAAAAAAARs4e+Z38DsSjC2L1dHvzMbNuuKZ5KqY5ZiUk0VeMKxE0bLsosdVERczOJ3dO6kFe3fAAAAAAAAAA5Y5Vq3BQzO/muwTSl/EXq7tyjDTamqud8/m1TEKqVoHAuxE39gORxNUT7ncvURu7X53MDeYAAAAAAAAAAAAAAAAAAAAAAAAAAAAAAAAAAAAAAAAAAAAAAAAAAAAAAAAAAAAAAAAAAAAAAAAAAAAAAAAAAAAAAAAAAAAAAAAAAAAAAAAAAAAAAAAAAAAAAAAAAAAAAAAAAAAACIvGK4j3PQ2mbHU7/dcxuTv6N1tLpDLjGsTT+SNJYTqp3ziL1e7tfq7gQZDvAAAAAAAAACy/gMX/AHfYLgo6nd7njsTR4d1UcqtBY5wBMTTd2LXbEVTM2czvb46N+6QSXAAAAAAAAAAAAAAAAAAAAAAAAAAAAAAAAAAAAAAAAAAAAAAAAAAAAAAAAAAAAAAAAAAAAAAAAAAAAAAAAAAAAAAAAAAAAAAAAAAAAAAAAAAAAAAAAAAAAAAAAAAfFnWc5Xp7KsTnWdY21hMFhLc3b165O6mmmO2zm+bZbkWW4jNs3xlrCYTC25uXb1yqKaaaYjlnerj4UfCizHaxmN3Sulr1zC6YwtyafzZ3VYyqP3qv5eiASIzDjANlGEzyctw+UZrisFRX1E42iIinwxTPLMJCaO1npzXuQ4fUelsztY3A4mnfTXRP6s9umY7Uwpo7zauwbhA6p2JagoxGCu3MXk1+uIxmAqrnqaqf9VPRUC14eX2c7R9LbUNNYfU+lcfRiMPepj3Sjf8An2a+3TVHal6gAAAAAHHfxFjC2asRir1uzaojfVXXVFNMR35kHIhFxjd+fdtIYbfG6ab9ff59zdm03hf7IdnUXcJazaM8zGjfEYbATFcRV36+aEFeEJt+zbbznuDzHG5RYy3DZZRXawtqiqaqupqnfPVT25BqeAAAAAAAAAAFhnF735ubKc1tTMbrWaTu+ulXm3twcOFDmGwixi8kvZDazPKswvxfvdTVNN2iqI3b6Z5ubtAs9GpNmnCi2RbTaLdrLdRWsBjq4jfg8dMWq9/REzyS21RVTcpiu3VFVNXLFVM74kGQAAAAAHkdpW1LR2yjIK9Q6wzKnD2Y5LVqOW5eq/0009uXWbZttOk9i+mrmd5/iaK8XcpmMHg6av0l+vtREdqO+rF2tbXtW7YdS3tQakxlfufVTGGwtNU+54ejtREfiCcmkuHnsp1HntvJsxy/McntX7kW7WKxG6be+Z5Oq3csJJ4bE4bG4e3i8Jeou2LtMV0XKKt9NVM80xKlCOTtc3fS44JfCvuaVuYXZvtCxs15Tcqi3gcdcnfOGmf3ap/0/cCfY47F+zirNGJw12m5auUxXTXTO+KontxPbcgAAAAAAAAAAAAAAAAAAAAAAAAAAAAAAAAAAAAAAAAAAAAAAAAAAAAAAAAAAAAAAAAAAAAAAAAAAAAAAAAAAAAAAAAAAAAAAAAAAAAAAAAAAD483zfLciy7EZvm2MtYXCYW3Ny7duVdTTTTEcvK/WZZlgMnwF/M8zxVrDYXDUTcvXblURTRTHPMyrm4VfCgxu1PNLuktI4u7Y0xhK5pqmmd04yuP3p/l6IBxcKPhR5ltXzK7pXSuIu4XS+FubvzZ3VYyqP3qv5eiEdAAABsTYvtt1ZsX1LbzjIsTXdwdyqIxeBqqn3O/T4O1PRKzjZNtb0ntg0zZ1DpnG0VVdTEYnCzV+ksXO3TVH4qg3tNlO1nVmyHU9nUemcZVRETEYjD1T+iv0dumqPxBb/z8w1xsW246S20aat5vk2Jos46zTEY3A11fpLFfb8Md9x7RuEVso2Y2q4z/U+Hu4uiJ3YPC1RduzPRujm+sGy3S6n1ppXRmBrzDVGfYPLbFEdVM37sUzPgjnn6kG9p3D+1fnU3sv2dZRbybDTvpjFX/wBJfmOmI5oRk1NrPVWssdXmOqM+xmZX653zVfuzVH1RzQCcW03h/aSyb3bL9nOUXM4xMb6YxWI/MsxPTEc8om7RuERtW2nXa41DqfEW8JVM7sJhqptWqY6N0c7WoDMzM8szMzPLM7+djvgAAAAAAAAAAAAD9UXLlqum5arqorpnfFVM7piW3NmnCm2u7NK7djA6grzHL6JjfhMdM3KN3emeWGoQFiezLh4bOtUzZwGtsLd09ja91M3J/Pw8z4eeEkMl1BkepMFRmGQZthcfh64iqLli7Fcbp8Clx6bRm0vXWz/G0Y7SWpcbl9dE7+ot3Z6irvTTPIC40QY2Y8YNmeF9xy7adp+nFW+Smcdgvza4780c0/UldoDbXs02l4ei7pTVWExF2qImcNXXFF6meiaZB7lqzbvt+0rsS0/Xisfet4rOMRTMYLL6avz7lXTPRS6vhDcJHTexPJasPauWsdqLE0T71wVNW/qP56+iFaOttb6k2hahxWptUZjcxeMxNUzM1T+bTHappjtRAPs2kbS9U7U9S4jU2qcwrxF67VM2re+eos0dqmmO1DyoAETMTExO7cAJc8E3hZXtMXcLs52i46q5lVyYt4HHXZ3zhpnmoqn/AE/cntYxFnFWaMTh7tN23dpiuiumd8VRPbie2pQiZid8TzJf8EbhWV6evYfZttFzGassuTFvL8bdnfNiqeaiqZ/d6OgE9B+LV23ft0X7Nym5RciKqaqZ3xVE80xPbfsAAAAAAAAAAAAAAAAAAAAAAAAAAAAAAAAAAAAAAAAAAAAAAAAAAAAAAAAAAAAAAAAAAAAAAAAAAAAAAAAAAAAAAAAAAAAAAAAAAAAAAB82ZZlgMnwF/NMzxVvDYXDUTcu3blXU00UxzzMs5hj8FleCvZjmGJt4fDYeiq5du3Kt1NNMRyzvV1cKjhT47afj72jdG4m5htNYauabldM7qsbVHbn+XogGOFRwqMftQx97R2jcVdw2mcNXNNyumd1WNqjtz/L0QjUAAAAAB9QA7LJNSZ/pu7dv5DnGLy+5ftzauVYe7NE1Uz2p3Phv4i/irtV/E3q7t2ud9VddU1VTPfmXGAAAAAAAAAAAAAAAAAAAAAAAPowOY4/K8TRjMtxl/C37c76blquaaonww+cB92cZ3m+ocdXmeeZliMdirm6Krt+5NVUxHfl8IAAAAAETMTviZiY5YkATE4JfC0ryS5hdm+0nMKq8DXMWsvzC7Vy2Znkiiuf9PRPaTstXbV+3Res1010XIiqmqmd8VRPNMKT4mYmJid0xyxPfTF4JXCyuZNdwuzXaPjqrmCrmLWXZhcq5bMzyRbrmf3eie0Cdw/Nuui7RTdt1xXRXHVU1UzviYnmmH6AAAAAAAAAAAAAAAAAAAAAAAAAAAAAAAAAAAAAAAAAAAAAAAAAAAAAAAAAAAAAAAAAAAAAAAAAAAAAAAAAAAAAAAAAAAAAAAAAAAfPj8fg8swd7MMwxNvD4bD0TcuXblW6mimOeZlnG43CZdhL2Px1+ixh8PRNy7crndTRTEcszPQrx4VfCrxm0fGX9D6IxdyxpzD1zRfvUzuqxlUf2dAHCr4VeM2jYy/ofRGLuWNO4euab16irdVjKo/s7yMIAAAAAAAAAAAAAAAAAAAAAAAAAAAAAAAAAAAAAAAAAAAM0zNNUVUzMTHLExzxLACZ3BL4WtWBqwmzXaVmEzh53WsuzC7Vy0dqLdyejolOO3cou0U3LddNVFcdVTVE74mJ7ak+KppmKqZmJjljcmdwSuFpVgasJs02lZhNViqYs5dmF2r9Se1brno6JBOQYpqprpiuiYmmqN8TE88SyAAAAAAAAAAAAAAAAAAAAAAAAAAAAAAAAAAAAAAAAAAAAAAAAAAAAAAAAAAAAAAAAAAAAAAAAAAAAAAAAAAAAAAAAAAAAAAAADUvCqsZ7iNhOp7en4uTifcImuLe/qptRP5+7d3lU3MuvxFizirFzDYm1TctXaZoroqjfFVM88Sr24XHBcv6Bx1/aDojB116fxVya8VYt075wdc9uP5J/2BFkJ5OeNwAAAAAAAAAAAAAAAAAAAAAAAAAAAAAAAAAAAAAAAAAAAAA5MNRfrxFqjCxVN6qumLcUxyzVv5N31uOImqd1O+Znm3QmxwPeCvM+9dqe0PL+Tku5XgbtPP0Xa4n/AGgEs9l9vNrOzrTlrPOq9/05bZi/1XP1XUxz996hiIiIiIjdERuZAAAAAAAAAAAAAAAAAAAAAAAAAAAAAAAAAAAAAAAAAAAAAAAAAAAAAAAAAAAAAAAAAAAAAAAAAAAAAAAAAAAAAAAAAAAAAAAAAfNmWXYHN8BfyzMsLbxGFxNE27tq5TvpqpmOWJh9ICtLhU8GfH7JM5uam01h7l/S+OuTVRNMb5wtU/uVd7olHmF0OotO5RqvJcXp/PcDbxeBxtqbd21cjfEx7VY/CT4O+cbFNSV4jCW7mJ05jq5qweK6n/h7/wD6dXfgGlgAAAAAAAAAAAAAAAAAAAAAAAAAAAAAAAAAAAAAAAAADdvncJJ8E/gx4rafmtrWWrsJXa0zgrkVUUV07pxlcT+rH8vTIPR8EHgtXdWYrD7SdfYGacow9cXMBhLtO6cTXHNVMf6Y/wB0+rVu3Zt0WbVFNFFERTTTTG6IiO048FgsLluEtYDBYeixh8PRFu3bojdTTTHNEQ5wAAAAAAAAAAAAAAAAAAAAAAAAAAAAAAAAAAAAAAAAAAAAAAAAAAAAAAAAAAAAAAAAAAAAAAAAAAAAAAAAAAAAAAAAAAAAAAAAAAAAPrdDrjRWn9oWm8ZpfUuBoxODxluaZiY3zRPaqpntTHS755jaZrLB7P8AQuc6tx1ymmjL8LXXRvndvr3bqY+3cCqTa9obDbN9omc6NweZUY6zl1+aKL1PRzxTPfjtvHPvz7OcZqLOsdnuPuVV4jH3679yqqd8zNU73wAAAAAAAAAAAAAHMPqy3KsyznGW8BlOAv4zE3J6mi1ZtzXVM+CAfL29xydKSWzTgMbUNY0Wsfqe5Z05gq4irdf/ADr8x/0RzfWkzoXgPbGtK0272c4PEZ/iqYiZqxde6jf/ANEcgK3cHluYZjci1l+BxGJrnmi1aqr3/ZD1+T7ENrefRE5Xs/zm7FXNM4aaYn7dy13I9B6L01aps5DpfLMFTRG6PcsNTEx9e7e72mIpjqYpiIjtRAKrsNwSNv2Jp6qNBYm3yb91y5TE/e5auCBt+piZ+BFzkjfyXqVps+A73OCpnM+DVtyyima8Zs5zXqaf3rdEVxP2S8XmmjNW5JVVTm+mczwc08/u2Frpj7lzL5sbleW5jbm1j8vw2JoqjdNN21TXE/bAKVpjdMxMbpjnie0LYdZcGbYtra3X+VNFYOxer/8Ar4SPca4nw0o8bQ+LzpiLuM2b6qnfHLThMfH+0VwCEo9rtA2NbR9mOJqw+r9MYrC24q3U4imnq7VXfiqOR4oAAAAAAAAAAAAAAG1+DRspyra9tOwmm86zGnDYOzROKu2/379NPLNFK07JcmyzT2V4bJsmwdvC4PCW4tWrVundFNMQqF2Wa2xezzX+S6twlyafeOKoqubp3b7czuqie9uW95Lm2Dz7KMHnWAuRXh8bYov26onfExVG8H2gAAAAAAAAAAAAAAAAAAAAAAAAAAAAAAAAAAAAAAAAAAAAAAAAAAAAAAAAAAAAAAAAAAAAAAAAAAAAAAAAAAAAAAAAAAAAAAAAAAAAAIa8YPtM96ZVlWzLL8TuuYyr37jYpn9yP1KZ+vlTDxuMw+X4O/j8Vciizh7dV25VPNFNMb5VIbc9oF/aZtQzvVNy5NVm7iKrWGjfvimzTO6mI+8HggAAAAAAAAAAACmJqmKaYmZnmiO2+zKMnzPP8ysZRk+Bu4vGYquKLVm1TM1VTM9rcnxwb+BllOj7WF1htNw1rH51O65ZwVURVaw09qao/eqBoPYbwN9cbT/cM81LFzIchr3VRXdp3Xr1P8lM80T0ynZsz2G7OdlGX0YTS2QWacRER1eMvUxXernpmqfwe9t27dqim1aopooojdTTEboiO9D9ATy9vkPCAAAAAAABygD480yjK87wdeX5vl+HxmGuRNNVq/biumY8EosbaOAlpjUdF/O9mF+nJ8xmZuTgq534e5PRH+lLNiQU3a20BqzZ3nN3IdXZPfwGJtVTEdXTPU1x001c0w88uD2lbK9GbVcjuZJq7KbWIpqpmLV6KYi7ZndyTTVzwrk2/wDBm1bsUzGvG0UV5jp69XPvfHUU/qR2qbnRPfBpcPxAAAAAAAAAAAFj3AX2m/DDZhOlMdiOrx+nK/cYiqeWbFX6s/VzK4W7eCJtLnZ1tgy+MTe6jL86n3hiYmd0fnT+ZP1SC0YYiYmN8Tvieae8yAAAAAAAAAAAAAAAAAAAAAAAAAAAAAAAAAAAAAAAAAAAAAAAAAAAAAAAAAAAAAAAAAAAAAAAAAAAAAAAAAAAAAAAAAAAAAAAAAAADHfBoPhn7TI0DsjxWW4O/wBRmOoJ95WYid1UW5/Xqj6lZKQnDY2mfDrazeyTBYjq8u07T70t9TP5tVz9+ft5EewAAAAAAAAAAH25Nk2ZagzTDZNlGEuYnGYu5Fqzatxvqqql8dFNddUUUUzVVVyREdtYTwN+DbZ0Tk9raPrDBRVnmYW4qwdm5Tv96Wp5p3f6pgHqODFwYsn2Q5PZ1DqDDWsXqnFURVcuVRvpwsTH6lHRPTKQJy9sAAAAAAAAAAAAAAA7e/e+DPMiyjUmV4jJc8wFnGYLFUTRds3ad9NUS+8BWnwo+C/mOyLMrmp9NWbmK0tirm+JiN9WEqmf1Ku90Sjxv3ro8+yHKtTZRisizvB28VgsZbm1dtXKd8TEx96sDhLbA8x2Kavrpwtu5e0/mNU3MBiJjfFMdu3VPTANNgAAAAAAAAAOTD372Fv28TYrmi5ariuiqOeKonfEuMBbTwd9otrabsoyXUPusV4q3ZjDYyN/LF2iN07/AA7mykBuL92mfknVOY7N8wxG7D5tT75wkVTzXqeeI8MJ8gAAAAAAAAAAAAAAAAAAAAAAAAAAAAAAAAAAAAAAAAAAAAAAAAAAAAAAAAAAAAAAAAAAAAAAAAAAAAAAAAAAAAAAAAAAAAA/N25RZt1XbtcUUURNVVVU7oiI55B+uTpGiNV8NLYbpTNb2UXc4xePu4eubddWCsTcoiqOeN+/leZxHGA7HLfV+98tzu7u/V32Ip3/AO4JOnMijf4w3ZpRP6HSuc3OTppp5eh1uI4xjSER/ltn+Z1Tv/fxFG7d9gJgPEbaNe4bZrs1zzVmIuRTXhsNVRYiZ/WvVRupiPrRkxHGN4OJq967Orkx+71eKj/fc05wheFfm+3LIsHpu3kNOUYHD3vd7tNN6apvVbuSJ8ANE5jj8TmmPxOZYy5Nd/FXar1yqeeaqp3z975wAAAAAAAAAB92RZNjtRZzgsiyyzN3FY69RYtUxG/fVVO4Eg+BjsK/xJ1j8L8/wnVZDkVdNe6uPzb9/wDdp78Rzysgpopt0xbopimmmIppiOaIjmeL2ObOcu2WbPsq0lgLVNNdizTXiq4jluXpjfVVP1vbAAAAAAAAAAAAAAAAAAAPFbXtmGSbWtD4/SWc2qeqvUTVhr27861ej9WqPre1IBTRrbSGb6D1RmGlM8w9VrF5feqtVRMbuqjtVR3pjldGnnw9NjVGbZHY2q5Jhf8AOZdus5jFFPLcsz+rXPglAzvxzAAAAAAAAAAA73Quq8bojV+U6ry+5NF7LcVRe5J56Yn86Ps3rgNKaiwWrdN5bqTLrkV4fMcNRfomJ5OWOWPqlTEkzsS4aeb7J9EYfRWO0xTm9rB11Th71V+aaqaJ/c+oFjQhfh+Mby6ao99bO70U7uXqMTG/f9bssPxi+jKopjE6BzWif3poxFEx9wJfCKdnjDNmVW/3XS+c2+j9Wd7ssPw/9jFyqIv4HO7UTHLMYeKuX7QSa+saY0Bwt9jG0TN7ORZVnd7CY3ET1Nm3jbXuXV1dETv3b25gZAAAAAAAAAAAAAAAAAAAAAAAAAAAAAAAAAAAAAAAAAAAAAAAAAAAAAAAAAAAAAAAAAAAAAAAAAAAAAAAAAAAAAAay4SeZ47KNiOq8bl2Iqs3owVVEV0zumImd07vqbNao4UvYH1Z4p+MAqj6qqqeqqmZmeWZmeeQjmAAAAAAAAAAAAAAAEoeAZs0o1RtExOtcww/V4TT1vfZmY5JxFXN9kcqL08yz7gaaFp0bsUy3E3bMU4vO6qsdemY3Tunkpj7Ab174AAAAAAAAAAAAAAAAAAAAAOu1DkmB1JkeOyDMrNN3C4+xXYuU1RvjdVG5UPtS0PjdnWvc50hjaJpqwGJrptzMfrW5nfRP2LiO2gpxhWz2nB51k20XB2Opox1E4LF1RHPXTy0zP1AhwAAAAAAAAAAAAAAAD6MBib+Dx2HxWFu1W7tq7RXRXTO6aZiY5Vxug8ZiMw0VkeOxdfV3r+X2K66p7dU0RvlTbZ/41v/AK6fvXGbN/8AkDTvk2x6kA9IAAAAAAAAAAAAAAAAAAAAAAAAAAAAAAAAAAAAAAAAAAAAAAAAAAAAAAAADEzujfIMjRe2ThdbN9k2Ku5LRXXnWc2+SrC4WqOptz/PVzR4Gg8Vxi+qKr9VWC0HgLdmZ/NprvVTVu78gnhuNyBPXFtZ9w+WecqOuLaz7h8s85UCe243IE9cW1n3D5Z5yo64trPuHyzzlQJ7bjcgT1xbWfcPlnnKjri2s+4fLPOVAntuNyBPXFtZ9w+WecqOuLaz7h8s85UCe243IE9cW1n3D5Z5yo64trPuHyzzlQJ7bjcgT1xbWfcPlnnKjri2s+4fLPOVAntuNyBPXFtZ9w+WecqOuLaz7h8s85UCe243IE9cW1n3D5Z5yo64trPuHyzzlQJ7bjcgT1xbWfcPlnnKjri2s+4fLPOVAntuNyBPXFtZ9w+WecqOuLaz7h8s85UCe243IE9cW1n3D5Z5yo64trPuHyzzlQJ7bjcgT1xbWfcPlnnKjri2s+4fLPOVAnsINad4wPV+dZ/luT3dF5dRRjcVbw9VUXKt9MVVRG+PtTitV+6WqLm7d1VMT/sD9tUcKXsD6s8U/GG12qOFL2B9WeKfjAKo45gjmAAAAAAAAAAAAAAAdjpzK6871BluUWqd9WNxVqxEdPVVRC5DTeVWsj09luTWKYpowWFtWIiI3fq0xCqvg05LGfbcNJ4GujqqIx1N2rvRTG/etmAAAAAAAAAAAAAAAAAAAAAAAaX4XmjqdYbDs8t02urv5bTTjrPJvmJonl/2bodVqvK7edaZzXKbtPVUYvB3rUx076JBTDHMPtzrBVZbnGOy6v8AWw2JuWp//GqYfEAAAAAAAAAAAAAAD92f+Nb/AOun71xmzf8A5A075NsepCnOz/xrf/XT964zZv8A8gad8m2PUgHpAdZqbNK8j09mWc2rcXK8Fhbl+mmeaZppmd3+wOzNyBdfGKayouV0fAfLPzapj/i1dL89cW1n3D5Z5yoE9txuQJ64trPuHyzzlR1xbWfcPlnnKgT23G5Anri2s+4fLPOVHXFtZ9w+WecqBPbcbkCeuLaz7h8s85UdcW1n3D5Z5yoE9txuQJ64trPuHyzzlR1xbWfcPlnnKgT23G5Anri2s+4fLPOVHXFtZ9w+WecqBPbcbkCeuLaz7h8s85UdcW1n3D5Z5yoE9txuQJ64trPuHyzzlR1xbWfcPlnnKgT23G5Anri2s+4fLPOVHXFtZ9w+WecqBPbcbkCeuLaz7h8s85UdcW1n3D5Z5yoE9txuQJ64trPuHyzzlR1xbWfcPlnnKgT23G5Anri2s+4fLPOVHXFtZ9w+WecqBPbccyBPXFtZ9w+WecqfXlvGMZ/RiaZzfQODuYffuqizfmmqPBvBOsal2N8JfZztmp96ZPjKsDm1NPVV5fipiLnf6mf3vqbaAAAAAAAAAAAAAAAAAAAAAAAAAAAaP4W+2LE7Jtmlycmve55vnVc4TC1xz243fnV/ZzN3ygzxjV+7Ob6Sw3uk+5U2L1UU9rfv5wQ4xeKxOPxFzGYy9XevXqprrrrqmaqqp55mXEAAAAAAAAAAAAAAAAAAAAAAAAAO90F/zvkHlLD+vC5HC/8AxrP9On7lN2gv+d8g8pYf14XI4X/41n+nT9wOVqjhS9gfVnin4w2u1RwpewPqzxT8YBVHHMEcwAAAAAAAAAAAAAADfPAlwdOM2/5P1UR+hw+Iuxv6YpWcq0uArdijb5gaJppma8DiYiZ543Uwsu+oAAAAAAAAAAAAAAAAAAAAAABiqImJieaWTtgqA2z5dGVbVtVYCmjqYtZne5OjfVv/ABeLbO4TNqLW3bWURVFXVZjXVydrfEcjWIAAAAAAAAAAAAAAP3Z/41v/AK6fvXGbN/8AkDTvk2x6kKc7P/Gt/wDXT964zZv/AMgad8m2PUgHpHntof8AyJqDybiPUl6F57aH/wAiag8m4j1JBThf/wCPd/66vvfh+7//AB7v/XV978AAAAAAAAAAAAAAAAAAAAAAAAA7DIM9zbTOb4XPMkxtzC43CXKbtq7bqmJiqJ+5a9sC2n29rezLKtV17oxdVHvfGUx2r1HJVP186pFYFxeGIu17N8+w9ddU27eZ76aZ7W+kEsQAAAAAAAAAAAAAAAAAAAAAAAAAYlBXjGfl7Sfi171k6pQV4xn5e0n4te9YENwAAbK2F7EM326ahxunsnzbDYC7gsN75qrv0zMVRv3buQGtTclz1urXMcnw2yrzdR1uvXPdtlXm6gRG3G5Lnrdeue7bKvN1HW69c922VebqBEbcbkuet1657tsq83Udbr1z3bZV5uoERtxuS563Xrnu2yrzdR1uvXPdtlXm6gRG3G5Lnrdeue7bKvN1HW69c922VebqBEbcbkuet1657tsq83Udbr1z3bZV5uoERtxuS563Xrnu2yrzdR1uvXPdtlXm6gRG3G5Lnrdeue7bKvN1HW69c922VebqBEbcbkuet1657tsq83Udbr1z3bZV5uoERtxuS563Xrnu2yrzdR1uvXPdtlXm6gRG3G5Lnrdeue7bKvN1HW69c922VebqBGTQUf8A775By/8A9Rw/rwuQw3/xrP8ATp+5BvTnF/a2yXUGXZxd1nlddGCxVq/VTFurfVFNUTMR9ic1qnqLVFuf3aYp+yAftqjhS9gfVnin4w2u1RwpewPqzxT8YBVHHMEcwAAAAAAAAAAAAAADdXA7zKnLtv8Apyaqop981XMPHf6qnm/2Wk+BT7sdz34NbUdM5z1XUxh8xszVO/duiat0/euAt3Kbtui7RO+mumKqfBMb4B+gAAAAAAAAAAAAAAAAAAAAADfuHDjMRThcJfxVc7qbNqq5VPRERMgqV4QuMox22vWGKo3bq8zu83e3R+DXjvte5nOc62z3NJr6qMTmF+5E96a53OhAAAAAAAAAAAAAAB+7P/Gt/wDXT964zZv/AMgad8m2PUhTnZ/41v8A66fvXGbN/wDkDTvk2x6kA9I89tC/5E1B5OxHqS9C63UuV3M709mWTWa6aK8dhbtimqrmpmqmYiZ+0FMN+P093/rq+9+NyXdzi7dc13Kq41tlX50zP/Dqfnrdeue7bKvN1AiNuNyXPW69c922VebqOt1657tsq83UCI243Jc9br1z3bZV5uo63Xrnu2yrzdQIjbjclz1uvXPdtlXm6jrdeue7bKvN1AiNuNyXPW69c922VebqOt1657tsq83UCI243Jc9br1z3bZV5uo63Xrnu2yrzdQIjbjclz1uvXPdtlXm6jrdeue7bKvN1AiNuNyXPW69c922VebqOt1657tsq83UCI243Jc9br1z3bZV5uo63Xrnu2yrzdQIjbjclz1uvXPdtlXm6jrdeue7bKvN1AiNuNyXPW69c922VebqOt1657tsq83UCIwlz1urXM//AK2yrzdSPO13ZnmGyLXGL0PmmYWcbiMJRbuVXrUTFM9VG/mkHjAAE/uLu7HuoPKUeogCn9xd3Y91B5Sj1AS0hliGQAAAAAAAAAAAAAAAAAAAAAAAAYlBXjGfl7Sfi171k6pQV4xn5e0n4te9YENwAEruLu7J2f8AkmPXRRSu4u7sn5/5Jj1wWC7/AAm/w/aAG/w/ab/D9oAb/D9pv8P2gBv8P2m/w/aAG/w/ab/D9oAb/D9pv8P2gBv8P2m/w/aAG/w/ab/D9oAb/D9pv8P2gBv8P2m/w/aAG/w/ab/D9oAMMgDVHCl7A+rPFPxhtdqjhS9gfVnin4wCqOOYI5gAAAAAAAAAAAAAAHJYvV4e/bxFud1dqum5TPRMTv8AwW+bG9VWdabMNOajtXIr984C17pO/furpjdVE/Yp/T+4vvaFGbaKzPQOLv77+UX/AHfD0zPL7lXz/VvBLUAAAAAAAAAAAAAAAAAAAAAB4fbbqa3pHZTqbPa7kUTZy+7TRMz+9VHUx9726K3GAa6oyXZzgNG2LvU4jO8TFy5TE8vuVHLy+GQV8XLlV65Vdr/Wrmap8MvyAAAAAAAAAAAAAAAP3Z/41v8A66fvXGbN/wDkDTvk2x6kKc7P/Gt/9dP3rjNm/wDyBp3ybY9SAekYZADf4ftADf4ftN/h+0AN/h+03+H7QA3+H7Tf4ftADf4ftN/h+0AN/h+03+H7QA3+H7Tf4ftADf4ftN/h+0AN/h+03+H7QA3+H7Tf4ftADf4ftN/h+0AN6sThtftCZ34vhvUWdqw+G1+0Jnfi+G9QGiAAE/uLu7HuoPKUeogCn9xd3Y91B5Sj1AS0hliGQAAAAAAAAAAAAAAAAAAAAAAAAYlBXjGfl7Sfi171k6pQV4xn5e0n4te9YENwAEruLu7J+f8AkmPXRRSu4u7sn5/5Jj1wWCgAAAAAAAAAAAAAAAAAAAAAAANZcJXLcbmuxDVeEwFiq9enBVVRRTG+ZiOWWzX4u2rd+1XZvUU10V0zTVTVG+JieeAUn7pjkmN0xycos21XwJtiGqM0vZtGWYzLr2IrmuujCX5ot75591PNDzWI4vrZHcmqbGc51a380e6RO77QV3CwDEcXbs5uTE2NY51a3fyUS6zEcXNpuaZjCa/x9M7+SblimeT6gQSO/wBpN2/xclmeq97bRqqeTk6vC7/uad4QPBPznYZkOC1H8IaM4weJv+4XaqLE0e4zu5N/hBoQAAAAAAAAABtXgz7Ta9lu1jKs5vXZoy/F1xg8bG/km3XO7fPgnlaqImaZiqmd0xzT0Auws37WJs0YixXTXbuUxXRVTzTExviX7R34GO2W3tG2d29NZnioqzrT1FNi5FVX51yz+5X+EpEAAAAAAAAAAAAAAAAAAAAAxVMUxNUzuiI3zM9Crvhe7S6dou1/MPeWI90y7Jv8hht0/m/mz+fVHhlOfhQbWsPsn2YY/G2b8RmuZUVYTA0b/wA7qqo3TV9UKrb967ib1eIvVzXcuVTXXVPPMzO+ZB+AAAAAAAAAAASW2K8CzO9rWiMNrXFaqt5PaxddUWLNeHmuquiJ3dXv74I0ib9ni5MLv/zG0a5PJ+5he39bsMPxc+lo6j33r7MpmP1vc7FEb/BvBBAWBYfi7tm9uJi/q/Ors9PU0R9zscPxfmyC3Vvv5tnV2N27d7rFP3ArzwOHvYrG4fDYe3Vcu3btFFFNMb5qqmY3RC47QeExGA0VkWDxVuaL1nL7FFdM88TFEb4ax2f8EHYzs9zizn+X5RiMbjsNPVWbmMu+6Rbq/wBUU829uvm5AZAAAAAAAAAAAAAAAAAAAAAAAAVh8Nr9oTO/F8N6izxWHw2v2hM78Xw3qA0QAAn9xd3Y91B5Sj1EAU/uLu7HuoPKUeoCWkMsQyAAAAAAAAAAAAAAAAAAAAAAAADEoK8Yz8vaT8WvesnVKCvGM/L2k/Fr3rAhuAAldxd3ZPz/AMkx66KKV3F3dk/P/JMeuCwUAAAAAAAAAAAAAAAAAAAAAAAAAAAAAB4jbToHDbStmmeaUv0RVcxGGqrw87v1b1Mb6Zj63tyOjdv384KVMxwGJyvH4nLcZbm3fwt2qzcpmN0xVTO6XzpB8NXZlOhdrN/OcHY6jLtQ0++7cxG6mLnNXT9vKj4AAAAAAAAAAD3Wxjalm2yLXmA1bl1dc2bdcW8XZieS9Zn9aJ/BbBo/VmT6403gdUZDiqcRgsfapu0VUzv6nfz0z345lMv1JJcEThIXNl2eU6N1TiaqtOZnciKa6quTCXZ/ej+XpBZCOLDYnD43D28VhL1F2zdpiui5RMTFUTzTEw5QAAAAAAAAAAAAAAAY5gZcGOxuEy3B38fjr9FnD4e3Vcu11zupppiN8zMuaeaejtoS8NbhJUXKb2yTRWPiqN/U5tirVXJ/SiY/3BorhQ7ab+2PaFiMRhL0/kTK5qw2X0RPJVETy1+GZackAAAAAAAAAAAd7oXSuN1tq/KdK5fbqrvZliaLP5sb5imZ/On7N64DSencFpLTWW6ay63FGHy7DUYeiIjdH5scs/XO9Bvi/tmX5X1XmO0fMLG/D5TR73wk1U8k3queY8EJ9b94AAAAAAAAAAAAAAAAAAAAAAAAAAAAAACsPhtftCZ34vhvUWeKw+G1+0Jnfi+G9QGiAAE/uLu7HuoPKUeogCn9xd3Y91B5Sj1AS0hliGQAAAAAAAAAAAAAAAAAAAAAAAAYlBXjGfl7Sfi171k6pQV4xn5e0n4te9YENwAEruLu7J+f+SY9dFFK7i7uyfn/AJJj1wWCgAAAAAAAAAAAAAAAAAAAAAAAAAAAAAAA0Dw0Nmfw92R4nNMFh+rzHT9Xv2z1Mcs0fv0/Zyqyvq3LrMdgsPmOCv4DF24rsYm3VauUz26ao3TH+6o/bhs/xOzPadnmlrtqabNnEVXMNMxu6qzVO+nd9wPBgAAAAAAAAAETu5pAEuOCbwsp0jOH2dbRcbVVlFcxRgcdcmZnDTPNRVP+nv8AaT2wuKw2Nw9vF4S/bvWb1MV0XKKommqJ5piY51KPNO+Ej+Dfwuc+2V3bOmNX13sz01NUU0756q7hI6ad/PHeBZIOj0frTTOvclsah0rm1jH4PEU9VFduqJmmeiqO1LvNwAAAAAAAAAAAABMd5xYrF4XA4e5i8biLdmxapmq5cuVRTTTEduZlC/hKcNS3bt4rRGyXF9XcnqrOKzanmjtTTa9oPVcLDhXYPRGCxOgdA4+i9n1+mbeKxNud9OEpnkmIn/V9yvvEYi/i8RcxOKvV3b12qa666p3zVVPLMzJicTiMZiLmLxV6u7eu1TVXcrnqqqpnnmZlxgAAAAAAAAAAOSxYu4q/bw1iia7t2uKKKY55qmd0Q427OCNsznaNtfy731h5uZdk/wDn8Vyck9TP5tM+GQT84O2zq1sy2UZLkE2opxdyzGKxczHLN2uN87/A2WxERTEREbojkhkAAAAAAAAAAAAAAAAAAAAAAAAAAAAAABWHw2v2hM78Xw3qLPFYfDa/aEzvxfDeoDRAACf3F3dj3UHlKPUQBT+4u7se6g8pR6gJaQyxDIAAAAAAAAAAAAAAAAAAAAAAAAMSgrxjPy9pPxa96ydUoK8Yz8vaT8WvesCG4ACV3F3dk/P/ACTHroopXcXd2T8/8kx64LBQAAAAAAAAAAAAAAAAAAAAAAAAAAAAAAAEM+MG2Ze+ssyradl2G33MLPvLG1RH7k/qVT9fImY8vtO0Xg9oOg850jjbcVUY/C10Ub+1c3b6Z+0FOg+/Psmxmns6x2R4+3NvEYG/XYuUzHLvpnc+AAAAAAAAAAAA+oAe12ZbYNdbJs3ozXSOcXbNO+PdcNXM1Wb0dFVPMnbsa4a+gNf27GU6vqo09nFURTPutX+Xu1fy1dr61bpHJPPu6AXXYbE4bGWKMThMRbv2a430XKKoqpqjvTDl7e5Uvs24RO1bZbcop07qW/cwlMx1WDxM+6WZjo3TzfUlNs/4wvTmNi1hNoWmb+AuzuirE4OfdKN/T1M8oJhDXuk9vuyHWlFFWR65y2u5cjfFq9d9yrjvbqnvcPi8Ji6PdMJirN6meXqrdcVR9sA5RjeyAHNzsVVU0xNVdUUxHbmd0AyRy8zzeodo2g9K2ar+oNXZXgqaI3zFzE09V9kTvaQ11w7dkemqbljTkYrUGKpiYp9wo6i1v/6pBJLfHPvav2r8I3Znskwlyc6zq3iswiJ9zwGFriu7NXf3c0eFB7abw09rWvYu4HKsXRp7Lrm+n3LB/wDEmnomvn+xoPFYzFY7EVYvG4m7iL1yd9Vy5XNVUz4ZBufbfwq9f7YL1zL7d+rKMi6qYowWHqmJrj+ernnwczSf3nL2wAAAAAAAAAAAADvQsd4C+zP4IbMatWY7DdRj9R3PdYmY3TFinkp+qedA3ZZonF7Q9fZLpHCW6q5x+KopuTH7tuJ31T9i3rI8owmQZPgskwFuKMPgbFFi3ERuiKaY3A+4AAAAAAAAAAAAAAAAAAAAAAAAAAAAAAABWHw2v2hM78Xw3qLPFYfDa/aEzvxfDeoDRAACf3F3dj3UHlKPUQBT+4u7se6g8pR6gJaQyxDIAAAAAAAAAAAAAAAAAAAAAAAAMSgrxjPy9pPxa96ydUoK8YzyZ9pTxa96wIbgAJXcXd2T8/8AJMeuiildxd3ZOz/yTHrgsFAAAAA74AAAAAAAAAAAAAAAAAAAAAAAAAADota600/oDTuM1RqbHW8NgsHRNVU1Ty1T2qaY7cy+zUGoMo0tk+Kz7PcbbwmCwVubt67cndEUxH3yrJ4S3CJzfbVqOvCYG7cw2m8BcmnB4bf+vu/+pV0zPaB4XbBrnCbSNouc6ywOWUYCxmF+a6LVPRHJ1U9+eeXjQAAAAAAAAAAAAAAAABmiuu3V1dFdVNUfvUzul6HKNouu8g3fkfV2a4XqeaLeKriPs3vOgNrZfwpNvGXURbtbQ8xuUxG6IuzFe77YdvTwyeEBRTFPwxid3bnD0tJANxYzhb7fcZFUTrvEWuq//tUU07vByPJZztq2r6giqM219nN+K/1onE1Rv+x4oBz4rH47HV+6Y3GX79czvmbtyap/3cAAAAAAAAAAAAAAAAAA2zwZdqmTbI9p2E1Hn2XU4jB3qJwty5+9h6aueulabk2c5bqHLMNnOT4y3isHjLcXbN23O+mqmY5FLKS/BM4T2J2ZZpa0Tq/F13dNY25FNuuqd/vOuZ54/l6YBY4OHCYvC4/C2sbgsRRfsXqIuW7lE76aqZ5YmJcwAAAAAAAAAAAAAAAAAAAAAAAAAAAAAACsPhtftCZ34vhvUWeKxOG1H/8AEJnfi+G9QGhwAE/uLu7HuoPKUeogDzJ/cXd2PdQ+UY9QEtIZYZAAAAAAAAAAAAAAAAABrPhDbV7ex/ZpmGprXUzj7n+WwNE9u9VzT9XODG1nhEbNNj1v3LU2be65hVG+jA4bdXenwx2o8KP2P4xvKqMRVTlmzzE3LMc1V3FREz9UcyFWf6gzfVGb4nPc9x93F43F3JuXbtyrfM1S68E3OuO2/o4r9LOuO2/o4r9LQjATc647b+jiv0s647b+jiv0tCMBNzrjlqefZxX6W0RwjuEFTt7zDKcdTp6cr/Jlqu3um71fV9VLTQAAA2xwdduVOwjU+YaiqyOc09/YSML7nFzqOp/O3797U4Cbk8Y7a7Wziv0s647b+jiv0tCMBNzrjtv6OK/Szrjtv6OK/S0IwE3OuO2/o4r9Lc+C4xvLar9MZhs6xFNqZ3TVbxUTMfag4Atd2TcJXZhtfmnB5Bmk4XM+p31YHFfmXf8A8f8AV9TayljKs2zHI8xw+bZTjLuFxeGri5au26ppqpqjmWl8GTbBO2LZphc4x1dP5VwM+9cfEduuI5KvrjlBtwAAAAAAAAAAAAAAAAAAAAAB8+YZjgspwN7MsxxNGHw2Gom7du11dTTTTHPMy5L961hrNeIv3abdu3TNVddU7qaYjlmZlX1wuuFFe1zjb+zvQ2Nrt5Dha5oxeIt1bvfdcdqJ/wBMf7g89wrOEzjtrOdXNLaaxFyxpjL7s0xFM7pxdcfv1d7ohHYAAAAAAAAAAAAAAAAAAAAAAAAAAAAAAAAAAAAAAAAAAADm5QBLngf8KS5pfFYbZnr3HVV5Vfq6jL8Xdq3zh655qKpn937k+KLtu9bpu2q4roriKqaonfFUT24lSdEzExMTMTE74lN3ge8Kf3WMNst2h5h+fG63leOvVc/Raqn7pBNYYiYmN8TyMgAAAAAAAAAAAAAAAAAAAAMTyRvnmhlHXhm7bsZsu0Ra0/p7E+451n/VWqblP61mzzVVR3+1AO+2r8LfZVssxN3Kb+NrzfNbU7q8LgpirqJ6KquaGmL/ABjmE91q97bOL029/JNeLjf/ALIR3sRexN25iMRdqu3btU1V11zMzVM88zLjBNzrjtv6OK/Szrjtv6OK/S0IwE3OuO2/o4r9LOuO2/o4r9LQjATdjjHbXb2cV+lwi/tv2nRtf2hY3XMZXOX+/Lduj3Ca+q6nqY3b97wQAAAkBwdeFNRsI09mGR1aVqzT39iYxHVxe6jqeTduR/ATc645aiOTZxX6Wdcdt/RxX6WhGAm51x239HFfpZ1x239HFfpaEYCbnXHbf0cV+lvvyfjGMgvYqm3nmgcZh7EzG+5ZxEVzTHg7aCh9e4FvWzDbPs/2uZdOO0dnVu9cojfewtz829a8NL3Km/Z/r3UWzfU+D1TprH3MNicLciqYpndTcp38tNUduJhbRsy1zgdpGhso1ll+6KMww9NddEfuV/vU/aD1AAAAAAAAAACG/GM4zEU5BpPBU3JizXir1yqmJ55ink3pkIYcY38l6R/r3/VBBsIAAAAN4AbzeAG83gBvN4AbzeAAAAB4E0+Ljx+InG6wyua59wpt2L8U/wA2/dv+xCxMri4vl7WXitj1wTpAAAAAAAAAAAAAAAAAAAAABqXhU4rPcHsK1Pe09NyMT73imuq3M9VFqZ/P3bu8qm3zPLM7+3yrrMdgcJmeDvZfj8PRfw2Iom3dt1xvprpnkmJV2cKngrY3Zpjr+tNF4W5idNYiua7tqiN9WCqntf8AT3wRmDw/XIAAAAAAAAAAAAAAAAAAAAAAAAAAAAAAAAAAAAAAAAAAAAA5MNcxFrE2ruEqqpvUV01W5ondPVb+Td9bjiJmYppiZmebd20yeCVwS680uYTaVtJwE0YSiYu5dl9yndN2eeLlcdHRAJhbL7+a4nZ1pzEZ5FXv+5ltib/Vc81dTHLPfeofmiim3TFFFMU00xEUxEboiI7T9AAAAAAAAAAAAAAAAAAAAAK6eMBx+Iv7Y8Jl9yuZtYXK7U246OqmZlYsrg4ffZxo8k4f8QRr8IAAAAdrebwA3m8AN5vADebwA3m8AAAABZDwCcZiMRsSmxeuTVRh8yvU24mf1YndO5W90LG+AF2F7/lO7+AJMAAAAAAAAAAIYcY38l6R/r3/AFUz0MOMb+S9I/17/qgg3AQAPZ7J9lOo9sWqfglpe7hbeM9wrxG/E19TR1NPPy9LxiSPAH7Of/a8T90A+nrf22r5/kXpM+xjrf22r5/kXpM+xY0Arl639tq+f5F6TPsOt/bavn+Rekz7FjQCuXrf22r5/kXpM+w639tq+f5F6TPsWNAK5et/bavn+Rekz7Drf22r5/kXpM+xY0Arl639tq+f5F6TPsOt/bavn+Rekz7FjQCubrf22r5/kPpM+xqLa/sZ1VsVzzDZBqy9hLmIxdj3xROGudXT1O/dyrdVfPGG9k7JPJn94IpgAJlcXF8vay8VseuhqmVxcXy9rLxWx64J0gAAAAAAAAAAAAAAAAAAAAAPmzHLsDm2Bv5bmWFt4nC4mibd21cp3010zzxMPpAVzcKngrY3Zpj7+tNF4W5iNN4iuartumN9WDqmeaf5UZeXm3Lqsxy7BZtgr+W5lhbeJwuIom3dtXKeqprpmN0xMK5+FVwXcfsvzO/rDSOErxGmMXcmqqmiJmcFVP7s/wAvRII2hy7+nwAAAAAAAAAAAAAAAAAAAAAAAAAAAAAAAAAAAAAAAAADNMVVTFNMTv37o8LERMzujnnk3JhcEfgo3c8v4baVtFy7qMutzF3L8Bdp3Tfq7VyqP9PR0g5+CXwS6s1rwu0naTl804OmYu5fl92ndN3txXXHR0QnRbt27NumzaopoooiKaaaY3RERzREMWrduzbptWqKaKKIimmmmN0RHREP2AAAAAAAAAAAAAAAAAAAAAAArg4ffZxo8k4f8Vj6uDh99nGjyTh/xBGsABtDY3wetb7b7OYXtI4jAWqctqppve+rvUctUb43NXpxcXJ8nau/rWPukGt+t/bavn+Q/ViZ9jHW/ttXz/IvSZ9ixmGQVy9b+21fP8i9Jn2HW/ttXz/IvSZ9ixoBXL1v7bV8/wAi9Jn2HW/ttXz/ACL0mfYsaAVy9b+21fP8i9Jn2HW/ttXz/IvSZ9ixoBXL1v7bV8/yL0mfYdb+21fP8i9Jn2LGgFc3W/ttXz/IfSZ9jQuvtE5ts61bmOjM8rsVY7LLnuV6bNXVUb92/klcmqn4V/7QOsPHI9WAakAA6FjfAC7C9/ynd/BXJ0LG+AF2F7/lO7+AJMAAAAAAAAAAIYcY38l6R/r3/VTPQw4xv5L0j/Xv+qCDcBAAkjwBuzn/ANqxP3QjckjwBuzn/wBqxP3QCyIAAAAAAAAAGJV88YZ2Tsk8mf3rBpV88YZ2Tsk8mf3gimAAmVxcXy9rLxWx66GqZXFxfL2svFbHrgnSAAAAAAAAAAAAAAAAAAAAAAAA+TNcqy7O8vv5TmuEtYrCYqibd61cpiqmume1ufWArb4U3BazHZXmN3VuksPdxWmMVXNVUUx1VWDqn92f5eiUcPvXUZrlWXZ3l2IynNsJaxWExVE27tq5T1VNdM88blc3Cm4LeYbKsxvau0nh7mJ0xirk1TERvqwdUz+rP8vRII4BvjpAAAAey2WbKtWbWtT2NN6XwVdyaqom/iJpn3OxR26qpB53J9P55qC5ds5HlOKx9dmiblynD2prmmmOeZ3cz4r1m9h7lVnEWa7Vyid1VFdMxMT4JWy7E9hWkti2m6MqyjC28RmF+iPfuOrp3136ujvU95w7SODdsm2nWrlWeaasYfGVb+pxmEj3K7TP1c4KnRLDadwBNaZD7rmOz7NLeeYWnfMYa7ut34jvdqUZtR6S1NpDHV5dqbJMZl2It1dTNN+1NO/wTzT9QOoDk6QAAAAAAAAAAAAAAADeAHJ0vR6P2d6117jaMBpLTmNzG5XO7qrVqeojw1c0A8458HgcbmOIowmAwl7E3rk7qbdqiaqpnwQl/sx4vvOcd7jmO0zPacDaq3VVYLB/nXPBVXzR9SV+z3YZsx2ZYei1pbS2EtXaI5cTdoi5eqnpmqQVLZtk+a5FjK8uznL8RgsVRETVZv25orjf3pfGtI4RHBr05tqyevG4a3awGpMNR/lsbTTu903c1FfTH3K09Z6L1HoHP8TprVGXXcHjcLXNM0107oqj/VTPbiQdGAAAAbpnkjnnk5DnmIjl38iX3BL4Jt3Ud3C7SNo2BmjLKJi7gMDcjd74ntV1x/p6OkDgl8Ey7qK7hto+0fAVW8st1RdwGAuU7pxE9quuP9PRHbTys2bOGs0Yexbpt27dMU0UUxuimmOaIgs2bOHs0YfD26bdu3TFNFFMbopiOaIh+wAAAAAAAAAAAAAAAAAAAAAAAAFcHD77ONHknD/isfVwcPvs40eScP8AiCNYACcXFyfJ2rv61j1ZQdTi4uT5O1d/WserIJoR+DLEfgyAAAAAAAAAqn4V/wC0DrDxyPVhawqn4V/7QOsPHI9WAakAA6FjfAC7C9/ynd/BXJ0LG+AF2F7/AJTu/gCTAAAAAAAAAACGHGN/Jekf69/1Uz0MOMb+S9I/17/qgg3AQAJI8Abs5/8AasT90I3JI8Abs5/9qxP3QCyIAAAAAAAAAGJV88YZ2Tsk8mf3rBpV88YZ2Tsk8mf3gimAAmVxcXy9rLxWx66GqZXFxfL2svFbHrgnSAAAAAAAAAAAAAAAAAAAAAAAAAA+LOcmyzUGWYnJs4wdrFYLF25tXrVynfTVTPefaArS4UPBezPZHmdzU2mbF3FaXxVyaoqiOqnCVT+5V3uiUeY6JXTZzk2WagyzEZNnODt4rB4u3Nu7auU76aqZVwcKDgvZnsjzO5qbTNi7itLYu5vpmImqrCVT+7V3uiQR4Df0tp7CNgWqttuoKMLgLNeFyexXE43H1U/mUU9umnpqB1uxrYrqzbRqW1kuQYaqjC0VROLxtVP6OxR25me3PRCzrZJsh0nse0zZ09prCU+6bonE4qqn9JiK+3NU/g+7Zxs10tst01Y0zpXL6MPYtUx7pc3fn3q+3VVPbl6rk7QAAMd50Wq9C6R1vga8u1Vp7BZjZrjduvWoqmPBPPDvgEQtp3F/aZzX3bH7Ns6uZViJ31U4PEz1dmZ6InnhE7aJwf8AapsxvVxqTS+JnDUTMRi8PTNyzMdO+OZbc4sThcNjbNWGxeHt37VcbqqLlMVUzHgkFKMxMTumOWBZ7tN4HOyLaF7rjMJlk5FmVzfMYjAx1NM1d+jmlBfb/sBznYPnmDy7Mc2sZhh8yoru4W9biYmaaZ3TFUTzSDVXOAAAAAAAAABzA3nwdOC/mm3azis5nPrOW5VgL8WL9XU9VdrqmN+6mObm7YNHUUV3KooopmqqZ3REcsy2vs24MG13aZXau5Zp27gcDc58XjYm1Ru6YieWU+tmnBW2Q7NKbeIwWn6MyzCiI34zHRFyrf0xE8kNvW7du1RTbtW6aKKY3RTTEREQCLezLgFbP9Ne5Y/XWOu6gxtG6qbMfmYeJ8HPP1pJ5FprT+mMFRl2nsnwmX4aiN1NvD2ooj/Z2YDDIANU7euD/pbbdp+rDY21RhM5w9Mzg8fTT+dRV/pq6aW1jkBTptF2cap2X6kxGmdVZfcw+Is1T1Fcx+Zeo7VVM9uJeXW4bZ9imk9s+mrmT59haLeMt0zODxtNMe6WK+1y9HeVi7WNkmrdkGpb2ntT4Kumnqp97YqKZ9zxFHaqpn8AeJ5zn5iOfd0pacE7gnX9X3sNtE2iYGu1k1uqLmCwVyndViao5qqon937wOCdwTb+r7+G2h7RMFXaye1VFzBYK5TunFTHNVVH+n70+8Ph7GEsW8NhrVFqzapii3RRG6KaY5oiDD4exhLFvDYWzRas2qYoooojdTTTHNEQ5AAAAAAAAAAAAAAAAAAAAAAAAAAAFcHD77ONHknD/isfVwcPvs40eScP+II1gAJxcXJ8nau/rWPVlB1OLi5Pk7V39ax6sgmhH4MsR+DIAAAAAAAACqfhX/tA6w8cj1YWsKp+Ff8AtA6w8cj1YBqQADoWN8ALsL3/ACnd/BXJ0LG+AF2F7/lO7+AJMAAAAAAAAAAIYcY38l6R/r3/AFUz0MOMb+S9I/17/qgg3AQAJI8Abs5/9qxP3QjckjwBuzn/ANqxP3QCyIAAAAAAAAAGJV88YZ2Tsk8mf3rBpV88YZ2Tsk8mf3gimAAmVxcXy9rLxWx66GqZXFxfL2svFbHrgnSAAAAAAAAAAAAAAAAAAAAAAAAAAAA+LOcmyzUGWYjJ84wdrFYPFW5t3bVynfTVTL7QEW8w4vzZZi89qzLD55m2FwVVc1zgqJpmmOXmiqeXckPozRWm9AZBh9N6Vyy1gsFhqd0U0Ry1T/qme3Mu9ANwAAAAAAAMcvaQj4xuxvv6RxG6N0UX6Znt88Sm6hjxjWGj8kaSxU0zv98Xre/tfq7wQaAAAAAAAAAAWGcXvYm3sqza9uj9Jmk7t3b3Uq81jnAEw9NrYtdvxTMTezO9Mz2p3boBJbwsgAAAAAADE9PbeQ2m7KtHbWdP16f1dl1N+3PLavU8l2zV/qpq7UvYAIy6P4Bey3TWoLWdZhmmY5xasXIuWsLiOpi3Exyx1W79bwJK4fD2MJYow2Gs0WrNqmKKKKI3U0xHNEQ5QAAAAAAAAAAAAAAAAAAAAAAAAAAAABXBw++zjR5Jw/4rH1cHD77ONHknD/iCNYACcXFyfJ2rv61j1ZQdTi4uT5O1d/WserIJoR+DLEfgyAAAAAAAAAqn4V/7QOsPHI9WFrCqfhX/ALQOsPHI9WAakAA6FjfAC7C9/wAp3fwVydCxvgBdhe/5Tu/gCTAAAAAAAAAACGHGN/Jekf69/wBVM9DDjG/kvSP9e/6oINwEACSPAG7Of/asT90I3JI8Abs5/wDasT90AsiAAAAAAAAABiVfPGGdk7JPJn96waVfPGGdk7JPJn94IpgAJlcXF8vay8VseuhqmVxcXy9rLxWx64J0gAAAAAAAAAAAAAAAAAAAAAAAAAAAAAAAAAAAAAAAIicYtYmvQ+mL8T/wsxucnTvoS7RV4wvD1XNl+T4iKN8WsziJq6N9IK9vCHfAAAAAAAAAOXtLL+AvYmxsEwMzO/3THYmvwb6oVoSs/wCBbh6rGwHJJqo6n3S5erjv76gb0AAAAAAAAAAAAAAAAAAAAAAAAAAAAAAAAAAAAAAAAVwcPvs40eScP+Kx9XBw++zjR5Jw/wCII1gAJxcXJ8nau/rWPVlB1OLi5Pk7V39ax6sgmhH4MsR+DIAAAAAAAACqfhX/ALQOsPHI9WFrCqfhX/tA6w8cj1YBqQADoWN8ALsL3/Kd38FcnQsb4AXYXv8AlO7+AJMAAAAAAAAAAIYcY38l6R/r3/VTPQw4xv5L0j/Xv+qCDcBAAkjwBuzn/wBqxP3QjckjwBuzn/2rE/dALIgAAAAAAAAAYlXzxhnZOyTyZ/esGlXzxhnZOyTyZ/eCKYACZXFxfL2svFbHroaplcXF8vay8VseuCdIAAAAAAAAAAAAAAAAAAAAAAAAAAAAAAAAAAAAAAACNfD4y29jNidOKs2q6/emY2a65jmppnfEzKSjrNR6cyfVuS4vT2f4K3i8Djbc271quN8TE/iCl/m5zfHSsFzPi8tmuLx13EYHVedYOxXVM0WIporiiOiJnlfL1unQPd1nfmrYICcnSd9PueLp0BP/AOus781bRd4Sex3KdiWu7OlMmzXE4+xdwlOIm7iKaYq3zPNyA1MAADfHBb4PWQ7ecTndjPM8xuXRldFuqicNRTV1XVdPVA0PvjpN8dKffW6dA93Wd+atnW6dA93Wd+atggJ4Fq3BPy29lmwTStnEWq7dy5hpuzTVz/nVTMS1zpni/wDZfkmb2MyzPPs1za1Yqiv3teiiiiqYn97qeWYScwOCwmW4SzgMDYos4fD0RbtW6I3U00xHJEQDnAAAAAAAAAAAAAAAAAAAAAAAAAAAAAAAAAAAAAAAAVwcPvs40eScP+Kx9XBw++zjR5Jw/wCII1gAJxcXJ8nau/rWPVlB1OLi5Pk7V39ax6sgmhH4MsR+DIAAAAAAAACqfhX/ALQOsPHI9WFrCqfhX/tA6w8cj1YBqQADoWN8ALsL3/Kd38FcnQsb4AXYXv8AlO7+AJMAAAAAAAAAAIYcY38l6R/r3/VTPQw4xv5L0j/Xv+qCDcBAAkjwBuzn/wBqxP3QjckjwBuzn/2rE/dALIgAAAAAAAAAYlXzxhnZOyTyZ/esGlXzxhnZOyTyZ/eCKYACZXFxfL2svFbHroaplcXF8vay8VseuCdIAAAAAAAAAAAAAAAAAAAAAAAAAAAAAAAAAAAAAAAAAAACubh/dmXC+TLf3rGVc3D+7MuF8mW/vBGUABNDi5PlDV39Ox96F6aHFyfKGrv6dj7wTjAAAAAAAAAAAAAAAAAAAAAAAAAAAAAAAAAAAAAAAAAAAAVwcPvs40eScP8AisfVwcPvs40eScP+II1gAJxcXJ8nau/rWPVlB1OLi5Pk7V39ax6sgmhH4MsR+DIAAAAAAAACqfhX/tA6w8cj1YWsKp+Ff+0DrDxyPVgGpAAOhY3wAuwvf8p3fwVydCxvgBdhe/5Tu/gCTAAAAAAAAAACGHGN/Jekf69/1Uz0MOMb+S9I/wBe/wCqCDcBAAkjwBuzn/2rE/dCNySPAG7Of/asT90AsiAAAAAAAAABiVfPGGdk7JPJn96waVfPGGdk7JPJn94IpgAJlcXF8vay8VseuhqmVxcXy9rLxWx64J0gAAAAAAAAAAAAAAAAAAAAAAAAAAAAAAAAAAAAAAAAAAAK5uH92ZcL5Mt/esZVzcP7sy4XyZb+8EZQAE0OLk+UNXf07H3oXpocXJ8oau/p2PvBOMAAAAAAAAAAAAAAAAAAAAAAAAAAAAAAAAAAAAAAAAAAABXBw++zjR5Jw/4rH1cHD77ONHknD/iCNYACcXFyfJ2rv61j1ZQdTi4uT5O1d/WserIJoR+DLEfgyAAAAAAAAAqn4V/7QOsPHI9WFrCqfhX/ALQOsPHI9WAakAA6FjfAC7C9/wAp3fwVydCxvgBdhe/5Tu/gCTAAAAAAAAAACGHGN/Jekf69/wBVM9DDjG/kvSP9e/6oINwEACSPAG7Of/asT90I3JI8Abs5/wDasT90AsiAAAAAAAAABiVfPGGdk7JPJn96waVfPGGdk7JPJn94IpgAJlcXF8vay8VseuhqmVxcXy9rLxWx64J0gAAAAAAAAAAAAAAAAAAAAAAAAAAAAAAAAAAAAAAAAAAAK5uH92ZcL5Mt/esZVzcP7sy4XyZb+8EZQAE0OLk+UNXf07H3oXpocXJ8oau/p2PvBOMAAAAAAAAAAAAAAAAAAAAAAAAAAAAAAAAAAAAAAAAAAABXBw++zjR5Jw/4rH1cHD77ONHknD/iCNYACcXFyfJ2rv61j1ZQdTi4uT5O1d/WserIJoR+DLEfgyAAAAAAAAAqn4V/7QOsPHI9WFrCqfhX/tA6w8cj1YBqQADoWN8ALsL3/Kd38FcnQsb4AXYXv+U7v4AkwAAAAAAAAAAhhxjfyXpH+vf9VM9DDjG/kvSP9e/6oINwEACSPAG7Of8A2rE/dCNzf/Am1LkGlNsn5U1Jm+Gy7Cfk2/R7tiK+pp6qd26N4LNB4f8Axw2Qz/8AcTJPSYP8cNkX0iZJ6TAPcDw/+OGyL6RMk9Jg/wAcNkX0iZJ6TAPcDw/+OGyL6RMk9Jg/xw2RfSJknpMA9wPD/wCOGyL6RMk9Jg/xw2RfSJknpMA9wPD/AOOGyL6RMk9Jg/xw2RfSJknpMA9vKvnjDOydknkz+9M6duGyL6Q8k9JhBrh06t01q7aJlGN0xneEzOxay7qK7mHudVTTV1XNMgjUAAmVxcXy9rLxWx66GqZXFxfL2svFbHrgnSAAAAAAAAAAAAAAAAAAAAAAAAAAAAAAAAAAAAAAAAAAAArm4f3Zlwvky396xlXNw/uzLhfJlv7wRlAATQ4uT5Q1d/Tsfehemhxcnyhq7+nY+8E4wAAAAAAAAAAAAAAAAAAAAAAAAAAAAAAAAAAAAAAAAAAAFcHD77ONHknD/isfVwcPvs40eScP+II1gAJxcXJ8nau/rWPVlB1MTgE670do7A6oo1TqPA5XViLtmbUYm7FHVxEcu4E7o/Bl4aNuGyL6Q8k5vnMM/wCOGyL6RMk9JgHuB4f/ABw2RfSJknpMH+OGyL6RMk9JgHuB4f8Axw2RfSJknpMH+OGyL6RMk9JgHuB4f/HDZF9ImSekwf44bIvpEyT0mAe4Hh/8cNkX0iZJ6TB/jhsi+kTJPSYB7hVPwr/2gdYeOR6sLIJ24bIY/wDuJknpMK1OEzm+WZ9tw1Vm2TY6zjMHiMVFVq/Zq6qiuOpjmkGrwAOhY3wAuwvf8p3fwVydCxvgBdhe/wCU7v4AkwAAAAAAAAAAhhxjfyXpH+vf9VM9DDjG/kvSP9e96oINwAAcvTuADfPTJvnpADfPSb56QA3z0m+ekAN89JvnpADfPSb56QA3z0kzvAAABMri4vl7WXitj10NUyuLi+XtY+K2PXBOkAAAAAAAAAAAAAAAAAAAAAAAAAAAAAAAAAAAAAAAAAAHyZpmuWZJgruY5vj7GDwtmmaq7t6uKKYjwyD6+3uVzcP7sy4WP/8AWW/vbX23cO/Ksn98af2T2Kcfi4326syux+ionpop/e8KE2q9X6j1vnN7P9UZrex+Ovz+ddu1b90dEdEd4HTgAJocXJ8o6vjt+52fvQveo2fbS9ZbMM6pz3R2cXcFfiY90pid9F2I7VVPbgFxccvJAi7sR4b+kdbe98i2gUW8izerdRTfmr/LXqvD+6k7hsThsZYoxOEv271m5HVUXLdUVU1R2t0wDlAAAAAAAAAAAAAAAAAAAAAAAAAAAAAAAAAAAAAAAAAAVwcPvs40eScP+Kx9XBw++zjR5Kw/4gjWAAbwA3z0m+ekAN89JvnpADfPSb56QA3z0m+ekAN89JvnpADfPTJygAAB0LG+AF2F7/lO7+CuTcsa4AXLsXv+U734AkyAAAAAAAAAAi3w/dEY3UGzTL9TYGxVcnIsXNd6KY3zTbrjdM+CJSkfDneTZbqHKcVkmcYWjE4PG2qrV61XG+KqZjcCloSV278DPW+hs0xOc6Ey+7neQXKproosx1V+xH+mae3EdMI9YjTuoMJdmxi8kx9q5TO6aa8NXEx9sA68fZ+R83/hWM8xV7D8j5v/AArGeYq9gPjH2fkfN/4VjPMVew/I+b/wrGeYq9gPjH2fkfN/4VjPMVew/I+b/wAKxnmKvYD4x9n5Hzf+FYzzFXsPyPm/8KxnmKvYD4x9n5Hzf+FYzzFXsPyPm/8ACsZ5ir2A+MfZ+R83/hWM8xV7D8j5v/CsZ5ir2A+MfZ+R83/hWM8xV7D8j5v/AArGeYq9gPjH2fkfN/4VjPMVex+7Gn8+xV2LOGyXH3blU7opow9czP8AsD4E++L20TjMq0fnes8ZYqt05vfps4bqqd3VW6OeY729ovYhwOtf7Q8yw+Y6sy69kWQUVRVdrxFPU3btP+mmnn5emVjGmdN5RpHIsHpzIsJRh8DgbUWbVuntRAO0AAAAAAAAAAAAAAAAAAAAAAAAAAAAAAAAAAAAAAAAYmYiN8zuiI3zLxe0rbBoLZRldeZavzyzh6t0zbw1MxVeuz0RTHKgntt4aeudoc38l0fNzT+SVb6P0dX+Yu0/zVdrwQCV22nha7O9lFu7luDxVGd55ETTThMNXE026v56o5IQK2tcILaNtgx1dzUObV2cBv32cBh6pos0R34j9afC1tdu3b9yq9fu1V3K531VVTMzMvz4AAAAAAAI3xO+J3Ny7GuFJtH2RX7eEs4+rNMl3xFeAxVc1REfyVTy0tNHJ2wWt7H+Eps42w4W3byrMqMDm279Jl+Jqim5E9vqd/60eBthSngsfjctxVvHZfi7uGxFqqKqLtquaaqZjtxMJV7EeHRqPTHuGQ7TrVzOMup3UU42j/5FqOmr/VALAR5zRG0PR+0XKbedaQzzD5hh64iZiiqOqo71VPPEvR97t9AAAAAAAAAAAAAAAAAAAAAAAAAAAAAAAAAAAAAAACCHGHaJxljUeR68s2aqsLicP7yvVxTyUXKZ30758Cd7y20nZ5p/ahpLGaR1Jh4uYbFUT1FcfrWq+1XHfgFOo3Ttc4KW0/ZjmN6rD5NfznKOqmbGMwlE176O11VMcsS1HXkmdW65ouZRjaao54qw9cTH+wPiH2fkfN/4VjPMVew/I+b/AMKxnmKvYD4x9n5Hzf8AhWM8xV7D8j5v/CsZ5ir2A+MfZ+R83/hWM8xV7D8j5v8AwrGeYq9gPjH2fkfN/wCFYzzFXsPyPm/8KxnmKvYD4x9n5Hzf+FYzzFXsPyPm/wDCsZ5ir2A+MfZ+R83/AIVjPMVew/I+b/wrGeYq9gPjH2fkfN/4VjPMVew/I+b/AMKxnmKvYD4x9n5Hzf8AhWM8xV7H04DSmp80v04TLtPZjibtc7oot4auZmfsB1W6ZndEcs8y0XgeaJxmitiOU2cws1WsTmVdeOroqjdMRXP5v+yOvBy4FmoczzbCau2qYH3hluHqpvWsur/4t+qOWOrj92E9LFizhbFvDYe1TbtWqYooopjdFNMc0QDkAAAAAAAAAAAA7z4r+SZNiq/dcTlODu1zz1V2KZn7n2gOt+Denv4HgPRqPYfBvT38DwHo1HsdkA634N6e/geA9Go9h8G9PfwPAejUex2QDrfg3p7+B4D0aj2Hwb09/A8B6NR7HZAOt+Denv4HgPRqPYfBvT38DwHo1HsdkA634N6e/geA9Go9h8G9PfwPAejUex2QDrfg3p7+B4D0aj2Hwb09/A8B6NR7HZAOt+Denv4HgPRqPYfBvT38DwHo1HsdkA634N6e/geA9Go9jks5FkmHuRdsZPgrdUc00WKYn7dz7gGOaN0bt3gZAAAAAAAAAAAAAAAAAAAAAAAAAAAAAAAAAAAAAAfmuui3TNddUU0xG+Zmd0RDQG2vhibP9mFN/KMiu0Z9ntMTTFmxXvtWqv56o+6AbyzrPsn05l93Nc9zLD4HCWaZquXb9yKaYj60Pdt3Dzw+GjEae2R4aL12JmirNL8fmx0zbp7fhlF3antz2hbXsxqxmqM5uThYq32cFaqmmxbj/pjn+tr8Ha6l1TqHWGaXc51Nm+JzDGXqpqqu3q5qn6uh1QAAAA3Fsa4L20fa9ft4rDYCvK8mmYm5j8VRNNM0/wAkTy1SDUeDwOMzHE28FgMLdxF+7MU0W7VE1VVTPaiIbWzTgrbasp0db1nitJ3Zw1cdXXh6PzsRao/1VUc+5P3Y7wZ9nGx7C27uXZbRmGb9TEXcwxNMVVzP8sc1MNszEVRNNURNM9qYBSfdtXbNyq1et1UV0TuqpqjdMT34flZ7tq4I2zzatbvZnl+GoyPPaomYxWGoiKLk/wA9PNPhQL2s7ANoux/H12tR5Rcu4Hqt1rH2KZqs1x2uXtT4Qa2AAAB6PRG0PWOzrNrec6QzzEYC/RVvmKK56iuOiqnmmE4NiPDn03qj3tp/aZaoyjMqt1FONp/+Pdq7/wDpV+ALrMFjsHmWGt43L8VaxNi7HVW7tquKqao7W6Yc6qTY9wldo+x7E0WsrzKrHZTvj3TL8VVNVuY38vU7+WmfAnvsa4Umzja9Yt4SzjqMqzqaf0mAxVcUzNXb6iZ5KoBuQY3xu37+RkAAAAAAAAAAAAAAAAAAAAAAAAAAAAAAAAAAAAGKoiqJprpiaZ54mOd8Fen8hu1zXcyXA1VTO+ZnD0TP3OwAdb8G9PfwPAejUew+Denv4HgPRqPY7IB1vwb09/A8B6NR7D4N6e/geA9Go9jsgHW/BvT38DwHo1HsPg3p7+B4D0aj2OyAdb8G9PfwPAejUew+Denv4HgPRqPY7IB1vwb09/A8B6NR7D4N6e/geA9Go9jsgHW/BvT38DwHo1HsPg3p7+B4D0aj2OyAdb8G9PfwPAejUew+Denv4HgPRqPY7IB1vwb09/A8B6NR7HPhsoynBVdXhMswlmrpt2aaZ/2h9YAAAAAAAAAAAAAAAAAAAAA6HUeu9HaQuWbWp9R4HLK78TVbjE3YomqI6N7vZQV4xrlz/Sc//wCNe+8EtP8AG3ZJ9IWSelUn+NuyT6Qck9KpVBm8Fvn+NuyT6Qck9Kpdtp3aDonV2KuYLTOp8vzK/ao6uu3h70VzTT0zu7Sm3eldxd/LtOz/AMkx2v5wWCgAAAAAAAAAAAAAAAAAAAAAAAAAAAAAAAAAAAAAAAA6zUWpsg0lll3ONR5rh8vwlmmaqrl+5FMbu90g7N4Daltu2fbIsuqxmq86tU4jd+iwdqqKr9yeiKY5vDKL22/h5Xr3vjT2yLDzbo5aKs1v08s9M26e14ZQ7zzP861NmN3Ns/zPEY/F3pmqu7ermqqZ+sG9dtnDH1/tNqv5Rp67XkGRVTNMWrFf6W9T/PX+EI+V11XKqq7lU11VTvmap3zM99gAAADlfVl2WZjnGMt5dlWCvYvFXaopt2rNE11TPeiAfK9ToHZlrXaZm1GUaPyLEY67VMRXcpp3W7cdNVXNCSmxHgI5znnvfP8Aarfqy3BVbrlOXWp/TXI6K5/dTY0fobSmgspt5LpPJMNl+Ft0xHU2qIiau/VPPII8bEuA7pPRvvfPtolyjPM2piK4w27/AC9mrwfvTHfSgw2Fw2Cw9GFweHt2LNuOpot26YpppjvRDlAAAHx5tlGV57gbuWZxgLGMwt6maa7V6iKqZie9L7AEOdt3APyzM/fOoNk1+nBYmd9yrLLtX6KvvUVfu+BCvVejdTaIzW7kmqcmxOXYu1O6aL1ExE+CeaYXNPI7Q9lWhtqGV15XrDIrGLpmndRe6nddtz001c8Ap674k7tu4EestC++M90JVXn2T0TNc2qY/wAzZp78fvfUjNfw+Iwt6vDYqzXZu256mu3XTNNVM9uJieYHGABybuZy4bE4nBX6MVhL9yzetzFVFy3VNNVM9MTDiASj2I8ODVui5sZFtDprzzKad1FOI3/5izT4f3ohOXZ/tP0TtNyijONHZ5YxtuqN9duKoi7bnoqp54U7u80jrbVOhM2t51pPOsTl2KtzExVarmIq71Uc0wC5ftbxEDYhw7sozr3vp/atYpy/GTuopzG1H6G5Vzfnx+74UtctzTLs5wVvMsqxtnF4a9TFVF2zXFdNUeGAfUAAAAAAAAAAAAAAAAAAAAAAAAAAAAAAAAAAAAAAAA8vne0/Z9pvMK8pz/V+WYDGW4ia7F+/FNdMTzcj1HgVicNr9oTO/F8N6gLBP8bdkn0g5J6VSf427JPpByT0qlUHvN4LfP8AG3ZJ9IWSelUvQad1bprV2HuYvTOd4TMrNqrqK68PciuKauidymNP7i7uTZ7qHylHqglqMQyAAAAAAAAAAAAAAAAAAAAAAAADEoK8Yz8vaT8WvesnVKCvGM/L2k/Fr3rAhuAAldxd3ZPz/wAkx66KKV3F3dk/P/JMeuCwUAAAAAAAAAAAAAAAAAAAAAAAAAAAAAAAAAAAAAB+Ll23Zt1XrtymiimOqqqqndER0zLXO1nb/s62P4Gq7qPN6LuOmP0WAw9UVXq57W+O1HflAvbVwuNom1a7fy3AYmvI8jqmYjCYauYruU/z188+AErttvDR0Ls6pv5LpGu3qDO6d9G61V+gs1fzVdvwQgltM2ya+2sZnXmOrs7u3qN8+54aiqabNuOimmOR4mqqapmqqqZmeee3LAAAAADMRMzuiOWeTc9js42R672qZpTlekMjvYmJmIuYiaZps246aquZOrYlwJ9FaAjD53rb3PP85o3VxRXT/l7NXep/e3dMgilsX4J+0XazdtZhfwdeTZHMxNeMxNE01V0/yUzyynrsj4PGzrY9gqKchyqjE5jNO67mGJpiu9VPen92PA2Zas2cPaps2LVFu3RG6miiN0RHREP2DHhZAAAAAAAAAGJjfG6d27t99pfbPwVtnO12zdx1WDoyjOpieox2Foinqp/np5qobpAVQbX+DjtH2P4u5VnOV14zK9/6LMMNTNVuqntdV/pnwtV7l1ePy/AZphLmAzLB2cThr1M03LV2iKqaontTEoobbuAnkGooxGfbLr1GVY+d9yrAXP8AgXJ6KZ/dkEA9+8eh1poHV2z7NrmS6uyTE5fibczH6SiYpr79NXNMPPAAANm7JOENtH2P42irT+a138vmqPdcBiKpqtVR3on9We/DWQC0LYvws9nW1mzZy/E4ujJc8qiKasHia4imur+SrmlvCJiY6qJ3x0qULN67h7lN6xdrt3KJ3010zuqpnvTCSWxHhq632f1WMk1nNzP8lp3URVXV/mLNPeq/e3dEgseHjNm+17QW1XKqMz0fnlnETNMTcw9VUU3rU9FVPO9mAAAAAAAAAAAAAAAHfAAAAAAAAAAAAAAAAAAAAAFYfDa/aEzvxfDeos8Vh8Nr9oTO/F8N6gNEAAJ/cXd2PdQeUo9RAFP7i7ux7qDylHqAlpDLEMgAAAAAAAAAAAAAAAAAAAAAAAAxKCvGM/L2k/Fr3rJ1SgrxjPy9pPxa96wIbgAJXcXd2T8/8kx66KKV3F3dk/P/ACTHrgsFAAAAAAAAAAAAAAAAAAB4bbXtBtbMNmmdavqmJvYWxNOHpnt3auSn/flB5DblwpNCbF9+WXqpzXPKqd9GBsVR+Z0TXP7sItZpxg+1TFYqu5leRZPhLEz+ZbqtzcmI78yjRn2e5nqbOMXnuc4u5icZjbtV27duVb5mZnf9j4PqBJqeH9tmn/8Aksl9HY+P7tl+ZZL6OjMAkz8f3bL8yyX0c+P7tl+ZZL6OjMAkz8f3bL8yyX0c+P7tl+ZZL6OjMAkz8f3bL8yyX0c+P7tl+ZZL6OjMAkz8f3bL8yyX0c+P7tl+ZZL6OjMAkz8f3bL8yyX0c+P7tl+ZZL6OjMAkz8f3bL8yyX0c+P7tl+ZZL6OjMAkz8f3bL8yyX0d8Ge8OrbZnOWX8tsXstwE36Zom/h8PuuUxPRM8yOoD682zfNM9x13M84x9/GYq/PVXLt6uaqqp8MvkAAAAZppqrmKaKZqqqndERHLMt+bFOB/tC2pXLOa5xYryHIqt1U4jEUbrlyn+SmfvkGkMmyXN9Q4+1lWSZdiMbi79UU0WrNE1VTM96EvtiHAOxmN976g2t4icNZndXTldmfz6uiLlXa8EJR7KNg+zzY/l1OF0xk9ucXMbruOv0xVfuT4e1HehsMHU6X0lpzRmVWsl0xlGGy/CWaYppt2aIp3+Ge27ZkAAAAAAAAAAAAAAAYZAeZ13s40ZtIymvJ9YZHh8fZqiYpqrp/Ponppq54lB3bdwGtT6T98Z9s2u15zllMzXODmP8xap73+pYQxuBSnjMHi8vxNzB4/C3cPftVTTct3KZpqpnvxLhWrbY+DLs42w4au/mGXU5dm+6fc8wwtMU17/AOeP3oQJ2x8F/aRsgxF3E4vL6szyaKp9zx+Fomqnqf5456QafCeTngAOQAdtpnVeo9HZpaznTWb4nL8ZamJpuWa5p37u1PTDfuC4e22rC4W1h71GUYmu3TFM3bmG/Oq787u2jYAkz8f3bL8yyX0c+P7tl+ZZL6OjMAkz8f3bL8yyX0c+P7tl+ZZL6OjMAkz8f3bL8yyX0c+P7tl+ZZL6OjMAkz8f3bL8yyX0c+P7tl+ZZL6OjMAkz8f3bL8yyX0c+P7tl+ZZL6OjMAkz8f3bL8yyX0c+P7tl+ZZL6OjMAkz8f3bL8yyX0c+P7tl+ZZL6OjMAk1HD+2y/Msl9Hd5pfjDNd4TGUzqvTGXY3CTMRX733266Y6Y7U/WiSd8FuuyTbXofbLkv5U0pj/01qI98YO7yXrM9+O3Hfe+VDbF9pucbKdf5bqbLMTXTapvU28XairdTdszO6qJj/dbdlWY4fN8swma4WuKrOMs0X7cx/pqjfAPrAAAAAAAAAAAAAAAAAAVh8Nr9oTO/F8N6izxWHw2v2hM78Xw3qA0QAAn9xd3Y91B5Sj1EAU/uLu7HuoPKUeoCWkMsQyAAAAAAAAAAAAAAAAAAAAAAAADEoK8Yz8vaT8WvesnVKCvGM/L2k/Fr3rAhuAAldxd3ZPz/AMkx66KKV3F3dk/P/JMeuCwUAAAAAAAAAAAAAAAAABGzh8XrlvYjFuiuYpuZnYiqI7e7ekmjTw++wpb8p2fxBXEAAAABvjpADfHSb46QA3x0m+OkAN8dJvjpADfHSb46QA3x0m+OkAN8dJvjpAAAABvfgta12JaR1HF3ajp2q/i6rke9cfd/PsWOjfR+KyzIc5yPPsssZjp7MMNi8FcpibVzD1RVREdqOTmUuNg7K9ue0LZDmNGK0tnNyMLNX6XBXp6uxcjommebwwC3Lp5OXtiP+xThh7P9qFuzlOeXqMhz2qIibF+vdau1fyV9/olv+mqiummuiuKqao3xMTvgGQAAAAAAAAAAAAAAAAAAceIxGHwtivE4q/btWrcdVVXXVFNNMdMzPMDk5d/JzvP621Ro7SuRYjH62zHBYbLuomLlOKmmYuRu5opn9ZoDbdw3dH6Hi/kWgIt57m9O+ib0T/l7M9Mz+9PehBfaFtT1xtQzavNtYZ5fxldVUzRa6rdatR0U0xyRAPS8IDU2yfVGsbuN2Vabu5XhJmr3auqd1u/V/qpo/dauAAAADfHSAG+Ok3x0gBvjpN8dIAb46TfHSAG+Ok3x0gBvjpN8dIAb46TfHSAAAAAt32EYi9itj+k71+vqq6sssxM+CNyoieZbnsB7DWkvJlr7gbAAAAAAAAAAAAAAAAAAAVh8Nr9oTO/F8N6izxWHw2v2hM78Xw3qA0QAAn9xd3Y91B5Sj1EAU/uLu7HuoPKUeoCWkMsQyAAAAAAAAAAAAAAAAAAAAAAAADEoK8Yz8vaT8WvesnVKCvGM/L2k/Fr3rAhuAAldxd3ZPz/yTHroopXcXd2T8/8AJMeuCwUAAAAAAAAAAAAAAAAABGnh99hS35Ts/iksjTw++wpb8p2fxBXEAA9Zsp0LG0raBk2iJx04P8q3/cfd+p6rqOSZ37vqeTbY4KnZ/wBH+O/2yCQccXLa+kWr0Vnrclv6RavRU1oZBCjrclv6RavRTrclv6RavRU1wEKOtyW/pFq9FOtyW/pFq9FTXAQo63Jb+kWr0U63Jb+kWr0VNcBCjrclv6RavRTrclv6RavRU1wEKOtyW/pFq9FOtyW/pFq9FTXAQo63Jb+kWr0V8GdcXTmdjLb17IteWsRjKKZm3avWOpprno3xzJzAKdNe7M9a7NM2ryfWGRYjA3aKpimuqnfbud+mrml5f8VyusdC6T19lNzJdW5JhswwtyN3U3aImae/TPPEoTbbuAlneRRiNQbK79WZYKN9dWXXP+Nbj+Sf3gRDH05jluYZRjbmXZpgr2ExVmeors3aJpqpmOmJfMAADNFdduuLluqaaqZ30zE7piUhNifDI1/syrs5RqG7cz/I6d1E2r1f6a1T00VfhKPR2gW67Ltt+z3a5ltON0pnVqvEbt93B3Zim/bnt76e34Ye+UuZFqDO9M5jazbIMzxGBxdmqKqLtmuaaon6kxNiPDyu2ow2ntrmG90p3xRTmtinljv3KfxgE3x1endTZBqzLLWcabzbDZhg71MVUXbFcVR9fQ7QAAAAAAAAAAAABj8Hn9a6/wBI7PcpuZzq7O8Nl+HoiZj3Sv8AOrnopp55lCHbdw6tQali/kGy+xXlGXzM0VY6v/j3I/l/0glTtf4SOzfY9ha6M4zOjGZrun3LL8NVFV2Z/m/0x4UCds/Co2j7Xb97B146rKclqn8zAYWuYiaf56uepp/H5hjs0xVzHZji72JxF2qaq7t2uaqqpnpmXABO+Z3z94AAAB2t7stPabz7VeZWsm07lWJzDGX6opptWbc1T9fR9aZWxHgGU0e99Q7XcR1U8ldOVWJ5I71yr8IBF7ZhsU2g7W8yowOk8ku3LHVfpcZcpmmxajtzNU8/ghJvB8XNfqwturHbQ6ab80xNyLeG30xPeTLyDTuR6Wy21k+nsrw+AwdmmKaLViiKaYiPvl2QIUdbkt/SLV6Kdbkt/SLV6KmuAhR1uS39ItXop1uS39ItXoqa4CFHW5Lf0i1einW5Lf0i1eiprgIUdbkt/SLV6Kdbkt/SLV6KmuAhR1uS39ItXop1uS39ItXoqa4CFHW5Lf0i1einW5Lf0i1eiprgIQ43i7LWDwWIxf8AiFVV7harubve3P1MTO7/AGQyzDC+8sficF1fV+4Xa7XVbufqZmN657O/kbH+K3fUlTRn/wAvZl43d9eQfAABPMtz2A9hrSXky19yoyeZbnsB7DWkvJlr7gbAAAAAAAAAAAAAAAAAAAVh8Nr9oTO/F8N6izxWHw2v2hM78Xw3qA0QAAn9xd3Y91B5Sj1EAU/uLu7HuoPKUeoCWkMsQyAAAAAAAAAAAAAAAAAAAAAAAADEoK8Yz8vaT8WvesnVKCvGM/L2k/Fr3rAhuAAldxd3ZPz/AMkx66KKV3F3dk/P/JMeuCwUAAAAAAAAAAAAAAAAABGnh99hS35Ts/iksjTw++wpb8p2fxBXEAA2xwVOz/o/x3+2Wp22OCp2f9H+O/2yC1qGWIZAAAAAAAAAAAAAABq/a7wdtnO2HB3Py7ldGFzLdPueYYemKLtM9rfMfrR3pQK20cE/aLslvXsfZwdec5JTMzTjcNRMzRT/AD0xzLRX4vWbOItVWMRaou264mKqK6d8VR0TEgpPmJiZiYmJjniRY3tt4E+idfRiM70TNGQZ1Vvrmiin/L3qu/T+7v6YQV2j7JddbK81ryvWGR3sJuq3W78UzNm5HTTVHIDxwcvNuAD65gAe32Z7ZNfbJszozHSOd3bNvfE3cLXM1WLsdFVKd2xPho6G2ixYybVlVvT+d1RFO65V+gvVfy1drf0SraZpqmmYqpqmJjliYBdfauW71um7arprorjfTVTO+JjvT237VibFeF1tE2VXLOWZhia88yOmYpqwuJrma7dP8lXPHgTy2TbftnW2DAU3tN5vRbxu79LgL9UU3qJ7fJ2478A2SAAAAAAHa3tO7ZOFDs42QWLmFxWPozPON0+54DC1xVVFX88x+rANt4zG4TLsNcxuOxNrD2LNM1V3LtcU00xHbmZRY23cOjTWlffGQ7NLdvOsyp30Tja//j2p73+pFXbFwmNpG1/E3LOY5lXl+UzP6PL8NVNNER2uqn9762pPrB6XXO0bWO0fN7mdavzzEY6/XVvpprq/Mtx0U080Q81/uAAAAd5sbZPsE2ibYMfRY01k9dOC3/pcdfpmmzRHbnfPP9QNd27dy7cptWrdVddU7qaaY3zM+BIrYlwMNd7SKrOc6qouafySrdV1V2j9Pdp/lpnm8MpXbFeCHs82VUWczzKxTnue0xFU4rE0RNFur+SnteFviIpppimimKYjmiI5IB4fZjsY0BslyyjAaSySzau9Tuu4u5TFV67PTNU8v1PcgAAAAAAAAAAAAAAD4s7+Rsf4rd9SVNGf/L2ZeN3fXlcvnfyNj/FbvqSpoz/5ezLxu768g+AACeZbnsB7DWkvJlr7lRk8y3PYD2GtJeTLX3A2AAAAAAAAAAAAAAAAAAArD4bX7Qmd+L4b1FnisPhtftCZ34vhvUBogABP7i7ux7qDylHqIAp/cXd2PdQeUo9QEtIZYhkAAAAAAAAAAAAAAAAAAAAAAAAGJQV4xn5e0n4te9ZOqUFeMZ+XtJ+LXvWBDcABK7i7uyfn/kmPXRRSu4u7sn5/5Jj1wWCgAAAAAAAAAAAAAAAAAI08PvsKW/Kdn8UlkaeH32FLflOz+IK4gAG2OCp2f9H+O/2y1O2xwVOz/o/x3+2QWtQyxDIAAAAAAAAAAAAAAAADp9UaR03rTK7uTaoyfDZjhL1M0zbvURO7vxPadwAgttv4BuNwHvjUOyXETisPG+urK71X6SmOiirt+BELOMlzbT+Pu5VnWXYjBYuzPU3LN+iaaqZ+tdK13tW2D7PNr+X14fU2T26cZ1M+5Y6xTFF+3V0745/BIKkTnb721cEHaFstuXszymxXnuR0zNVOIw9Ezct0/wA9EffDQtVM0TNNdM0zE7piY7YMAAPsynOM1yLHWszyfML+DxVmqKqL1muaaomO/D4wExtiPDwzLK4w+ntrNirG4eN1unM7Mfpae/XT2/CmppXWOmdbZVazrS2cYbMMJdpiYrs1xO7vTHPE+FTK9ds72q652XZrRmuj88vYSqJ312eqmbVyOiqnmkFwpuRi2I8NzRuuqbGR69i3kOcVbqIu1T/lr1Xen92ZSQxed5RgcsqznGZnhrOApo6ucRXdiLfU7t+/quYH2+B5bX20zRWzTKbmcavzzD4K3TTM0UTVE3Lk9FNPPKNe2/h3ZLkfu+QbKbNGZY2N9FWY3Y/Q25/kj95CbWGuNVa9za5nerM6xGYYq7VM77tczFPepjmiASJ23cOLVes4xGQ7OqLmR5VVM0Tid/8AmbtPh/dhF7FYrFY6/XisZiLl+9dnqq7lyqaqqp78y4gAAA5h+7Fi9ir1GHw1mu7duT1NFFFMzNU9ER2wfh3GltIak1rmtrJdMZNicxxd2YiLdmiZ3d+Z7UJA7EuBLrPXk4fO9czcyHJ6t1cW6o/zF6O9T+7HflOrZ3sn0LstyqjKtH5HYwkRTEV3+p33rk9uaq55QRm2I8A7L8u9w1Btav04u/G65Tldmf0dM8+6urt+BLzKMmynIMBayzJcvsYLCWaepos2aIppiPqfYyAAAAAAAAAAAAAAAAAAD4s7+Rsf4rd9SVNGf/L2ZeN3fXlcvnfyNj/FbvqSpoz/AOXsy8bu+vIPgAAnmW57Aew1pLyZa+5UZPMtz2A9hrSXky19wNgAAAAAAAAAAAAAAAAAAKw+G1+0Jnfi+G9RZ4rD4bX7Qmd+L4b1AaIAAT+4u7se6g8pR6iAKf3F3dj3UHlKPUBLSGWIZAAAAAAAAAAAAAAAAAAAAAAAABiUFeMZ+XtJ+LXvWTqlBXjGfl7Sfi171gQ3AASu4u7sn5/5Jj10UUruLu7J+f8AkmPXBYKAAAAAAAAAAAAAAAAAAjTw++wpb8p2fxSWRp4fXYUt+U7P4griA3gNscFTs/6P8d/tlqfe2xwVOz/o7x7+2QWtQyxETDIAAAAAAAAAAAAAAAAAAAAPzct0XaKrd6iK6ao3TFUb4mEd9tnAz0FtIi/nOmKKMgzyvfV1dmn9Bdq/mo7XhhIpgFQ+0/YrtB2SZlVgdW5JdtWeqmLWLt0zVYux0xU8L310Of6cyLVOW3co1FlWGx+EvUzTXav0RVH+/Mhxtv4Bm/3zqDZFiOTluVZTfq/2t1fhIISjsc/07nmlsyu5PqHK8RgMZZq6mu1ftzTMe11wAAHLHLE7pjmegxe0DWuOyC1pfF6nzG7lVmd9GFrv1TRH1PPgAAAAA77RuhdV7QM2tZLpPJcTmGJuTEbrVG+mmOmqeaITc2IcBPI9PTh8/wBql6jNMdTEV05fb/4Fueiqf3vuBFfZDwc9pG2HGW5yTKq8LlfVR7pmOJpmm1THb6n/AFSnrsX4KWznZJatY+rCU5xncRvqx2Kpiepn+Snmpbjy/LcvynCW8vyvBWMLhrNMU0WrVEU00x3oh9AERu5KY3R3mQAAAAAAAAAAAAAAAAAAAAB8Wd/I2P8AFbvqSpoz/wCXsy8bu+vK5fO/kbH+K3fUlTRn/wAvZl43d9eQfAABPMtz2A9hrSXky19yoyeZbnsB7DWkvJlr7gbAAAAAAAAAAAAAAAAAAAVh8Nr9oTO/F8N6izxWHw2v2hM78Xw3qA0QAAn9xd3Y91B5Sj1EAU/uLu7HuoPKUeoCWkMsQyAAAAAAAAAAAAAAAAAAAAAAAADEoK8Yz8vaT8WvesnVKCvGM/L2k/Fr3rAhuAAldxd3ZPz/AMkx66KKV3F3dk/P/JMeuCwUAAAAAAAAAAAAAADdvACOXml0Gq9eaP0Pg6sdqvUWCy21TG/9NdiKp8FPPIO/52peEtsiznbRs+p0lkWPw2ExFOLt4j3S/EzTup7XI1hrzh/7Osjqu4bRuT4zPb1PJF2v9FZ39PLyzDRupuHxthzeuunJMPluUWp3xT7na6uqPrkHbxxeG0vuryb/AMazreW0nutyX/xqahzXhO7dc3qqqxO0TMrfVTvmLNUUR/s6G7tm2q365uXdfZ1VVPPPvqoG/I4vHaVPNqzJZ8FNb2uxngT672cbTMi1rmmo8rv4XK8R7rct2aaurqjdMcm/wotYHb7tly6aZwm0bOqOp5onETMf7vZ5DwztvWSVR7pqejH0RO/qMVZirf8AXzgtB5N/IIOaO4xTMLc0WNc6LtXqd/51/A3Opn/xnkSJ2e8KLY5tG9zsZZqezgsZciP8rjZ9yr39ETPJINtD80V0XKKbluumumqN8VUzviY8L9AAAAAAAAAAAAAAAAAAAAAAA8LtP2LbP9rWWV4HVmS2rl7qf0eMt0xTetz0xUghtt4GWvNm1V/ONMUV6gyOmZq6u1TvvWqf5qY593TCyliqmmumaa6YmJjdMTHJIKT67ddquq1doqorpndVTMbpie+/KzfbVwQNnu1Om/muU2KMizyuJqjEYeiIt3Kv56I5PrhA3atsG2h7IMfXY1Pk9dWD37rWOsUzVZuR2uXtfWDXQdvccoAc7buxzgybR9r+It4jAZfVl2UTMe6ZhiqZpo6nt9RHPVINT4TB4rH4m3g8Fh7l+/dq6mi3bpmqqqeiIjnSk2I8BvVOr/e+fbSLlzJMrq3V04WP/kXY6Jj91KvY5wYtnGx+xbxGCy+nMs4imIuY/FURVVv/AJY5qW3+TtA8xoPZrovZrlNvJ9IZHh8DaopiKrlNMe6XJ7c1Vc8y9OAAAAAAAAAAAAAAAAAA11tr215DsRyHCZ/n2X4rF2cXf9wppsbt8Tu37+Vpbrh2zXuWzj/1BK7cbkUeuHbNu5XOP/U64ds27lc4/wDUErtxuRR64ds27lc4/wDU64ds27lc4/8AUErtxuRR64ds27lc4/8AU64ds27lc4/9QShzqP8A9jY/xW76kqaNQcmfZjv+d3fXlPK9xhGzLEWbli7pPOKqLtM0Vxvp5YmN0w1Df2r8DvE37mJvbH80quXaprrn3bnmZ3yCLm+Ok3x0pP8A+KHA2+h3NPPH+KHA2+h3NPPAi+t02AcuxrSW7+G2vuQr/wAUOBt9DuaeebXyHh5bI9NZPhMiyfRub2MFgrcWbFuJpnqaY5oBL3cbkUeuHbNu5XOP/U64ds27lc4/9QSu3G5FHrh2zbuVzj/1OuHbNu5XOP8A1BK7cbkUeuHbNu5XOP8A1OuHbNu5XOP/AFBK6eTnEUJ4w7Ztz/BXOPtpSU0XqnCa20rluq8BZuWsPmdim/boufrUxPSDuwAAAAAAAAAFYfDa/aEzvxfDeos8Vh8Nr9oTO/F8N6gNEAAJ/cXd2PdQeUo9RAFP7i7ux7qDylHqAlpDLEMgAAAAAAAAAAAAAAAAAAAAAAAAxKCvGM/L2k/Fr3rJ1SgrxjPy9pPxa96wIbgAJXcXd2T8/wDJMeuiildxd3ZPz/yTHrgsFAAAAAAAAAAAAAAdTqbVWntHZTezzUubYfL8FYp6qq7eriPs6Z7zxm2rbro/YpkE5lnmIpv5hepn3ngLdUe6Xqu/Hap6ZVsbXtuWudsedV5hqPMa6MHTVM4fAW6pizap7XJ2574JF7Z+HvjsTcv5HskwkWLMTNE5niKd9dUdNFPa8Mokak1bqXV+YV5pqbOsXmOJuTNU137k1fZE8zqACAAAAAAGaK6qKoroqmmqmd8TE7pj62AG5tk3Ct2p7K7trDW80rzfKaZiKsFja5riKeimrniU7di/Cd2e7Y7FGFwmMpy3Ot36TL8TXEVTPb6if3oVWOfA4/G5XjLWPy7FXMNiLNUVW7tqqaaqZjtxMAusELeDTw0pxlzC6H2sYumm7PU2sLm1XJFU80U3O/30z7V+zibVF+xdpuW7lMVUVUzviqJ5piQfsAAAAAAAAAAAAAAAAAAAAAB8WcZLlOoMBdyrO8usY3CXqZprtXqIqpmPrfaAiFtZ4AmRZ5i72b7Ms3pyi5cmapwOIiarO/8AlmOWlp2zwBttVzGe9rtzKLdmJ/404jfTu6d27esf8MMfUCLux7gL6M0ZiLWc69xdOocfbmKqLHU9Th6Kund+99aTuEweEy/DW8HgcNasWLURTRbt0xTTTEdEQ5gAAAAAAAAAAAAAAAAAAAAEUuMM7GmS+Uv7VfMLBuMM7GmS+Uv7VfMAAAAAAAAAAAAAAAAAAATzLcOD52F9I+Tbao+eZbhwfOwvpHybbBsMAAAAAAAAABWHw2v2hM78Xw3qLPFYfDa/aEzvxfDeoDRAACf3F3dj3UHlKPUQBT+4u7se6g8pR6gJaQyxDIAAAAAAAAAAAAAAAAAAAAAAAAMSgrxjPy9pPxa96ydUoK8Yz8vaT8WvesCG4ACV3F3dk/P/ACTHroopXcXd2T8/8kx64LBQAAAAAAAAAAAGstvO3DT+xLSdzNsfXRfzPEU1UYDBxV+ddubueY/0x25ew1vrLJtA6WzDVmfYim1g8BaquVTM7pqmI5KY78zyKo9su1jPtsOtcXqjOb1UWaqpoweH3/m2LMTyUxH3g6jX2vtS7SdSYrU+qcwuYnF4muaoiqfzbdPappjtRDzgAAAAAAAAAAAAARMxO+J3T0pg8EPhVYjJMVhdmW0LMJry69MW8vxt2rlsVdq3VM/u9HQh8zTVVRVFdFU01UzviY7UguxprpuU010VRVTVETExPJMSyipwLOEPVrfJ6dm2rMZ1ec5Za34O9cq5cTZjtd+qlKvfv7YAAAAAAAAAAAAAAAAAAAAAAAAAAAAAAAAAAAAAAAAAAAAAAIpcYZ2NMl8pf2q+YWDcYZ2NMl8pf2q+YAAAAAAAAAAAAAAAAAAAnmW4cHzsL6R8m21R88y3Dg+dhfSPk22DYYAAAAAAAAACsPhtftCZ34vhvUWeKw+G1+0Jnfi+G9QGiAAE/uLu7HuoPKUeogCn9xd3Y91B5Sj1AS0hliGQAAAAAAAAAAAAAAAAAAAAAAAAYlBXjGfl7Sfi171k6pQV4xn5e0n4te9YENwAEruLu7J+f+SY9dFFK7i7uyfn/kmPXBYKAAAAAAAAAAxzsvFbZNf4bZns3zvV1+uIrwuHqpsUzP612qN1MfaCGvDs213NRalo2YZFjN+X5TVFeOmirku3+1TPep+9Et9ebZnjM6zPFZvj7tVzEYy9Xeu11Tvmaqp3y+QAAAAAAAAAAAAAAAAHc6O1Xm2iNTZfqnJMRVZxeX3qb1FVM7t+6eWme9Mci23ZZtAyzadoXK9Y5ZXTNONs0zdoieW3diPzqZ+tTzyb0wuL/wBqdeX5/mGy/McTPvfMKZxWBiqeSm7H61MeGATxAAAAAAAAAAAAAAAAAAAAAAAAAAAAAAAAAAAAAAAAAAAAABFLjDOxpkvlL+1XzCwbjDOxpkvlL+1XzAAAAAAAAAAAAAAAAAAAE8y3Dg+dhfSPk22qPnmW4cHzsL6R8m2wbDAAAAAAAAAAVh8Nr9oTO/F8N6izxWHw2v2hM78Xw3qA0QAAn9xd3Y91B5Sj1EAU/uLu7HuoPKUeoCWkMsQyAAAAAAAAAAAAAAAAAAAAAAAADEoK8Yz8vaT8WvesnVKCvGM/L2k/Fr3rAhuAAldxd3ZOz/yTHroopG8CLaDo/Z3r7Os01lnljLMLfy2LVu5d37qq+r37gWTDVk8KDYRP/wBxMu+2fYx8aDYT9ImXfbPsBtQar+NBsJ+kTLvtn2HxoNhP0iZd9s+wG1Bqv40Gwn6RMu+2fYfGg2E/SJl32z7AbUGrKeE/sImqKY2iZfNU8kRvn2Nm4PF4fMMJZx2EuxcsYi3Tct1xzVUzG+JBzAAIX8Ydr2qzgsh2eYS9MTfqqx2Kpie1HJRE/emhEqteGBqqvVO3bPZi5M2ctmnA243790URy/7g0tz8vSAAAAAAAAAAAAAAAAAA9Ls21ZitD66yTVGEuVUV4DGW7lUxO7fRv3VR9cb3miZ3dvdvBdRlOZWM4yrB5rhaoqtYyxReomObdVETH3vrai4KWqatWbDNOYy7XNV3C2ZwdyZnl30Tu+5t0AAAeM1nth2b7PcfayzWOqcLlmJvW/daLd7fvqp6Xno4UGwif/uLl32z7AbUGq/jQbCfpEy77Z9h8aDYT9ImXfbPsBtQar+NBsJ+kTLvtn2HxoNhP0iZd9s+wG1Bqv40Gwn6RMu+2fYfGg2E/SJl32z7AbUGq/jQbCfpEy77Z9h8aDYT9ImXfbPsBtQar+NBsJ+kTLvtn2HxoNhP0iZd9s+wG1Bqv40Gwn6RMu+2fYfGg2E/SJl32z7AbUGq/jQbCfpEy77Z9h8aDYT9ImXfbPsBtQar+NBsJ+kTLvtn2HxoNhP0iZd9s+wG1Bqv40Gwn6RMu+2fYfGg2E/SJl32z7AbUGq/jQbCfpEy77Z9h8aDYT9ImXfbPsBtQar+NBsJ+kTLvtn2HxoNhP0iZd9s+wG1Bqv40Gwn6RMu+2fYfGg2E/SJl32z7AbUGq/jQbCfpEy77Z9h8aDYT9ImXfbPsBtQar+NBsJ+kTLvtn2HxoNhP0iZd9s+wG1Bqv40Gwn6RMu+2fYfGg2E/SJl32z7AbUGq/jQbCfpEy77Z9h8aDYT9ImXfbPsBtQar+NBsJ+kTLvtn2HxoNhP0iZd9s+wG1Bqv40Gwn6RMu+2fYfGg2E/SJl32z7AbUHi9F7Ytm20LMLmVaO1VhczxVm37rXbtTO+Kel7QAAEUuMM7GmS+Uv7VfMLBuMM7GmS+Uv7VfMAAAAAAAAAAAAAAAAAAATzLcOD52F9I+Tbao+eZbhwfOwvpHybbBsMAAI59zXWecIXY7pzNsTkeda5wOFx2Drm3fs1zO+ironkBsUar+NBsJ+kTLvtn2HxoNhP0iZd9s+wG1Bqv40Gwn6RMu+2fYfGg2E/SJl32z7AbUGq/jQbCfpEy77Z9h8aDYT9ImXfbPsBtRWJw2v2hM78Xw3qJ0fGh2ERyztEy77Z9iAHCx1Zp7W22rNdQ6XzO1j8vv2LFNu/b/VqmKd0g08AAn9xd3Y91B5Sj1EAU/uLu7HuoPKUeoCWkMsQyAAAAAAAAAAAAAAAAAAAAAAAADEoK8Yz8vaT8WvesnVKCvGM8mf6T8WvesCG4AB2wAAAAAAB92R4b35neX4Tdv8AdsVat7unfXELlsgw0YPI8uwkREe44Szb+yiIU97PrEYnXWn7HVburzLDx/8A9IXIWY3WbcdFMR/sD9gA4sTdpsYe7erndTboqqnwRG9TntFzK5nGvNQZncq6qrEZjfr3/wD5zC4HUNU0ZBmdVM7pjB3pif8A8JU0Z1VNecY6uqd81Ym7M/8AlIPjAAAAAAAAAAAAAAAAAAABYTxeucTi9l2b5VVXM+8czmaYme1XTvmftSqQx4uXEb8q1dhd9X5t6zXu7XNuTOAYnmZAQT4xjLaaNRaVzaKeWvC3bEz07qt6HH1JxcY5Yo/J2jsR+9N+/R9XU70HQAAAAAAAAAAAAAAAAAAAAAAAAAAAAAAAAAAAASo4vTsqZt5Mq9ZYWr14vTsqZv5Lq9ZYT258IMgAilxhnY0yXyl/ar5hYNxhnY0yXyl/ar5gAAAAAAAAAAAAAAAAAACeZbhwfOwvpHybbVHzzLcOD52F9I+TbYNhgARu38qpbhIdm/V/lGtbTHOqW4SHZw1f5QrBrUAAAAAAAAABP7i7ux7qDylHqIAp/cXdy7PdQ7v4lHqAlpDLEMgAAAAAAAAAAAAAAAAAAAAAAAAIk8YNoHG51o/Jtb4CxVcjJb1VnE9TG/qbVfNVP1pbPgz3I8r1JlGLyLOcJbxOCxtqq1etVxviqmYBS3yR3hKLbbwItbaUzLEZvs6w1ed5NXVNdOHon/MWI590x+9EI/YrZ1rzA3qsPi9HZxauUzummrCV8k/YDzw7z4Daz7lM29Er9h8BtZ9ymbeiV+wHRjvPgNrPuUzb0Sv2HwG1n3KZt6JX7AdGO8+A2s+5TNvRK/YfAbWfcpm3olfsB0Y7z4Daz7lM29Er9h8BtZ9ymbeiV+wGND35wus8ixFNXU9RmOHnf0fpKVyeFri7hrVymd8VUUzE/Up1y3R2tMJmWFxUaVzXfZvUVx/lK+1VE9C3zTF6vEabyq/cpqprrwdmqqKo3TE9RG/fAOzAB8Oe26r2SZhap568Jdpj66JU059aqsZ7mNmrnt4q7TP1VyuiuURXRVRO6eqiad3hU/bYMlr09tQ1PlFyiaJsZlf3RPRNUzH3g8eAAAAAAAAAAAAAAAAAABPf5gTs4ubCVU6e1Xjd26mrFWre/vxTvTGRm4AeR15bscxGaXLfUzmeY3LkcnPFEboSaAA+oEKuMcxU+9dH4PfHJcv3N3b5tyEKZnGB4DP891fpvA5Pk2NxdrC4GuuuqzYqriKqquSN8R0In/AbWncpmvolfsB0Y7z4Daz7lM29Er9h8BtZ9ymbeiV+wHRjvPgNrPuUzb0Sv2HwG1n3KZt6JX7AdGO8+A2s+5TNvRK/YfAbWfcpm3olfsB0Y7z4Daz7lM29Er9h8BtZ9ymbeiV+wHRjvPgNrPuUzb0Sv2HwG1n3KZt6JX7AdGO8+A2s+5TNvRK/YfAbWfcpm3olfsB0Y7z4Daz7lM29Er9h8BtZ9ymbeiV+wHRjvPgNrPuUzb0Sv2HwG1n3KZt6JX7AdGO8+A2s+5TNvRK/YfAbWfcpm3olfsB0Y7z4Daz7lM29Er9h8BtZ9ymbeiV+wHRjvPgNrPuUzb0Sv2HwG1n3KZt6JX7AdGO8+A2s+5TNvRK/YfAbWfcpm3olfsB0Y7z4Daz7lM29Er9h8BtZ9ymbeiV+wHRjvPgNrPuUzb0Sv2HwG1n3KZt6JX7AdGO8+A2s+5TNvRK/YfAbWfcpm3olfsB0Y7z4Daz7lM29Er9h8BtZ9ymbeiV+wHRjvPgNrPuUzb0Sv2HwG1n3KZt6JX7AdGO8+A2s+5TNvRK/YfAbWfcpm3olfsBI3i9Oypm/kur1lhPbnwoD8AXTmoMo2nZriM1yXG4O1VltVMV37FVETPVc2+YT56QAARS4wzsaZL5S/tV8wsG4wzsaZL5S/tV8wAAAAAAAAAAAAAAAAAABPMtw4PnYX0j5Ntqj55luHB87C+kfJtsGwwAI51S3CQ7OGr/KFa2mOeFVvCH0fqvGbadWYrCaczK9ZuY+uaLlvDV1U1R0xMQDTw7z4Daz7lM29Er9h8BtZ9ymbeiV+wHRjvPgNrPuUzb0Sv2HwG1n3KZt6JX7AdGO8+A2s+5TNvRK/YfAbWfcpm3olfsB0Y7z4Daz7lM29Er9h8BtZ9ymbeiV+wHRjvPgNrPuUzb0Sv2Pqy7ZltDzbEU4TLdF5xevVzEREYSv8Y5AeZ7fJyrMuBNoHGaL2NYfF5lZqs4rPL9WOmmqOWLcxuo+2GkeD9wIM9xWaYXVO1mxGDwWHqi7ayzfvuXZjliK+iO8nXh8PYweHt4TC2abVmzTFFuimN0U0xG6IiO0DkAAAAAAAAAAAAAAAAAAAAAAAAAAAAcdeHw9yequYe1VPTVREy5AHD7zwfzSz5uD3ng/mlnzcOYBw+88H80s+bg954P5pZ83DmAcPvPB/NLPm4PeeD+aWfNw5gHD7zwfzSz5uD3ng/mlnzcOYBw+88Hze9LPm49jliIjkpjdHajoZAAAFaPDi0hXpzbbiszotdTh87w9GKomI5Jq5qv91l31orcPzZ5Of7PsDrfB4fq8TkV7qb0xHL7jXz/ZIK9fAH17wAAAAAAAAAAAAAAAAB+qKKrtcW6I31VzFMR0zL8ti8H3QV7aNtZyHT1Fma7EYmnEYme1Fqid87/sBZVwfdJfAnY9pjIq7fUXaMFReuxu5err/Onf9rYj8WbVuxZosWqYpt26YooiO1ERuiH7AABx3LFi7PVXbFuuY5uqpid32vz7zwfzSx5uPY5gHD7zwfzSz5uD3ng/mlnzcOYBw+88H80s+bg954P5pZ83DmAcPvPB/NLPm4PeeD+aWfNw5gHD7zwfzSz5uD3ng/mlnzcOYBw+88H80s+bg954P5pZ83DmAcPvPB/NLPm4PeeD+aWfNw5gHD7zwfzSz5uD3ng/mlnzcOYBw+88H80s+bg954P5pZ83DmAcPvPB/NLPm4PeeD+aWfNw5gHD7zwfzSz5uD3ng/mlnzcOYBw+88H80s+bg954P5pZ83DmAcPvPB/NLPm4PeeD+aWfNw5gHD7zwfzSz5uD3ng/mlnzcOYBw+88H80s+bg954P5pZ83DmAcPvPB/NLPm4PeeD+aWfNw5gHD7zwfzSz5uD3ng/mlnzcOYBw+88H80s+bg954P5pZ83DmAcPvPB/NLPm4PeeD+aWfNw5gHHbsWLVXVW7Nuif5aYhyAAACKXGGdjTJfKX9qvmFg3GGdjTJfKX9qvmAAAAAAAAAAAAAAAAAAAJ5luHB87C+kfJttUfPMtw4PnYX0j5Ntg2GAA4qsLha6pqrw1qZnnmaI3y5QHD7zwfzSz5uD3ng/mlnzcOYBw+88H80s+bg954P5pZ83DmAcPvPB/NLPm4PeeD+aWfNw5gHD7zwfzSz5uD3ng/mlnzcOYBw+88H80s+bh+rdixanfbs26J6aaYhyAHhAAAAAAAAAAAAAAAAAAAAAAAAAAAAAAAAAAAAAAAAAAAAdRq7TWA1hpnMtM5nbprw2Y4euxXExv3b45J+qXbsApw2h6MzLZ9rPNdI5paqovZfiKrcTVG7qqN/5tUd6Yec5k+eHTsNuaiye3tT07g+rx2W0RbzGi3Ty3LPar780/cgNPPzbgAAAAAAAAAAAAAAAAO+nvwBNk1WS6dxu07NcN1OIzb9Bgerp5abMT+dV9cok7DdlGabX9oGA0xg7VUYWK4vY69u5LViJ/O39+eZbFkGR5dprJsFkGU4emzg8DZps2qKY3RFMRuB2AAAAAAAAAAAAAAAAAAAAAAAAAAAAAAAAAAAAAAAAAAAAAAIpcYZ2NMl8pf2q+YWDcYZ2NMl8pf2q+YAAAAAAAAAAAAAAAAAAAnmW4cHzsL6R8m21R88y3Dg+dhfSPk22DYYAAAAAAAAAAAAAAAAAAAAAAAAAAAAAAAAAAAAAAAAAAAAAAAAAAAAAAAAAAAOHGYTC4/C3sFjbFN6xfom3coqjfFVMxumJVm8Kvg8Y/ZDqm5neS4W5c0zmdya8PciN8WK55Zt1dHeWcOj1no3INe6dxmmNS4G3isDjKJpqoqjmntVRPamAU0DcPCD4OupNimfXKqbN3GaexNczg8dTTMxEdqivomGngAAAAAAAAAAAAH3ZFkmaakzbC5JkuDuYrG4y5Fqzat075mqZYyfJc01BmWHyfJsDdxeLxNcW7Vm1T1VVdU95Y1wWuC9l+yfLrWrNU2beJ1RiqN/LG+nB0z+7T/N0yD1nBq2FYDYrou3h8RRRcz3MaabuYX93LFW79SO9DcAAAAAAAAAAAAAAAAAAAAAAAAAAAAAAAAAAAAAAAAAAAAAAAAilxhnY0yXyl/ar5hYNxhnY0yXyl/ar5gAAAAAAAAAAAAAAAAAACeZbhwfOwvpHybbVHzzLcOD52F9I+TbYNhgAAAAAAAAAAAAAAAAAAAAAAAAAAAAAAAAAAAAAAAAAAAAAAAAAAAAAAAAAAAAA6vUumMi1fk2IyDUeW2cdgcVTNFy1dp3xMT0dE99ALhBcC7UWhr2I1Ls7s3s2yPfNdeGpjqr+GjwfvUwsRYmIqpmmqImJ54kFJ9y1cs3KrV2iqiuiZpqoqjdMTHPG5+Vn22TgibNtqnuuZ4PDRkWc1b599YSiIprn+ejmlC3abwRtruziu7iYyec5y2iZ6nFYCJr/N6Zp54BpMcmIw+Iwl2bOKsXLNynnouUzTVH1S4wAAA7e4AB6jRuzLXmvsXRg9J6Xx2Pqrnd1dFqYoiOmap5AeXez2ZbItcbWc5oyjSOT3b8dVHuuIqiYs2qe3NVXMlJsj4AFfVWM32sZrEUxur/ACbg6ufvV1+xMPSujtM6Jyq1kulsnw2XYSzERTbs0RTv8M88yDVuwDgw6R2LYGjMLtFGZ6juURF7HV08lH8tuJ5o7/O3WAAAAAAAAAAAAAAAAAAAAAAAAAAAAAAAAAAAAAAAAAAAAAAAAAIpcYZ2NMl8pf2q+YWDcYbO7Znksz/Et3/qr46qnpgGRjqqek6qnpBkY6qnpOqp6QZGOqp6TqqekGRjqqek6qnpBkY6qnpOqp6QZGOqp6TqqekGRjqqek6qnpBkY6qnpOqp6QZGOqp6TqqekGZ5luHB87C+kfJttUdvjdzwtx4PnLsW0jPTltsGwwAAAAAAAAAAAAAAAAAAAAAAAAAAAAAAAAAAAAAAAAAAAAAAAAAAAAAAAAAAAAAAAGJiKommqImJ54mGQHhdabENlmvqK/hLo3L8Rdqj/jUWot3PD1VLSOp+L62Y5nNV3Tue5plNc8tNE1Rdoj7eVKgBBDNeLo1Lbrn8j6+wV6nte7WKqZdHVxee1WKpinU2QzTv5JmqrlWFgK/8Fxd20S5u9/6vye1G/l9ziqrc9lkPFz5VRVTXqTX9+9EbpmnC4eKf95TOAaO0dwN9hukard+dOV5riKOX3THXZucvT1PM3JleS5RkmGpweT5bhsHYojdTbsWooiPsfaAd+QAAAAAAAAAAAAAAAAAAAAAAAAAAAAAAAAAAAAAAAAAAAAAAAAAAAdLqjRml9a4O3gNVZJhczw9qv3Si3iKOqimrpeY+L/sZ+jrJvMQ2CA198X/Yz9HWTeYg+L/sZ+jrJvMQ2CA198X/AGM/R1k3mIPi/wCxn6Osm8xDYIDX3xf9jP0dZN5iD4v+xn6Osm8xDYIDX3xf9jP0dZN5iD4v+xn6Osm8xDYIDX3xf9jP0dZN5iD4v+xn6Osm8xDYIDX3xf8AYz9HWTeYg+L/ALGfo6ybzENggNffF/2M/R1k3mIPi/7Gfo6ybzENggNffF/2M/R1k3mIPi/7Gfo6ybzENggNffF/2M/R1k3mIPi/7Gfo6ybzENggNffF/wBjH0dZN5iHt8syzL8mwFjK8rwtGGwmGoi3ZtURupopjmiH1AAAAAAAAAAAAAAAAAAAAAAAAAAAAAAAAAAAAAAAAAAAAAAAAAAAAAAAAAAAAAAAAAAAAAAAAAAAAAAAAAAAAAAAAAAAAAAAAAAAAAAAAAAAAAAAAAAAAAAAAAAAAAAAAAAAAAAAAAAAAAAAAAAAAAAAAAAAAAAAAAAAAAAAAAAAAAAAAAAAAAAAAAAAAAAAAAAAAAAAAAAAAAAAAAAAAAAAAAAAAAAAAAAAAAAAAAAAAAAAAAAAAAAAAAAAAAAAAAAAAAAAAAAAAAAAAAAAAAAAAAAAAAAAAAAAAAAAAAAAAAAAAAAAAAAAAAAAAAAAAAAAAAAAAAAAAAAAAAAAAAAAAAAAAAAAAAAAAAAAAAAAAAAAAAAAAAAAAAAAAAAAAAAAAAAAAAAAAAAAAAAAAAAAAAAAAAAAAAAAAAAAAAAAAAAAAAAAAAAAAAAAAAAAAAAAAAAAAAAAAAAAAAAAAAAAAAAAAAAAAAAAAAAAAAAAAAAAAAAAAAAAAAAAAAAAAAAAAAAAAAAAAAAAAAAAAAAAAAAAAAAAAAAAAAAAAAAAAAAAAAAAAAAAAAAAAAAAAAAAAAAAAAAAAAAAAAAAAAAAAAAAAAAAAAAAAAAAAAAAAAAAAAAAAAAAAAAAAAAAAAAAAAAAAAAAAAAAAAAAAAAAAAAAAAAAAAAAAAAAAAAAAAAAAAAAAAAAAAAAAAAAAAAAAAAAAAAAAAAAAAAAAAAAAAAAAAAAAAAAAAAAAAAAAAAAAAAAAAAAAAAAAAAAAAAAAAAAAAAAAAAAAAAAAAAAAAAAAAAAAAAAAAAAAAAAAAAAAAAAAAAAAAAAAAAAAAAAAAAAAAAAAAAAAAAAAAAAAAAAAAAAAAAAAAAAAAAAAAAAAAAAAAAAAAAAAAAAAAAAAAAAAAAAAAAAAAAAAAAAAAAAAAAAAAAAAAAAAAAAAAAAAAAAAAAAAAAAAAAAAAAAAAAAAAAAAAAAAAAAAAAAAAAAAAAAAAAAAAAAAAAAAAAAAAAAAAAAAAAAAAAAAAAAAAAAAAAAAAAAAAAAAAAAAAAAAAAAAAAAAAAAAAAAAAAAAAAAAAAAAAAAAAAAAAAAAAAAAAAAAAAAAAAAAAAAAAAAAAAAAAAAAAAAAAAAAAAAAAAAAAAAAAAAAAAAAAAAAAAAAAAAAAAAAAAAAAAAAAAAAAAAAAAAAAAAAAAAAAAAAAAAAAAAAAAAAAAAAAAAAAAAAAAAAAAAAAAAAAAAAAAAAAAAAAAAAAAAAAAAAAAAAAAAAAAAAAAAAAAAAAAAAAAAAAAAAAAAAAAAAAAAAAAAAAAAAAAAAAAAAAAAAAAAAAAAAAAAAAAAAAAAAAAAAAAAAAAAAAAAAAAAP//Z;" vertex="1" parent="vXx897osCVxb41_K1xxa-34">
          <mxGeometry x="15" y="11" width="90" height="90" as="geometry" />
        </mxCell>
        <mxCell id="vXx897osCVxb41_K1xxa-37" value="all-MiniLM-L6-v2&lt;div&gt;Embedding Model&lt;/div&gt;" style="text;html=1;align=center;verticalAlign=middle;resizable=0;points=[];autosize=1;strokeColor=none;fillColor=none;" vertex="1" parent="vXx897osCVxb41_K1xxa-34">
          <mxGeometry y="110" width="120" height="40" as="geometry" />
        </mxCell>
        <mxCell id="vXx897osCVxb41_K1xxa-41" value="Chunk Embedding" style="rounded=0;whiteSpace=wrap;html=1;" vertex="1" parent="1">
          <mxGeometry x="239" y="448" width="120" height="30" as="geometry" />
        </mxCell>
        <mxCell id="vXx897osCVxb41_K1xxa-42" value="Query Embedding" style="rounded=0;whiteSpace=wrap;html=1;" vertex="1" parent="1">
          <mxGeometry x="479" y="448" width="120" height="30" as="geometry" />
        </mxCell>
        <mxCell id="vXx897osCVxb41_K1xxa-44" value="" style="group" vertex="1" connectable="0" parent="1">
          <mxGeometry x="354" y="528" width="130" height="130" as="geometry" />
        </mxCell>
        <mxCell id="vXx897osCVxb41_K1xxa-43" value="" style="rounded=0;whiteSpace=wrap;html=1;" vertex="1" parent="vXx897osCVxb41_K1xxa-44">
          <mxGeometry x="5" width="120" height="130" as="geometry" />
        </mxCell>
        <mxCell id="vXx897osCVxb41_K1xxa-12" value="FAISS Vector Index" style="text;html=1;align=center;verticalAlign=middle;resizable=0;points=[];autosize=1;strokeColor=none;fillColor=none;" vertex="1" parent="vXx897osCVxb41_K1xxa-44">
          <mxGeometry y="96" width="130" height="30" as="geometry" />
        </mxCell>
        <mxCell id="vXx897osCVxb41_K1xxa-16" value="" style="group" vertex="1" connectable="0" parent="vXx897osCVxb41_K1xxa-44">
          <mxGeometry x="20" y="12" width="90" height="80" as="geometry" />
        </mxCell>
        <mxCell id="vXx897osCVxb41_K1xxa-8" value="" style="strokeWidth=2;html=1;shape=mxgraph.flowchart.database;whiteSpace=wrap;" vertex="1" parent="vXx897osCVxb41_K1xxa-16">
          <mxGeometry x="6" width="80" height="80" as="geometry" />
        </mxCell>
        <mxCell id="vXx897osCVxb41_K1xxa-13" value="Chunk&lt;div&gt;embeddings&lt;div&gt;Storage&lt;/div&gt;&lt;/div&gt;" style="text;html=1;align=center;verticalAlign=middle;resizable=0;points=[];autosize=1;strokeColor=none;fillColor=none;" vertex="1" parent="vXx897osCVxb41_K1xxa-16">
          <mxGeometry y="20" width="90" height="60" as="geometry" />
        </mxCell>
        <mxCell id="vXx897osCVxb41_K1xxa-46" value="" style="edgeStyle=orthogonalEdgeStyle;rounded=0;orthogonalLoop=1;jettySize=auto;html=1;" edge="1" parent="1">
          <mxGeometry relative="1" as="geometry">
            <mxPoint x="419" y="658" as="sourcePoint" />
            <mxPoint x="419" y="692" as="targetPoint" />
          </mxGeometry>
        </mxCell>
        <mxCell id="vXx897osCVxb41_K1xxa-47" value="&amp;nbsp;Top-k Retrieved Chunks&amp;nbsp;&amp;nbsp;" style="rounded=0;whiteSpace=wrap;html=1;" vertex="1" parent="1">
          <mxGeometry x="339" y="692" width="160" height="60" as="geometry" />
        </mxCell>
      </root>
    </mxGraphModel>
  </diagram>
</mxfile>
